<svg height="152" viewBox="0 0 152 152" width="152" xmlns="http://www.w3.org/2000/svg"><circle cx="76" cy="76" fill="#57dbd8" opacity=".45" r="76"/><circle cx="76" cy="76" fill="#fff" r="62"/><g fill-rule="evenodd"><path d="m28.555 96.43a21.633 21.633 0 0 0 -5.383 2.231 1.3 1.3 0 0 1 -1.273.04l-3.13-1.6a1.313 1.313 0 0 0 -1.541.243l-3.182 3.182a1.306 1.306 0 0 0 -.243 1.537l1.6 3.135a1.3 1.3 0 0 1 -.04 1.273 21.573 21.573 0 0 0 -2.231 5.383 1.286 1.286 0 0 1 -.873.925l-3.342 1.086a1.31 1.31 0 0 0 -.917 1.264v4.5a1.3 1.3 0 0 0 .915 1.258l3.342 1.086a1.3 1.3 0 0 1 .873.925 21.584 21.584 0 0 0 2.231 5.383 1.3 1.3 0 0 1 .04 1.273l-1.6 3.135a1.312 1.312 0 0 0 .243 1.541l3.182 3.177a1.306 1.306 0 0 0 1.541.243l3.13-1.593a1.291 1.291 0 0 1 1.273.035 21.574 21.574 0 0 0 5.383 2.231 1.286 1.286 0 0 1 .925.873l1.084 3.342a1.31 1.31 0 0 0 1.263.915h4.5a1.3 1.3 0 0 0 1.258-.915l1.089-3.342a1.288 1.288 0 0 1 .92-.873 21.583 21.583 0 0 0 5.383-2.231 1.291 1.291 0 0 1 1.273-.035l3.135 1.593a1.306 1.306 0 0 0 1.541-.243l3.177-3.177a1.308 1.308 0 0 0 .248-1.541l-1.6-3.135a1.291 1.291 0 0 1 .035-1.273 21.524 21.524 0 0 0 2.231-5.383 1.3 1.3 0 0 1 .873-.925l3.342-1.086a1.305 1.305 0 0 0 .915-1.258v-4.5a1.31 1.31 0 0 0 -.915-1.263l-3.342-1.086a1.286 1.286 0 0 1 -.873-.925 21.633 21.633 0 0 0 -2.231-5.383 1.291 1.291 0 0 1 -.035-1.273l1.6-3.135a1.3 1.3 0 0 0 -.248-1.537l-3.177-3.182a1.313 1.313 0 0 0 -1.541-.243l-3.135 1.6a1.3 1.3 0 0 1 -1.273-.04 21.525 21.525 0 0 0 -5.383-2.231 1.285 1.285 0 0 1 -.92-.873l-1.089-3.342a1.305 1.305 0 0 0 -1.258-.915h-4.5a1.31 1.31 0 0 0 -1.263.915l-1.082 3.341a1.289 1.289 0 0 1 -.925.873z" fill="#bec7cf" transform="translate(30.297 -41.338)"/><path d="m28.555 96.43a21.585 21.585 0 0 0 -4.836 1.922l.673.348a1.3 1.3 0 0 0 1.273-.04 21.573 21.573 0 0 1 5.383-2.231 1.294 1.294 0 0 0 .925-.873l1.084-3.342a1.307 1.307 0 0 1 1.263-.915h-2.491a1.31 1.31 0 0 0 -1.263.915l-1.084 3.342a1.293 1.293 0 0 1 -.926.873zm-8.995 1.076-.79-.4a1.313 1.313 0 0 0 -1.541.243l-3.182 3.182a1.306 1.306 0 0 0 -.243 1.537l1.6 3.135a1.3 1.3 0 0 1 -.04 1.273 21.573 21.573 0 0 0 -2.231 5.383 1.286 1.286 0 0 1 -.873.925l-3.342 1.086a1.31 1.31 0 0 0 -.918 1.259v4.5a1.3 1.3 0 0 0 .915 1.258l3.342 1.086a1.3 1.3 0 0 1 .873.925 21.583 21.583 0 0 0 2.231 5.383 1.3 1.3 0 0 1 .04 1.273l-1.6 3.135a1.312 1.312 0 0 0 .243 1.541l3.182 3.177a1.306 1.306 0 0 0 1.541.243l.79-.4-3.021-3.021a1.314 1.314 0 0 1 -.243-1.541l1.6-3.135a1.3 1.3 0 0 0 -.04-1.273 21.524 21.524 0 0 1 -2.231-5.383 1.3 1.3 0 0 0 -.873-.925l-3.342-1.086a1.305 1.305 0 0 1 -.915-1.258v-4.5a1.31 1.31 0 0 1 .915-1.263l3.342-1.086a1.286 1.286 0 0 0 .873-.925 21.633 21.633 0 0 1 2.231-5.383 1.3 1.3 0 0 0 .04-1.273l-1.6-3.135a1.306 1.306 0 0 1 .243-1.537zm4.159 38.885a21.436 21.436 0 0 0 4.836 1.922 1.286 1.286 0 0 1 .925.873l1.084 3.342a1.31 1.31 0 0 0 1.263.915h2.491a1.305 1.305 0 0 1 -1.263-.915l-1.084-3.342a1.294 1.294 0 0 0 -.925-.873 21.657 21.657 0 0 1 -5.383-2.231 1.291 1.291 0 0 0 -1.273-.035z" fill="#abb3ba" transform="translate(30.297 -41.338)"/><path d="m129.333 202.534a10.082 10.082 0 1 1 -10.079-10.084 10.082 10.082 0 0 1 10.079 10.084z" fill="#eaf6ff" transform="translate(-54.88 -126.498)"/><path d="m120.139 212.584c-.291.025-.586.04-.885.04a10.082 10.082 0 1 1 0-20.163c.3 0 .594.013.885.04a10.081 10.081 0 0 0 0 20.084z" fill="#d3dde6" transform="translate(-54.88 -126.506)"/><path d="m253.727 247.695-1.658 6.186a6.784 6.784 0 0 1 -1.089 2.31l-.4.552a6.875 6.875 0 0 0 -1.337 4.162v11.009h-15.918v-11.465a6.837 6.837 0 0 0 -.885-3.449l-.99-1.8a6.89 6.89 0 0 1 -.881-3.446v-7.834h21.483z" fill="#fbbd80" transform="translate(-157.089 -169.832)"/><path d="m233.317 207.5a2.759 2.759 0 0 1 2.752 2.752v5.318a2.75 2.75 0 1 1 -5.5 0v-5.318a2.756 2.756 0 0 1 2.747-2.752z" fill="#fbbd80" transform="translate(-157.089 -139.169)"/><path d="m268.1 200.45a2.756 2.756 0 0 1 2.747 2.747v5.323a2.75 2.75 0 0 1 -5.5 0v-5.32a2.758 2.758 0 0 1 2.753-2.75z" fill="#fbbd80" transform="translate(-186.371 -133.233)"/><path d="m302.9 190.97a2.761 2.761 0 0 1 2.752 2.752v5.318a2.752 2.752 0 1 1 -5.5 0v-5.318a2.758 2.758 0 0 1 2.752-2.752z" fill="#fbbd80" transform="translate(-215.67 -125.252)"/><path d="m337.717 200.45a2.758 2.758 0 0 1 2.752 2.747v5.323a2.75 2.75 0 0 1 -5.5 0v-5.32a2.755 2.755 0 0 1 2.748-2.75z" fill="#fbbd80" transform="translate(-244.985 -133.233)"/><path d="m305.393 246.02-.4.552a6.875 6.875 0 0 0 -1.337 4.162v11.009h-8.456v-14.03a5.236 5.236 0 0 1 5.226-5.221h.691l1.094-4.09-4.311-1.154a2.75 2.75 0 1 1 1.424-5.313l4.311 1.154 2.37.634a3.055 3.055 0 0 1 2.158 3.734l-1.68 6.255a6.748 6.748 0 0 1 -1.09 2.308z" fill="#fbbd80" transform="translate(-211.502 -159.661)"/><path d="m384.768 99.567 8.448-8.448a1 1 0 0 1 1.41 0l8.443 8.448a1 1 0 0 1 -.7 1.7h-4.55a1 1 0 0 0 -1 1v25.2a1 1 0 0 1 -1 1h-3.8a1 1 0 0 1 -1-1v-25.2a1 1 0 0 0 -.994-1h-4.55a.994.994 0 0 1 -.707-1.7z" fill="#70da40" transform="translate(-286.663 -40.942)"/><path d="m384.771 99.567 8.448-8.448a1 1 0 0 1 1.41 0l.36.365-8.083 8.083a1 1 0 0 0 .7 1.7h-2.131a1 1 0 0 1 -.708-1.7zm9.385 28.9h-2.136a1 1 0 0 1 -1-1v-25.2a1 1 0 0 0 -.994-1h2.131a1 1 0 0 1 1 1v25.2a1 1 0 0 0 .999.997z" fill="#65c43a" transform="translate(-286.665 -40.942)"/></g><path d="m59.7 108.186v-3.986a4.014 4.014 0 0 0 -6.026-3.476 4.01 4.01 0 0 0 -6.08-1.091c-.158-.3-.319-.6-.488-.887-.013-.022-.014-.033-.016-.033a.111.111 0 0 1 .011-.03l1.6-3.133a2.593 2.593 0 0 0 -.477-3.007l-3.182-3.182a2.6 2.6 0 0 0 -3.008-.474l-3.132 1.6a.13.13 0 0 1 -.022.009.153.153 0 0 1 -.035-.017 22.918 22.918 0 0 0 -5.688-2.354.1.1 0 0 1 -.036-.014.13.13 0 0 1 -.013-.028l-1.084-3.336a2.584 2.584 0 0 0 -2.464-1.8h-4.5a2.6 2.6 0 0 0 -2.468 1.793l-1.084 3.34a.28.28 0 0 1 -.011.027.079.079 0 0 1 -.03.013 22.888 22.888 0 0 0 -5.7 2.36l-.027.014a.109.109 0 0 1 -.028-.009l-3.135-1.6a2.585 2.585 0 0 0 -3.005.479l-3.172 3.183a2.6 2.6 0 0 0 -.479 3.013l1.6 3.122a.1.1 0 0 1 .013.028.171.171 0 0 1 -.017.036 22.786 22.786 0 0 0 -2.355 5.688c-.006.021-.011.033-.011.033a.154.154 0 0 1 -.033.014l-3.342 1.089a2.584 2.584 0 0 0 -1.8 2.464v4.494a2.583 2.583 0 0 0 1.793 2.463l3.331 1.082a.22.22 0 0 1 .04.017.17.17 0 0 1 .011.032 23.058 23.058 0 0 0 2.363 5.7c.008.013.009.019.011.021a.086.086 0 0 1 -.009.025l-1.6 3.132a2.6 2.6 0 0 0 .479 3.01l3.177 3.177a2.581 2.581 0 0 0 3.007.474l3.128-1.593a.126.126 0 0 1 .033-.013.1.1 0 0 1 .028.011 22.746 22.746 0 0 0 5.7 2.363.148.148 0 0 1 .024.008.1.1 0 0 1 .014.032l1.086 3.345a2.563 2.563 0 0 0 2.466 1.783h4.494a2.579 2.579 0 0 0 2.463-1.789l1.084-3.34c.006-.019.013-.028.011-.028a.133.133 0 0 1 .028-.011 22.743 22.743 0 0 0 4.766-1.851v5.753a1.266 1.266 0 0 0 1.266 1.269h15.936a1.266 1.266 0 0 0 1.266-1.266v-11.01a5.626 5.626 0 0 1 1.1-3.43l.39-.55a8.032 8.032 0 0 0 1.288-2.722l1.676-6.255a4.323 4.323 0 0 0 -1.132-4.18zm-4.018-5.468a1.488 1.488 0 0 1 1.486 1.486v2.713l-2.97-.8v-1.917a1.486 1.486 0 0 1 1.48-1.482zm-5.5-1.5a1.506 1.506 0 0 1 1.486 1.486v2.733l-.569-.152a3.992 3.992 0 0 0 -2.4.107v-2.689a1.487 1.487 0 0 1 1.486-1.486zm-15.032 13.021a8.787 8.787 0 1 1 0-7.921zm5.5-3.592a1.488 1.488 0 0 1 -1.486 1.486 1.506 1.506 0 0 1 -1.486-1.486v-5.324a1.486 1.486 0 0 1 2.972 0zm2.531-6.443a1.488 1.488 0 0 1 2.977 0v3.974a4.013 4.013 0 0 0 -.055 1.733 1.486 1.486 0 0 1 -2.921-.384zm-5.618 23.677a20.217 20.217 0 0 1 -5.062 2.1 2.541 2.541 0 0 0 -1.808 1.707l-1.084 3.34c-.008.025-.014.036-.055.036h-4.493c-.038 0-.047 0-.06-.04l-1.084-3.337a2.542 2.542 0 0 0 -1.805-1.709 20.225 20.225 0 0 1 -5.067-2.1 2.567 2.567 0 0 0 -2.48-.068l-3.132 1.6c-.036.017-.047.013-.068-.009l-3.173-3.168c-.038-.038-.028-.055-.019-.076l1.6-3.132a2.529 2.529 0 0 0 -.073-2.48 20.518 20.518 0 0 1 -2.1-5.057 2.561 2.561 0 0 0 -1.7-1.824l-3.34-1.084c-.035-.011-.041-.024-.041-.054v-4.5c0-.03.006-.043.046-.055l3.335-1.084a2.557 2.557 0 0 0 1.7-1.806 20.341 20.341 0 0 1 2.1-5.057 2.551 2.551 0 0 0 .076-2.491l-1.6-3.122c-.017-.035-.016-.049.011-.076l3.177-3.177c.03-.03.044-.025.066-.014l3.136 1.6a2.546 2.546 0 0 0 2.48-.076 20.42 20.42 0 0 1 5.07-2.1 2.557 2.557 0 0 0 1.8-1.7l1.084-3.335c.016-.051.035-.051.062-.051h4.494c.03 0 .043.006.055.044l1.084 3.337a2.56 2.56 0 0 0 1.805 1.71 20.466 20.466 0 0 1 5.055 2.09 2.532 2.532 0 0 0 2.491.081l3.13-1.6c.022-.011.04-.019.073.013l3.177 3.177c.017.017.03.03.009.071l-1.6 3.132a2.567 2.567 0 0 0 .073 2.482c.035.06.068.122.1.182-.114-.009-.228-.016-.343-.016a4.016 4.016 0 0 0 -3.324 1.764 4.009 4.009 0 0 0 -5.417 1 11.32 11.32 0 1 0 -.539 15.242 8.323 8.323 0 0 0 .8 2.035l.986 1.8a5.576 5.576 0 0 1 .73 2.836v2.853a2.455 2.455 0 0 0 -.343.168zm20.816-16.173-1.676 6.257a5.537 5.537 0 0 1 -.9 1.906l-.39.552a8.147 8.147 0 0 0 -1.573 4.9v9.744h-13.4v-10.205a8.1 8.1 0 0 0 -1.043-4.055l-.986-1.8a5.6 5.6 0 0 1 -.73-2.839v-1.788a4.011 4.011 0 0 0 4.81-1.478 4.006 4.006 0 0 0 5.067-.583 3.956 3.956 0 0 0 1.459.732l3.087.828-.52 1.936a6.5 6.5 0 0 0 -6.208 6.484 1.266 1.266 0 0 0 2.532 0 3.962 3.962 0 0 1 3.958-3.958h.691a1.265 1.265 0 0 0 1.222-.937l1.1-4.091a1.266 1.266 0 0 0 -.895-1.551l-4.313-1.162a1.492 1.492 0 0 1 -1.054-1.805c.011-.028.019-.057.028-.087a.344.344 0 0 0 .011-.038 1.5 1.5 0 0 1 1.788-.937l6.682 1.793a1.78 1.78 0 0 1 1.255 2.178zm21.878-19.741-8.457-8.456a2.271 2.271 0 0 0 -3.2 0l-8.451 8.451a2.264 2.264 0 0 0 1.6 3.864h4.282v24.939a2.268 2.268 0 0 0 2.265 2.265h3.805a2.265 2.265 0 0 0 2.261-2.265v-24.934h4.286a2.263 2.263 0 0 0 1.6-3.864zm-6.151 1.332a2.268 2.268 0 0 0 -2.265 2.265v24.936h-3.266v-24.937a2.268 2.268 0 0 0 -2.266-2.263h-3.9l7.8-7.8 7.8 7.8z" transform="translate(37.049 -34.229)"/></svg>