<svg xmlns="http://www.w3.org/2000/svg" width="152" height="152" viewBox="0 0 152 152"><g transform="translate(-1039.051 -4677)"><g transform="translate(1046.224 4684)"><circle cx="76" cy="76" r="76" transform="translate(-7.173 -7)" fill="#57dbd8" opacity="0.45"/><path d="M62,0A62,62,0,1,1,0,62,62,62,0,0,1,62,0Z" transform="translate(6.827 7)" fill="#fff"/></g><g transform="translate(1072.296 4713.796)"><g transform="translate(1.264 0.632)"><g transform="translate(18.023)"><path d="M163.694,15.788a24.659,24.659,0,0,1,7.23,3l4.7-2.084,5.535,5.535-2.084,4.7a24.667,24.667,0,0,1,3,7.23l4.794,1.845V43.84l-4.794,1.845a24.686,24.686,0,0,1-3,7.227l2.084,4.7-5.535,5.539-4.7-2.088a24.671,24.671,0,0,1-7.23,3l-1.845,4.79h-7.831l-1.845-4.794a24.678,24.678,0,0,1-7.227-3l-4.7,2.088-5.539-5.539,2.088-4.695a24.748,24.748,0,0,1-3-7.23l-4.79-1.845V36.009l4.79-1.845a24.67,24.67,0,0,1,3-7.23l-2.088-4.7,5.539-5.535,4.695,2.084a24.737,24.737,0,0,1,7.23-3l1.845-4.794h7.831Z" transform="translate(-129.006 -10.994)" fill="#a79ba7" fill-rule="evenodd"/><path d="M230.184,17.4l1.579-.7,5.535,5.535-2.084,4.7a24.667,24.667,0,0,1,3,7.23L243,36.009V43.84l-4.794,1.845a24.686,24.686,0,0,1-3,7.227l2.084,4.7-5.535,5.539-1.579-.7,4.838-4.838-2.088-4.7a24.686,24.686,0,0,0,3-7.227l4.794-1.845V36.009l-4.794-1.845a24.667,24.667,0,0,0-3-7.23l2.088-4.7Zm-34.5,0,.7-.7,4.695,2.084c-.331.184-.659.376-.981.577Zm24.147-1.613a24.659,24.659,0,0,1,7.23,3l-1.295.577a32.259,32.259,0,0,0-8.214-3.574l-1.845-4.794h2.279ZM201.086,61.061l-4.7,2.088-.7-.7,4.415-1.961Q200.583,60.785,201.086,61.061Zm25.978,0a24.672,24.672,0,0,1-7.23,3l-1.845,4.79H215.71l1.845-4.79a32.338,32.338,0,0,0,8.218-3.574Z" transform="translate(-185.146 -10.994)" fill="#837683" fill-rule="evenodd"/></g><g transform="translate(30.006 11.982)"><path d="M221.752,86.793a16.946,16.946,0,1,1-16.946,16.946A16.947,16.947,0,0,1,221.752,86.793Z" transform="translate(-204.806 -86.793)" fill="#ffc338" fill-rule="evenodd"/><path d="M304.277,86.793a16.946,16.946,0,1,1,0,33.893c-.488,0-.972-.022-1.451-.063a16.946,16.946,0,0,0,0-33.768C303.3,86.815,303.788,86.793,304.277,86.793Z" transform="translate(-287.331 -86.793)" fill="#f5b829" fill-rule="evenodd"/></g><g transform="translate(0 41.596)"><path d="M166.306,294.7c-5.059-18.88,12.829-20.453,18.674-20.574a.285.285,0,0,1,.176.512C178.322,279.751,181.3,294.472,166.306,294.7Z" transform="translate(-141.637 -274.122)" fill="#6cf5c2" fill-rule="evenodd"/><path d="M38.574,348.894c-14.541,3.665-15.474-11.326-23.4-14.5a.284.284,0,0,1,.037-.54C20.888,332.458,38.574,329.348,38.574,348.894Z" transform="translate(-14.995 -323.512)" fill="#6cf5c2" fill-rule="evenodd"/></g></g><path d="M30.421,76.833c-6.829,1.161-10.667-1.757-13.734-5.474-1.525-1.849-2.844-3.912-4.278-5.711a11.288,11.288,0,0,0-4.436-3.734,1.549,1.549,0,0,1,.2-2.942h0a32.819,32.819,0,0,1,11.784-.885,14.864,14.864,0,0,1,8.813,4.138,13.16,13.16,0,0,1,2.013,2.688,14.806,14.806,0,0,1,1.692-7.761L31.1,55.772a1.265,1.265,0,0,1-.261-1.408l1.822-4.1a26.024,26.024,0,0,1-2.645-6.37l-4.182-1.609a1.265,1.265,0,0,1-.81-1.18V33.281a1.264,1.264,0,0,1,.81-1.18l4.181-1.609a26.058,26.058,0,0,1,2.646-6.377l-1.822-4.1a1.265,1.265,0,0,1,.261-1.408l5.533-5.533a1.265,1.265,0,0,1,1.408-.261l4.1,1.822A25.87,25.87,0,0,1,48.511,12l1.616-4.189A1.264,1.264,0,0,1,51.307,7h7.827a1.265,1.265,0,0,1,1.181.811L61.923,12a25.874,25.874,0,0,1,6.369,2.639l4.1-1.822a1.265,1.265,0,0,1,1.408.261l5.533,5.533a1.265,1.265,0,0,1,.262,1.406l-1.816,4.1a25.826,25.826,0,0,1,2.64,6.378L84.6,32.1a1.264,1.264,0,0,1,.81,1.18v7.827a1.265,1.265,0,0,1-.81,1.18L80.417,43.9a26.085,26.085,0,0,1-2.64,6.369l1.816,4.1a1.265,1.265,0,0,1-.262,1.406L73.8,61.306a1.265,1.265,0,0,1-1.406.262l-4.1-1.815a25.794,25.794,0,0,1-6.371,2.64l-1.609,4.18a1.264,1.264,0,0,1-1.18.81H51.307a1.265,1.265,0,0,1-1.18-.81l-1.609-4.18q-.8-.212-1.58-.473-.18.424-.369.842c-2.071,4.538-5.161,8.463-12.591,8.9a23.7,23.7,0,0,0-.528,12.258,1.265,1.265,0,0,1-2.489.451,31.773,31.773,0,0,1-.54-7.535Zm-.056-5.027a13.323,13.323,0,0,0-3.4-7.817,12.359,12.359,0,0,0-7.35-3.4,27.324,27.324,0,0,0-8.375.312c2.178,1.655,3.9,4.139,5.7,6.623,1.883,2.594,3.877,5.185,6.954,6.368a11.071,11.071,0,0,0,5.479.534A34.138,34.138,0,0,0,20.945,68a1.265,1.265,0,1,1,1.265-2.19A38.982,38.982,0,0,1,30.365,71.806Zm3.577-16.77a15.956,15.956,0,0,1,6.028-4.248,23.239,23.239,0,0,1,2.286-.823,18.142,18.142,0,1,1,7.687,4.657c-.257.486-.494.994-.721,1.515-.479,1.1-.909,2.259-1.352,3.427q.928.3,1.883.531a1.265,1.265,0,0,1,.889.776l1.532,3.982h6.09L59.8,60.872a1.265,1.265,0,0,1,.888-.776,23.257,23.257,0,0,0,6.855-2.84,1.265,1.265,0,0,1,1.177-.081l3.9,1.73L76.929,54.6l-1.73-3.9a1.265,1.265,0,0,1,.078-1.173,23.562,23.562,0,0,0,2.843-6.86,1.265,1.265,0,0,1,.776-.888l3.982-1.533V34.15L78.9,32.617a1.264,1.264,0,0,1-.776-.889,23.31,23.31,0,0,0-2.841-6.864,1.265,1.265,0,0,1-.08-1.176l1.73-3.9-4.305-4.306-3.9,1.736a1.265,1.265,0,0,1-1.177-.079,23.348,23.348,0,0,0-6.857-2.842,1.265,1.265,0,0,1-.888-.777L58.265,9.528H52.174l-1.54,3.991a1.265,1.265,0,0,1-.887.775,23.349,23.349,0,0,0-6.857,2.842,1.265,1.265,0,0,1-1.177.079l-3.9-1.736-4.3,4.3,1.736,3.9a1.265,1.265,0,0,1-.079,1.177,23.546,23.546,0,0,0-2.85,6.867,1.264,1.264,0,0,1-.775.885L27.554,34.15v6.09l3.982,1.533a1.264,1.264,0,0,1,.775.884,23.5,23.5,0,0,0,2.849,6.859,1.264,1.264,0,0,1,.08,1.179L33.5,54.6ZM45.2,49.243a38.524,38.524,0,0,1,6.378-.649h0a1.549,1.549,0,0,1,.958,2.789,7.458,7.458,0,0,0-1.109,1.027A15.736,15.736,0,1,0,45.2,49.243ZM35.11,69.01a11.071,11.071,0,0,0,5.154-1.934c2.666-1.939,3.922-4.958,5.069-7.951,1.1-2.866,2.116-5.711,3.791-7.873a27.318,27.318,0,0,0-8.17,1.866,12.359,12.359,0,0,0-6.22,5.185,13.324,13.324,0,0,0-1.262,8.431,38.989,38.989,0,0,1,6.325-7.9,1.265,1.265,0,0,1,1.789,1.789A34.129,34.129,0,0,0,35.11,69.01ZM53.951,27.721v-1.25a1.265,1.265,0,1,1,2.529,0V27.7a6.321,6.321,0,0,1,4.894,3.852,1.265,1.265,0,0,1-2.332.979,4.179,4.179,0,0,0-5.476-2.09,2.766,2.766,0,0,0-1.955,2.7v0a2.383,2.383,0,0,0,1.532,2.068,8.353,8.353,0,0,0,2.293.666h0c2.859.471,6.03,1.727,6.438,5.126s-2.493,5.284-5.4,5.692v1.218a1.265,1.265,0,0,1-2.529,0V46.68a6.323,6.323,0,0,1-5.4-4.622,1.265,1.265,0,1,1,2.454-.611c.491,1.973,2.467,2.853,4.4,2.805h0a5.624,5.624,0,0,0,2.979-.856,2.11,2.11,0,0,0,.979-2.085h0a2.6,2.6,0,0,0-1.341-1.981,8.556,8.556,0,0,0-2.995-.951c-2.784-.453-5.789-1.81-5.945-5.111a5.216,5.216,0,0,1,3.555-5.174,6.994,6.994,0,0,1,1.311-.371Z" transform="translate(-7 -6.999)" fill-rule="evenodd"/></g></g></svg>