<svg height="152" viewBox="0 0 152 152" width="152" xmlns="http://www.w3.org/2000/svg"><circle cx="76" cy="76" fill="#91b3fa" opacity=".45" r="76"/><circle cx="76" cy="76" fill="#fff" r="62"/><path d="m151.449 51.684h-.007a35.466 35.466 0 0 1 -19.642-31.746v-7.53l9.818-4.908h19.645l9.822 4.911v7.539a35.466 35.466 0 0 1 -19.636 31.734z" fill="#f27a55" transform="translate(-73.343 29.636)"/><path d="m136.538 19.937v-7.53l9.823-4.907h-4.743l-9.818 4.907v7.529a35.466 35.466 0 0 0 19.643 31.744h.007q1.216-.606 2.37-1.3a35.467 35.467 0 0 1 -17.281-30.449z" fill="#ea5e42" transform="translate(-73.343 29.637)"/><path d="m208.264 60.959h-7.4v-7.4h-7.304v7.4h-7.4v7.306h7.4v7.4h7.306v-7.4h7.4z" fill="#f1f6f7" transform="translate(-119.116 -9.147)"/><path d="m184.332 317.12-19.988 15.623a7.859 7.859 0 0 1 -4.845 1.67h-27.635v-15.853a19.493 19.493 0 0 1 4.731-2.362 24.668 24.668 0 0 1 8.1-1.3 14.729 14.729 0 0 1 5.309.991l3.768 1.456h7.456a3.156 3.156 0 0 1 3.157 3.156 7.424 7.424 0 0 1 -.1.78.006.006 0 0 0 0 0 1.252 1.252 0 0 1 -.035.142l5.992-3.459 10.935-6.315a3.154 3.154 0 0 1 3.777.471c.021.019.038.038.055.055a3.132 3.132 0 0 1 .479.631 3.345 3.345 0 0 1 -1.154 4.312z" fill="#ffcebf" transform="translate(-73.401 -226.081)"/><path d="m341.505 312.178-18.305 10.622a6.387 6.387 0 0 1 -3.2.862h-2.247a25.737 25.737 0 0 1 3-2.232l16.927-9.774a3.154 3.154 0 0 1 3.777.471c.013.015.031.034.048.051z" fill="#ffb09e" transform="translate(-229.898 -226.081)"/><path d="m100.657 333.624h4.933v24.556h-4.933z" fill="#f1f6f7" transform="translate(-47.127 -244.936)"/><path d="m100.657 333.624h2.372v24.556h-2.372z" fill="#d2e4e7" transform="translate(-47.127 -244.936)"/><path d="m38.52 318.09h9.822v29.467h-9.822z" fill="#7398d4" transform="translate(5.187 -231.858)"/><path d="m38.52 318.09h3.162v29.467h-3.162z" fill="#4377c4" transform="translate(5.187 -231.858)"/><path d="m146.7 338.578a14.736 14.736 0 0 0 -2-.137 22.3 22.3 0 0 0 -12.828 3.663v15.852h4.743v-14.005a3.294 3.294 0 0 1 1.738-2.905 22.424 22.424 0 0 1 8.347-2.468z" fill="#ffb09e" transform="translate(-73.402 -248.992)"/><path d="m63.65 359.563a1.186 1.186 0 1 1 1.186-1.186 1.186 1.186 0 0 1 -1.186 1.186z" transform="translate(-14.971 -264.778)"/><path d="m101.607 306.025a4.424 4.424 0 0 0 -5.932-1.592l-15.16 8.754a4.351 4.351 0 0 0 -4.2-3.219h-7.231c-6.865-2.915-14.173-3.324-20.941.294v-1.685a1.186 1.186 0 0 0 -1.186-1.186h-3.747v-1.271a1.186 1.186 0 0 0 -1.186-1.186h-9.824a1.186 1.186 0 0 0 -1.186 1.186v12.151a1.186 1.186 0 1 0 2.372 0v-10.964h7.452v27.1h-7.451v-10.969a1.186 1.186 0 0 0 -2.372 0v12.151a1.186 1.186 0 0 0 1.186 1.186h9.823a1.186 1.186 0 0 0 1.186-1.186v-1.27h3.747a1.186 1.186 0 0 0 1.186-1.186v-3.726h11.3a1.186 1.186 0 0 0 0-2.372h-11.3v-14.03a21.113 21.113 0 0 1 14.125-2.884c2.148.368 5.563 2.219 6.595 2.219h7.457a1.973 1.973 0 0 1 1.971 1.928c-.085 1.008-.325 2.013-1.948 2.013h-14.319a1.186 1.186 0 0 0 0 2.372h14.318a4.317 4.317 0 0 0 3.988-2.621l16.53-9.545a1.971 1.971 0 0 1 2.693.725 2.221 2.221 0 0 1 -.858 2.783l-19.988 15.623a6.7 6.7 0 0 1 -4.113 1.418h-9.985a1.186 1.186 0 0 0 0 2.372h9.985a9.084 9.084 0 0 0 5.575-1.921l19.931-15.577a4.53 4.53 0 0 0 1.507-5.885zm-58.4 25.923v-22.185h2.562v22.184h-2.559z" transform="translate(11.506 -219.889)"/><path d="m144.6 46.433a1.186 1.186 0 0 0 1.06 0 36.436 36.436 0 0 0 16.083-15.746 1.186 1.186 0 0 0 -2.1-1.1 34.071 34.071 0 0 1 -14.513 14.458 34.083 34.083 0 0 1 -18.468-30.416v-6.799l8.917-4.458h19.084l8.917 4.458v6.806a34.142 34.142 0 0 1 -1.93 11.339 1.186 1.186 0 1 0 2.238.786 36.5 36.5 0 0 0 2.064-12.125v-7.536a1.186 1.186 0 0 0 -.656-1.061l-9.82-4.914a1.185 1.185 0 0 0 -.53-.125h-19.646a1.185 1.185 0 0 0 -.53.125l-9.823 4.911a1.186 1.186 0 0 0 -.656 1.061v7.529a37.009 37.009 0 0 0 20.309 32.807z" transform="translate(-67.026 35.948)"/><path d="m187.245 70.533h7.306a1.186 1.186 0 0 0 1.186-1.186v-6.211h6.212a1.186 1.186 0 0 0 1.186-1.186v-7.306a1.186 1.186 0 0 0 -1.186-1.186h-6.212v-6.211a1.186 1.186 0 0 0 -1.186-1.186h-7.306a1.186 1.186 0 0 0 -1.186 1.186v6.211h-6.212a1.186 1.186 0 0 0 -1.186 1.186v7.306a1.186 1.186 0 0 0 1.186 1.186h6.212v6.211a1.186 1.186 0 0 0 1.186 1.186zm-6.212-9.769v-4.934h6.212a1.186 1.186 0 0 0 1.186-1.186v-6.211h4.934v6.211a1.186 1.186 0 0 0 1.186 1.186h6.212v4.934h-6.212a1.186 1.186 0 0 0 -1.186 1.186v6.211h-4.934v-6.211a1.186 1.186 0 0 0 -1.186-1.186z" transform="translate(-112.801 -2.832)"/></svg>