<svg xmlns="http://www.w3.org/2000/svg" width="152" height="152" viewBox="0 0 152 152"><g transform="translate(-1247.051 -4677)"><g transform="translate(1254.224 4684)"><circle cx="76" cy="76" r="76" transform="translate(-7.173 -7)" fill="#91b3fa" opacity="0.45"/><circle cx="62" cy="62" r="62" transform="translate(6.827 7)" fill="#fff"/></g><g transform="translate(1286.086 4715.252)"><path d="M17.012,61.3c-.089-1.013-.135-2.036-.135-3.042A34.458,34.458,0,0,1,35.45,27.678l-1.084-.413a1.265,1.265,0,1,1,.9-2.363l3.881,1.479a1.264,1.264,0,0,1,.731,1.633l-1.483,3.881a1.265,1.265,0,0,1-2.363-.9l.366-.957A31.818,31.818,0,0,0,19.406,58.258c0,.932.042,1.88.125,2.819a1.265,1.265,0,0,1-1.148,1.371c-.038,0-.076,0-.113,0A1.265,1.265,0,0,1,17.012,61.3ZM65.1,87.061a31.974,31.974,0,0,1-30.558-1.648l1.185-.255a1.265,1.265,0,1,0-.532-2.473l-4.06.874a1.265,1.265,0,0,0-.97,1.5l.874,4.06a1.265,1.265,0,1,0,2.473-.532l-.209-.968a34.5,34.5,0,0,0,32.89,1.721A1.265,1.265,0,1,0,65.1,87.061ZM64.088,28.994A31.927,31.927,0,0,1,83.244,58.258q0,1.107-.075,2.2l-.715-.884a1.265,1.265,0,1,0-1.967,1.59L83.1,64.4a1.265,1.265,0,0,0,1.778.189l3.231-2.608a1.265,1.265,0,0,0-1.589-1.968l-.831.671q.083-1.206.085-2.425A34.456,34.456,0,0,0,65.1,26.676a1.265,1.265,0,1,0-1.012,2.318Zm-3.7,29.264A9.064,9.064,0,1,1,51.325,49.2,9.075,9.075,0,0,1,60.391,58.258Zm-2.529,0a6.535,6.535,0,1,0-6.537,6.533A6.542,6.542,0,0,0,57.862,58.258ZM67.573,69.45a1.265,1.265,0,0,1-.292,1.331l-3.428,3.433a1.264,1.264,0,0,1-1.331.293l-3.449-1.268-2.631,1.088L54.9,77.662a1.265,1.265,0,0,1-1.148.735H48.9a1.265,1.265,0,0,1-1.148-.735l-1.54-3.337-2.631-1.088-3.449,1.268a1.264,1.264,0,0,1-1.331-.293L35.37,70.781a1.265,1.265,0,0,1-.292-1.332l1.271-3.443-1.091-2.631-3.334-1.54a1.265,1.265,0,0,1-.734-1.148V55.833a1.265,1.265,0,0,1,.734-1.148l3.334-1.54,1.091-2.631-1.272-3.447a1.265,1.265,0,0,1,.292-1.332L38.8,42.3a1.264,1.264,0,0,1,1.332-.292l3.448,1.272,2.63-1.091,1.541-3.338a1.265,1.265,0,0,1,1.148-.735h4.853a1.265,1.265,0,0,1,1.148.735l1.541,3.338,2.63,1.091,3.447-1.272a1.265,1.265,0,0,1,1.332.293l3.428,3.433a1.265,1.265,0,0,1,.292,1.33l-1.268,3.448L67.4,53.145l3.333,1.54a1.265,1.265,0,0,1,.734,1.148v4.853a1.265,1.265,0,0,1-.734,1.148L67.4,63.375l-1.091,2.631,1.268,3.443Zm-1.686-8.163,3.048-1.408V56.642l-3.048-1.408a1.265,1.265,0,0,1-.638-.664l-1.47-3.545a1.264,1.264,0,0,1-.019-.921l1.16-3.154-2.285-2.288-3.152,1.163a1.264,1.264,0,0,1-.922-.018l-3.545-1.47a1.265,1.265,0,0,1-.664-.638l-1.409-3.052H49.71L48.3,43.7a1.265,1.265,0,0,1-.664.638l-3.545,1.47a1.266,1.266,0,0,1-.922.018l-3.153-1.163L37.73,46.951,38.893,50.1a1.265,1.265,0,0,1-.018.922l-1.47,3.545a1.265,1.265,0,0,1-.638.664l-3.048,1.408v3.236l3.048,1.408a1.265,1.265,0,0,1,.638.664l1.47,3.545a1.264,1.264,0,0,1,.018.922l-1.163,3.148,2.288,2.288,3.153-1.159a1.265,1.265,0,0,1,.92.018l3.545,1.465a1.264,1.264,0,0,1,.665.639l1.409,3.052h3.235l1.409-3.052a1.265,1.265,0,0,1,.665-.639l3.545-1.465a1.264,1.264,0,0,1,.92-.018l3.153,1.159,2.285-2.288-1.159-3.149a1.265,1.265,0,0,1,.019-.921l1.47-3.545a1.265,1.265,0,0,1,.638-.664ZM42.545,33.508V18.474a1.265,1.265,0,0,1,1.265-1.265H58.844a1.265,1.265,0,0,1,1.265,1.265V33.508a1.265,1.265,0,0,1-1.265,1.265H43.81a1.265,1.265,0,0,1-1.265-1.265Zm2.529-1.265H57.58V19.738H45.075Zm44.584,50.84a1.265,1.265,0,0,1-1.1.632H69.976a1.265,1.265,0,0,1-1.1-1.9l9.294-16.1a1.265,1.265,0,0,1,2.191,0l9.294,16.1a1.265,1.265,0,0,1,0,1.265Zm-3.286-1.9-7.1-12.306-7.1,12.306H86.373ZM31.645,74.394a9.322,9.322,0,1,1-9.322-9.326A9.332,9.332,0,0,1,31.645,74.394Zm-2.529,0a6.793,6.793,0,1,0-6.793,6.793A6.8,6.8,0,0,0,29.115,74.394Z" transform="translate(-13.001 -17.209)"/><path d="M387.272,356.385h14.207l-7.1-12.306Z" transform="translate(-328.107 -292.407)" fill="#6cf5c2"/><path d="M35.792,349.55A6.795,6.795,0,1,0,29,342.757,6.8,6.8,0,0,0,35.792,349.55Z" transform="translate(-26.471 -285.571)" fill="#8ac9fe"/><path d="M149.236,174.935a1.265,1.265,0,0,1-.018.922l-1.47,3.545a1.265,1.265,0,0,1-.638.664l-3.048,1.408v3.236l3.048,1.408a1.265,1.265,0,0,1,.638.664l1.47,3.545a1.264,1.264,0,0,1,.018.922l-1.163,3.148,2.288,2.288,3.153-1.159a1.265,1.265,0,0,1,.92.018l3.545,1.465a1.264,1.264,0,0,1,.665.639l1.409,3.052h3.235l1.409-3.052a1.265,1.265,0,0,1,.665-.639l3.545-1.465a1.264,1.264,0,0,1,.92-.018l3.153,1.159,2.285-2.288-1.159-3.149a1.265,1.265,0,0,1,.019-.921l1.47-3.545a1.265,1.265,0,0,1,.638-.664l3.048-1.408v-3.236l-3.048-1.408a1.265,1.265,0,0,1-.638-.664l-1.47-3.545a1.264,1.264,0,0,1-.019-.921l1.16-3.154-2.285-2.288-3.152,1.163a1.264,1.264,0,0,1-.922-.018l-3.545-1.47a1.265,1.265,0,0,1-.664-.638l-1.409-3.052h-3.235l-1.408,3.052a1.265,1.265,0,0,1-.664.638l-3.545,1.47a1.266,1.266,0,0,1-.922.018l-3.153-1.163-2.288,2.288,1.163,3.153Zm12.432-.908a9.062,9.062,0,1,1-9.062,9.062,9.074,9.074,0,0,1,9.062-9.062Z" transform="translate(-123.344 -142.04)" fill="#ffc338"/><path d="M215.895,33.209H228.4V45.714H215.895Z" transform="translate(-183.821 -30.68)" fill="#fe646f"/></g></g></svg>