<svg xmlns="http://www.w3.org/2000/svg" width="152" height="152" viewBox="0 0 152 152"><g transform="translate(-200.051 -4677)"><g transform="translate(207.224 4684)"><circle cx="76" cy="76" r="76" transform="translate(-7.173 -7)" fill="#57dbd8" opacity="0.45"/><circle cx="62" cy="62" r="62" transform="translate(6.827 7)" fill="#fff"/></g><g transform="translate(232 4709.811)"><g transform="translate(1.186 4.181)"><path d="M230.438,276.163H184.95a2.123,2.123,0,0,1-2.123-2.123V235.413a2.123,2.123,0,0,1,2.123-2.123h45.489a2.123,2.123,0,0,1,2.123,2.123v38.628A2.122,2.122,0,0,1,230.438,276.163Z" transform="translate(-156.228 -200.592)" fill="#e9a52d"/><path d="M458.752,233.291H454.01a2.123,2.123,0,0,1,2.123,2.123v38.628a2.122,2.122,0,0,1-2.123,2.123h4.742a2.123,2.123,0,0,0,2.123-2.123V235.413a2.123,2.123,0,0,0-2.123-2.122Z" transform="translate(-384.542 -200.593)" fill="#e38523"/><path d="M313.266,233.291v9.182a.665.665,0,0,0,1.061.533l2.789-2.073a.665.665,0,0,1,.793,0l2.789,2.073a.665.665,0,0,0,1.061-.533v-9.182Z" transform="translate(-266.047 -200.593)" fill="#f7f3f1"/><path d="M298.095,357.452H280.814a.875.875,0,0,1-.875-.875V340.724a.875.875,0,0,1,.875-.875h17.281a.875.875,0,0,1,.875.875v15.853A.875.875,0,0,1,298.095,357.452Z" transform="translate(-237.989 -290.306)" fill="#f7f3f1"/><path d="M34.536,110.413l-19.863,34.4a.79.79,0,0,0,.289,1.08l6.8,3.926a.79.79,0,0,0,1.08-.289l19.863-34.4Z" transform="translate(-14.567 -97.14)" fill="#a87c72"/><path d="M60.091,128.151l-19.863,34.4a.788.788,0,0,1-1.076.291l3.309,1.911a.79.79,0,0,0,1.08-.289l19.863-34.4Z" transform="translate(-35.266 -112.074)" fill="#9a695e"/><path d="M267.564,113.751l5.061-8.765a2.278,2.278,0,0,0-.834-3.111l-4.162-2.4a.636.636,0,0,0-.869.233l-6.7,11.608a.636.636,0,0,0,.233.869l4.162,2.4A2.277,2.277,0,0,0,267.564,113.751Z" transform="translate(-221.178 -87.856)" fill="#5392f9"/><path d="M279.373,105.729l-3.056-1.765a2.138,2.138,0,0,1,.562,2.954l-5.061,8.765a2.138,2.138,0,0,1-2.84.99l3.056,1.765a2.277,2.277,0,0,0,3.111-.834l5.061-8.765A2.277,2.277,0,0,0,279.373,105.729Z" transform="translate(-228.76 -91.711)" fill="#4071f7"/><path d="M70.671,36.554l.664-1.15a1.229,1.229,0,0,0-.45-1.678L61.971,28.58a15.918,15.918,0,0,0-16.26.2l-9.472,5.789a2.158,2.158,0,0,0-.85,2.709l.414.942a2.158,2.158,0,0,0,2.787,1.131l5.626-2.284a4.029,4.029,0,0,1,3.529.244l15.8,9.123a1.229,1.229,0,0,0,1.678-.45l.663-1.148a1.229,1.229,0,0,1,1.678-.45l4.83,2.789,3.555-6.157-4.83-2.789a1.229,1.229,0,0,1-.45-1.679Z" transform="translate(-31.944 -26.447)" fill="#91dafa"/></g><g transform="translate(0)"><path d="M226.247,259.366a1.185,1.185,0,0,0,1.186-1.186V229.1a3.312,3.312,0,0,0-3.308-3.308H178.635a3.312,3.312,0,0,0-3.308,3.308v38.628a3.312,3.312,0,0,0,3.308,3.308h45.489a3.312,3.312,0,0,0,3.308-3.308v-4.014a1.186,1.186,0,0,0-2.371,0v4.014a.938.938,0,0,1-.937.937H178.635a.938.938,0,0,1-.937-.937V229.1a.938.938,0,0,1,.937-.937h17.312v8a1.85,1.85,0,0,0,2.954,1.485l2.479-1.842,2.478,1.842a1.85,1.85,0,0,0,2.954-1.485v-8h17.312a.938.938,0,0,1,.937.937V258.18A1.186,1.186,0,0,0,226.247,259.366Zm-21.806-24.243-1.958-1.455a1.84,1.84,0,0,0-2.208,0l-1.957,1.455v-6.96h6.122v6.96Z" transform="translate(-148.728 -190.098)"/><path d="M305.436,375.411h8.973a1.186,1.186,0,0,0,0-2.371h-8.973a1.186,1.186,0,1,0,0,2.371Z" transform="translate(-257.27 -314.069)"/><path d="M305.436,405.381h8.973a1.186,1.186,0,1,0,0-2.371h-8.973a1.186,1.186,0,0,0,0,2.371Z" transform="translate(-257.27 -339.302)"/><path d="M274.5,332.35a2.063,2.063,0,0,0-2.061,2.061v15.853a2.063,2.063,0,0,0,2.061,2.06h17.281a2.063,2.063,0,0,0,2.06-2.06V334.411a2.063,2.063,0,0,0-2.06-2.061Zm16.97,17.6H274.811V334.721h16.659Z" transform="translate(-230.489 -279.812)"/><path d="M39.259,41.14a2.414,2.414,0,0,0,3.3-.884l.663-1.148a.044.044,0,0,1,.059-.016l3.8,2.2-.981,1.7a1.821,1.821,0,0,0,.667,2.489l4.162,2.4a3.465,3.465,0,0,0,4.731-1.267l5.061-8.765a3.467,3.467,0,0,0-1.268-4.731l-4.162-2.4a1.822,1.822,0,0,0-2.489.667l-.981,1.7-3.8-2.2A.043.043,0,0,1,48,30.824l.664-1.149a2.414,2.414,0,0,0-.884-3.3l-8.914-5.147a17.094,17.094,0,0,0-17.471.218l-9.471,5.789a3.355,3.355,0,0,0-1.317,4.2l.414.942a3.327,3.327,0,0,0,4.318,1.753l5.626-2.284a2.826,2.826,0,0,1,2.491.172L26.6,33.831,22.863,40.3a1.186,1.186,0,1,0,2.053,1.186l3.736-6.47,6.116,3.531L15.7,71.582,9.58,68.051,22.143,46.291A1.186,1.186,0,0,0,20.09,45.1L7.329,67.208a1.976,1.976,0,0,0,.723,2.7l6.8,3.926a1.973,1.973,0,0,0,2.7-.723l19.27-33.377Zm15.323-8.1,3.686,2.128a1.092,1.092,0,0,1,.4,1.492l-5.061,8.765a1.093,1.093,0,0,1-1.492.4L48.43,43.7ZM20.076,29.648,14.45,31.932a.967.967,0,0,1-1.256-.51l-.414-.942a.976.976,0,0,1,.383-1.221l9.472-5.789a14.723,14.723,0,0,1,15.049-.188L46.6,28.43a.043.043,0,0,1,.016.059l-.664,1.149a2.414,2.414,0,0,0,.884,3.3l3.8,2.2-2.369,4.1-3.8-2.2a2.417,2.417,0,0,0-3.3.884L40.5,39.071a.043.043,0,0,1-.059.016l-15.8-9.123a5.182,5.182,0,0,0-4.568-.316Z" transform="translate(-7.063 -15.943)"/><path d="M388.061,134.983a1.185,1.185,0,0,0,1.186,1.186h8.763a1.186,1.186,0,1,0,0-2.371h-8.763A1.185,1.185,0,0,0,388.061,134.983Z" transform="translate(-327.832 -112.646)"/><path d="M367.131,47.41l6.2-6.2a1.186,1.186,0,1,0-1.677-1.677l-6.2,6.2a1.186,1.186,0,0,0,1.677,1.677Z" transform="translate(-308.507 -32.995)"/><path d="M310.88,11.134a1.185,1.185,0,0,0,1.186-1.186V1.186a1.186,1.186,0,1,0-2.371,0V9.948A1.186,1.186,0,0,0,310.88,11.134Z" transform="translate(-261.854)"/></g></g></g></svg>