<svg xmlns="http://www.w3.org/2000/svg" width="152" height="152" viewBox="0 0 152 152"><g transform="translate(-827.051 -4677)"><g transform="translate(834.224 4684)"><circle cx="76" cy="76" r="76" transform="translate(-7.173 -7)" fill="#91b3fa" opacity="0.45"/><circle cx="62" cy="62" r="62" transform="translate(6.827 7)" fill="#fff"/></g><g transform="translate(869.572 4712.948)"><path d="M151.449,51.684l-.007,0A35.466,35.466,0,0,1,131.8,19.938V12.408L141.618,7.5h19.645l9.822,4.911v7.539A35.466,35.466,0,0,1,151.449,51.684Z" transform="translate(-115.864 -6.312)" fill="#f27a55"/><path d="M136.538,19.937V12.407L146.361,7.5h-4.743L131.8,12.407v7.529A35.466,35.466,0,0,0,151.443,51.68l.007,0q1.216-.606,2.37-1.3a35.467,35.467,0,0,1-17.281-30.449Z" transform="translate(-115.864 -6.311)" fill="#ea5e42"/><path d="M208.264,60.959h-7.4v-7.4H193.56v7.4h-7.4v7.306h7.4v7.4h7.306v-7.4h7.4Z" transform="translate(-161.637 -45.095)" fill="#f1f6f7"/><path d="M184.332,317.12l-19.988,15.623a7.859,7.859,0,0,1-4.845,1.67H131.864V318.56a19.493,19.493,0,0,1,4.731-2.362,24.668,24.668,0,0,1,8.1-1.3,14.729,14.729,0,0,1,5.309.991l3.768,1.456h7.456a3.156,3.156,0,0,1,3.157,3.156,7.424,7.424,0,0,1-.1.78.006.006,0,0,0,0,0,1.252,1.252,0,0,1-.035.142h0l5.992-3.459,10.935-6.315a3.154,3.154,0,0,1,3.777.471c.021.019.038.038.055.055a3.132,3.132,0,0,1,.479.631,3.345,3.345,0,0,1-1.154,4.312Z" transform="translate(-115.922 -262.029)" fill="#ffcebf"/><path d="M341.505,312.178,323.2,322.8a6.387,6.387,0,0,1-3.2.862h-2.247a25.737,25.737,0,0,1,3-2.232h0l16.927-9.774a3.154,3.154,0,0,1,3.777.471C341.47,312.142,341.488,312.161,341.505,312.178Z" transform="translate(-272.419 -262.029)" fill="#ffb09e"/><path d="M100.657,333.624h4.933V358.18h-4.933Z" transform="translate(-89.648 -280.884)" fill="#f1f6f7"/><path d="M100.657,333.624h2.372V358.18h-2.372Z" transform="translate(-89.648 -280.884)" fill="#d2e4e7"/><path d="M38.52,318.09h9.822v29.467H38.52Z" transform="translate(-37.334 -267.806)" fill="#7398d4"/><path d="M38.52,318.09h3.162v29.467H38.52Z" transform="translate(-37.334 -267.806)" fill="#4377c4"/><path d="M146.7,338.578a14.736,14.736,0,0,0-2-.137,22.3,22.3,0,0,0-12.828,3.663v15.852h4.743V343.951a3.294,3.294,0,0,1,1.738-2.905A22.424,22.424,0,0,1,146.7,338.578Z" transform="translate(-115.923 -284.94)" fill="#ffb09e"/><path d="M63.65,359.563a1.186,1.186,0,1,1,1.186-1.186A1.186,1.186,0,0,1,63.65,359.563Z" transform="translate(-57.492 -300.726)"/><g transform="translate(0 0)"><path d="M101.607,306.025a4.424,4.424,0,0,0-5.932-1.592l-15.16,8.754a4.351,4.351,0,0,0-4.2-3.219H69.084c-6.865-2.915-14.173-3.324-20.941.294v-1.685a1.186,1.186,0,0,0-1.186-1.186H43.21v-1.271a1.186,1.186,0,0,0-1.186-1.186H32.2a1.186,1.186,0,0,0-1.186,1.186v12.151a1.186,1.186,0,1,0,2.372,0V307.307h7.452v27.1H33.387V323.438a1.186,1.186,0,0,0-2.372,0v12.151a1.186,1.186,0,0,0,1.186,1.186h9.823a1.186,1.186,0,0,0,1.186-1.186v-1.27h3.747a1.186,1.186,0,0,0,1.186-1.186v-3.726h11.3a1.186,1.186,0,0,0,0-2.372h-11.3v-14.03a21.113,21.113,0,0,1,14.125-2.884c2.148.368,5.563,2.219,6.595,2.219H76.32a1.973,1.973,0,0,1,1.971,1.928c-.085,1.008-.325,2.013-1.948,2.013H62.024a1.186,1.186,0,0,0,0,2.372H76.342a4.317,4.317,0,0,0,3.988-2.621l16.53-9.545a1.971,1.971,0,0,1,2.693.725,2.221,2.221,0,0,1-.858,2.783L78.707,325.618a6.7,6.7,0,0,1-4.113,1.418H64.609a1.186,1.186,0,0,0,0,2.372h9.985a9.084,9.084,0,0,0,5.575-1.921L100.1,311.91A4.53,4.53,0,0,0,101.607,306.025Zm-58.4,25.923V309.763h2.562v22.184H43.21Z" transform="translate(-31.015 -255.837)"/><path d="M144.6,46.433a1.186,1.186,0,0,0,1.06,0,36.436,36.436,0,0,0,16.083-15.746,1.186,1.186,0,0,0-2.1-1.1,34.071,34.071,0,0,1-14.513,14.458,34.083,34.083,0,0,1-18.468-30.416V6.83l8.917-4.458h19.084l8.917,4.458v6.806a34.142,34.142,0,0,1-1.93,11.339,1.186,1.186,0,1,0,2.238.786,36.5,36.5,0,0,0,2.064-12.125V6.1a1.186,1.186,0,0,0-.656-1.061L155.476.125a1.185,1.185,0,0,0-.53-.125H135.3a1.185,1.185,0,0,0-.53.125l-9.823,4.911a1.186,1.186,0,0,0-.656,1.061v7.529A37.009,37.009,0,0,0,144.6,46.433Z" transform="translate(-109.547 0)"/><path d="M187.245,70.533h7.306a1.186,1.186,0,0,0,1.186-1.186V63.136h6.212a1.186,1.186,0,0,0,1.186-1.186V54.644a1.186,1.186,0,0,0-1.186-1.186h-6.212V47.247a1.186,1.186,0,0,0-1.186-1.186h-7.306a1.186,1.186,0,0,0-1.186,1.186v6.211h-6.212a1.186,1.186,0,0,0-1.186,1.186V61.95a1.186,1.186,0,0,0,1.186,1.186h6.212v6.211a1.186,1.186,0,0,0,1.186,1.186Zm-6.212-9.769V55.83h6.212a1.186,1.186,0,0,0,1.186-1.186V48.433h4.934v6.211a1.186,1.186,0,0,0,1.186,1.186h6.212v4.934h-6.212a1.186,1.186,0,0,0-1.186,1.186v6.211h-4.934V61.95a1.186,1.186,0,0,0-1.186-1.186h-6.212Z" transform="translate(-155.322 -38.78)"/></g></g></g></svg>