<svg xmlns="http://www.w3.org/2000/svg" width="152" height="152" viewBox="0 0 152 152"><g transform="translate(-402.051 -4677)"><g transform="translate(409.224 4684)"><circle cx="76" cy="76" r="76" transform="translate(-7.173 -7)" fill="#91b3fa" opacity="0.45"/><circle cx="62" cy="62" r="62" transform="translate(6.827 7)" fill="#fff"/></g><g transform="translate(443.568 4709.811)"><path d="M32.063,448.375h70.959v5.068H32.063Zm0,0" transform="translate(-27.073 -377.495)" fill="#d3cecf"/><path d="M80.156,191.932V143.781h5.068v48.151Zm0,0" transform="translate(-67.564 -121.052)" fill="#998e8f"/><path d="M80.156,434.878v-2.534h5.068v2.534Zm0,0" transform="translate(-67.564 -363.998)" fill="#8b7e7f"/><path d="M35.892,21.454A13.938,13.938,0,1,1,21.954,7.516,13.938,13.938,0,0,1,35.892,21.454Zm0,0" transform="translate(-6.827 -6.327)" fill="#ff8660"/><path d="M52.337,41.7A10.137,10.137,0,1,1,42.2,31.563,10.137,10.137,0,0,1,52.337,41.7Zm0,0" transform="translate(-27.074 -26.573)" fill="#f0efef"/><path d="M44.734,58.974a10.135,10.135,0,0,1-8.321-15.924A10.136,10.136,0,1,0,50.521,57.158,10.085,10.085,0,0,1,44.734,58.974Zm0,0" transform="translate(-27.073 -36.245)" fill="#d3cecf"/><path d="M176.344,207.906h40.548V245.92H176.344Zm0,0" transform="translate(-148.546 -175.04)" fill="#ffde7c"/><path d="M176.344,207.906h6.336V245.92h-6.336Zm0,0" transform="translate(-148.546 -175.04)" fill="#ffc824"/><path d="M288.15,218.043l-3.8-1.267-3.8,1.267V207.906h7.6Zm0,0" transform="translate(-236.277 -175.04)" fill="#ffbd85"/><path d="M208.406,312.109h15.205v5.068H208.406Zm0,0" transform="translate(-175.54 -262.77)" fill="#f0efef"/><path d="M76.449,69.691H70.034V32.866a1.188,1.188,0,0,0-1.188-1.188H28.3a1.188,1.188,0,0,0-1.188,1.188V69.691H19.349v-39.9a15.126,15.126,0,1,0-7.445,0v5.664a1.188,1.188,0,0,0,2.376,0V30.191c.443.04.892.061,1.346.061s.9-.022,1.346-.061v39.5H14.281V40.944a1.188,1.188,0,0,0-2.376,0V69.691H5.49A1.188,1.188,0,0,0,4.3,70.879v5.068A1.188,1.188,0,0,0,5.49,77.136h8.949v2.613a1.188,1.188,0,0,0,2.376,0V77.136H65.124v2.613a1.188,1.188,0,1,0,2.376,0V77.136h8.949a1.188,1.188,0,0,0,1.188-1.188V70.879a1.188,1.188,0,0,0-1.188-1.188ZM2.877,15.126a12.75,12.75,0,1,1,12.75,12.75,12.764,12.764,0,0,1-12.75-12.75ZM51.185,34.054v7.3l-2.238-.746a1.192,1.192,0,0,0-.751,0l-2.238.746v-7.3Zm-21.7,0h14.1V43a1.2,1.2,0,0,0,1.564,1.127l3.426-1.142L52,44.129A1.2,1.2,0,0,0,53.561,43V34.054h14.1V69.691H56.1V63.611l1.773,1.773a1.188,1.188,0,0,0,1.68-1.68l-3.8-3.8a1.2,1.2,0,0,0-1.68,0l-3.8,3.8a1.188,1.188,0,0,0,1.68,1.68l1.773-1.773v6.081h-10.3V63.611L45.2,65.384a1.188,1.188,0,0,0,1.68-1.68l-3.8-3.8a1.2,1.2,0,0,0-1.68,0l-3.8,3.8a1.188,1.188,0,1,0,1.68,1.68l1.773-1.773v6.081H29.486ZM75.261,74.759H6.678V72.067H75.261Zm0,0" transform="translate(-0.5 0)"/><path d="M35.872,24.047A11.325,11.325,0,1,0,47.2,35.372,11.338,11.338,0,0,0,35.872,24.047Zm0,20.274a8.949,8.949,0,1,1,8.949-8.949A8.959,8.959,0,0,1,35.872,44.321Zm0,0" transform="translate(-20.746 -20.245)"/><path d="M76.363,44.988H78.9a1.188,1.188,0,0,0,0-2.376H77.551V41.266a1.188,1.188,0,1,0-2.376,0v1.542a3.722,3.722,0,0,0,1.188,7.249,1.346,1.346,0,0,1,0,2.692H73.829a1.188,1.188,0,0,0,0,2.376h1.346v1.346a1.188,1.188,0,1,0,2.376,0V54.93a3.722,3.722,0,0,0-1.188-7.249,1.346,1.346,0,0,1,0-2.692Zm0,0" transform="translate(-61.237 -33.742)"/><path d="M218.472,310.85v-5.068a1.188,1.188,0,0,0-1.188-1.188H202.078a1.188,1.188,0,0,0-1.188,1.188v5.068a1.188,1.188,0,0,0,1.188,1.188h15.205A1.188,1.188,0,0,0,218.472,310.85Zm-2.376-1.188H203.266V306.97H216.1Zm0,0" transform="translate(-169.212 -256.443)"/></g></g></svg>