<svg height="152" viewBox="0 0 152 152" width="152" xmlns="http://www.w3.org/2000/svg"><circle cx="76" cy="76" fill="#91b3fa" opacity=".45" r="76"/><circle cx="76" cy="76" fill="#fff" r="62"/><path d="m32.063 448.375h70.959v5.068h-70.959zm0 0" fill="#d3cecf" transform="translate(14.444 -344.684)"/><path d="m80.156 191.932v-48.151h5.068v48.151zm0 0" fill="#998e8f" transform="translate(-26.047 -88.241)"/><path d="m80.156 434.878v-2.534h5.068v2.534zm0 0" fill="#8b7e7f" transform="translate(-26.047 -331.187)"/><path d="m35.892 21.454a13.938 13.938 0 1 1 -13.938-13.938 13.938 13.938 0 0 1 13.938 13.938zm0 0" fill="#ff8660" transform="translate(34.69 26.484)"/><path d="m52.337 41.7a10.137 10.137 0 1 1 -10.137-10.137 10.137 10.137 0 0 1 10.137 10.137zm0 0" fill="#f0efef" transform="translate(14.443 6.238)"/><path d="m44.734 58.974a10.135 10.135 0 0 1 -8.321-15.924 10.136 10.136 0 1 0 14.108 14.108 10.085 10.085 0 0 1 -5.787 1.816zm0 0" fill="#d3cecf" transform="translate(14.444 -3.434)"/><path d="m176.344 207.906h40.548v38.014h-40.548zm0 0" fill="#ffde7c" transform="translate(-107.029 -142.229)"/><path d="m176.344 207.906h6.336v38.014h-6.336zm0 0" fill="#ffc824" transform="translate(-107.029 -142.229)"/><path d="m288.15 218.043-3.8-1.267-3.8 1.267v-10.137h7.6zm0 0" fill="#ffbd85" transform="translate(-194.76 -142.229)"/><path d="m208.406 312.109h15.205v5.068h-15.205zm0 0" fill="#f0efef" transform="translate(-134.023 -229.959)"/><path d="m76.449 69.691h-6.415v-36.825a1.188 1.188 0 0 0 -1.188-1.188h-40.546a1.188 1.188 0 0 0 -1.188 1.188v36.825h-7.763v-39.9a15.126 15.126 0 1 0 -7.445 0v5.664a1.188 1.188 0 0 0 2.376 0v-5.264c.443.04.892.061 1.346.061s.9-.022 1.346-.061v39.5h-2.691v-28.747a1.188 1.188 0 0 0 -2.376 0v28.747h-6.415a1.188 1.188 0 0 0 -1.19 1.188v5.068a1.188 1.188 0 0 0 1.19 1.189h8.949v2.613a1.188 1.188 0 0 0 2.376 0v-2.613h48.309v2.613a1.188 1.188 0 1 0 2.376 0v-2.613h8.949a1.188 1.188 0 0 0 1.188-1.188v-5.069a1.188 1.188 0 0 0 -1.188-1.188zm-73.572-54.565a12.75 12.75 0 1 1 12.75 12.75 12.764 12.764 0 0 1 -12.75-12.75zm48.308 18.928v7.3l-2.238-.746a1.192 1.192 0 0 0 -.751 0l-2.238.746v-7.3zm-21.7 0h14.1v8.946a1.2 1.2 0 0 0 1.564 1.127l3.426-1.142 3.425 1.144a1.2 1.2 0 0 0 1.561-1.129v-8.946h14.1v35.637h-11.561v-6.08l1.773 1.773a1.188 1.188 0 0 0 1.68-1.68l-3.8-3.8a1.2 1.2 0 0 0 -1.68 0l-3.8 3.8a1.188 1.188 0 0 0 1.68 1.68l1.773-1.773v6.081h-10.3v-6.081l1.774 1.773a1.188 1.188 0 0 0 1.68-1.68l-3.8-3.8a1.2 1.2 0 0 0 -1.68 0l-3.8 3.8a1.188 1.188 0 1 0 1.68 1.68l1.773-1.773v6.081h-11.567zm45.776 40.705h-68.583v-2.692h68.583zm0 0" transform="translate(41.017 32.811)"/><path d="m35.872 24.047a11.325 11.325 0 1 0 11.328 11.325 11.338 11.338 0 0 0 -11.328-11.325zm0 20.274a8.949 8.949 0 1 1 8.949-8.949 8.959 8.959 0 0 1 -8.949 8.949zm0 0" transform="translate(20.771 12.566)"/><path d="m76.363 44.988h2.537a1.188 1.188 0 0 0 0-2.376h-1.349v-1.346a1.188 1.188 0 1 0 -2.376 0v1.542a3.722 3.722 0 0 0 1.188 7.249 1.346 1.346 0 0 1 0 2.692h-2.534a1.188 1.188 0 0 0 0 2.376h1.346v1.346a1.188 1.188 0 1 0 2.376 0v-1.541a3.722 3.722 0 0 0 -1.188-7.249 1.346 1.346 0 0 1 0-2.692zm0 0" transform="translate(-19.72 -.931)"/><path d="m218.472 310.85v-5.068a1.188 1.188 0 0 0 -1.188-1.188h-15.206a1.188 1.188 0 0 0 -1.188 1.188v5.068a1.188 1.188 0 0 0 1.188 1.188h15.205a1.188 1.188 0 0 0 1.189-1.188zm-2.376-1.188h-12.83v-2.692h12.834zm0 0" transform="translate(-127.695 -223.632)"/></svg>