<svg height="152" viewBox="0 0 152 152" width="152" xmlns="http://www.w3.org/2000/svg"><circle cx="76" cy="76" fill="#57dbd8" opacity=".45" r="76"/><circle cx="76" cy="76" fill="#fff" r="62"/><path d="m230.438 276.163h-45.488a2.123 2.123 0 0 1 -2.123-2.123v-38.627a2.123 2.123 0 0 1 2.123-2.123h45.489a2.123 2.123 0 0 1 2.123 2.123v38.628a2.122 2.122 0 0 1 -2.124 2.122z" fill="#e9a52d" transform="translate(-123.093 -163.6)"/><path d="m458.752 233.291h-4.742a2.123 2.123 0 0 1 2.123 2.123v38.628a2.122 2.122 0 0 1 -2.123 2.123h4.742a2.123 2.123 0 0 0 2.123-2.123v-38.629a2.123 2.123 0 0 0 -2.123-2.122z" fill="#e38523" transform="translate(-351.407 -163.601)"/><path d="m313.266 233.291v9.182a.665.665 0 0 0 1.061.533l2.789-2.073a.665.665 0 0 1 .793 0l2.789 2.073a.665.665 0 0 0 1.061-.533v-9.182z" fill="#f7f3f1" transform="translate(-232.912 -163.601)"/><path d="m298.095 357.452h-17.281a.875.875 0 0 1 -.875-.875v-15.853a.875.875 0 0 1 .875-.875h17.281a.875.875 0 0 1 .875.875v15.853a.875.875 0 0 1 -.875.875z" fill="#f7f3f1" transform="translate(-204.854 -253.314)"/><path d="m34.536 110.413-19.863 34.4a.79.79 0 0 0 .289 1.08l6.8 3.926a.79.79 0 0 0 1.08-.289l19.863-34.4z" fill="#a87c72" transform="translate(18.568 -60.148)"/><path d="m60.091 128.151-19.863 34.4a.788.788 0 0 1 -1.076.291l3.309 1.911a.79.79 0 0 0 1.08-.289l19.863-34.4z" fill="#9a695e" transform="translate(-2.131 -75.082)"/><path d="m267.564 113.751 5.061-8.765a2.278 2.278 0 0 0 -.834-3.111l-4.162-2.4a.636.636 0 0 0 -.869.233l-6.7 11.608a.636.636 0 0 0 .233.869l4.162 2.4a2.277 2.277 0 0 0 3.109-.834z" fill="#5392f9" transform="translate(-188.043 -50.864)"/><path d="m279.373 105.729-3.056-1.765a2.138 2.138 0 0 1 .562 2.954l-5.061 8.765a2.138 2.138 0 0 1 -2.84.99l3.056 1.765a2.277 2.277 0 0 0 3.111-.834l5.061-8.765a2.277 2.277 0 0 0 -.833-3.11z" fill="#4071f7" transform="translate(-195.625 -54.719)"/><path d="m70.671 36.554.664-1.15a1.229 1.229 0 0 0 -.45-1.678l-8.914-5.146a15.918 15.918 0 0 0 -16.26.2l-9.472 5.789a2.158 2.158 0 0 0 -.85 2.709l.414.942a2.158 2.158 0 0 0 2.787 1.131l5.626-2.284a4.029 4.029 0 0 1 3.529.244l15.8 9.123a1.229 1.229 0 0 0 1.678-.45l.663-1.148a1.229 1.229 0 0 1 1.678-.45l4.83 2.789 3.555-6.157-4.83-2.789a1.229 1.229 0 0 1 -.45-1.679z" fill="#91dafa" transform="translate(1.191 10.545)"/><path d="m226.247 259.366a1.185 1.185 0 0 0 1.186-1.186v-29.08a3.312 3.312 0 0 0 -3.308-3.308h-45.49a3.312 3.312 0 0 0 -3.308 3.308v38.628a3.312 3.312 0 0 0 3.308 3.308h45.489a3.312 3.312 0 0 0 3.308-3.308v-4.014a1.186 1.186 0 0 0 -2.371 0v4.014a.938.938 0 0 1 -.937.937h-45.489a.938.938 0 0 1 -.937-.937v-38.628a.938.938 0 0 1 .937-.937h17.312v8a1.85 1.85 0 0 0 2.954 1.485l2.479-1.842 2.478 1.842a1.85 1.85 0 0 0 2.954-1.485v-8h17.312a.938.938 0 0 1 .937.937v29.08a1.186 1.186 0 0 0 1.186 1.186zm-21.806-24.243-1.958-1.455a1.84 1.84 0 0 0 -2.208 0l-1.957 1.455v-6.96h6.122v6.96z" transform="translate(-116.779 -157.287)"/><path d="m305.436 375.411h8.973a1.186 1.186 0 0 0 0-2.371h-8.973a1.186 1.186 0 1 0 0 2.371z" transform="translate(-225.321 -281.258)"/><path d="m305.436 405.381h8.973a1.186 1.186 0 1 0 0-2.371h-8.973a1.186 1.186 0 0 0 0 2.371z" transform="translate(-225.321 -306.491)"/><path d="m274.5 332.35a2.063 2.063 0 0 0 -2.061 2.061v15.853a2.063 2.063 0 0 0 2.061 2.06h17.281a2.063 2.063 0 0 0 2.06-2.06v-15.853a2.063 2.063 0 0 0 -2.06-2.061zm16.97 17.6h-16.659v-15.229h16.659z" transform="translate(-198.54 -247.001)"/><path d="m39.259 41.14a2.414 2.414 0 0 0 3.3-.884l.663-1.148a.044.044 0 0 1 .059-.016l3.8 2.2-.981 1.7a1.821 1.821 0 0 0 .667 2.489l4.162 2.4a3.465 3.465 0 0 0 4.731-1.267l5.061-8.765a3.467 3.467 0 0 0 -1.268-4.731l-4.162-2.4a1.822 1.822 0 0 0 -2.489.667l-.981 1.7-3.8-2.2a.043.043 0 0 1 -.021-.061l.664-1.149a2.414 2.414 0 0 0 -.884-3.3l-8.914-5.147a17.094 17.094 0 0 0 -17.471.218l-9.471 5.789a3.355 3.355 0 0 0 -1.317 4.2l.414.942a3.327 3.327 0 0 0 4.318 1.753l5.626-2.284a2.826 2.826 0 0 1 2.491.172l3.144 1.813-3.737 6.469a1.186 1.186 0 1 0 2.053 1.186l3.736-6.47 6.116 3.531-19.068 33.035-6.12-3.531 12.563-21.76a1.186 1.186 0 0 0 -2.053-1.191l-12.761 22.108a1.976 1.976 0 0 0 .723 2.7l6.8 3.926a1.973 1.973 0 0 0 2.7-.723l19.27-33.377zm15.323-8.1 3.686 2.128a1.092 1.092 0 0 1 .4 1.492l-5.061 8.765a1.093 1.093 0 0 1 -1.492.4l-3.685-2.125zm-34.506-3.392-5.626 2.284a.967.967 0 0 1 -1.256-.51l-.414-.942a.976.976 0 0 1 .383-1.221l9.472-5.789a14.723 14.723 0 0 1 15.049-.188l8.916 5.148a.043.043 0 0 1 .016.059l-.664 1.149a2.414 2.414 0 0 0 .884 3.3l3.8 2.2-2.369 4.1-3.8-2.2a2.417 2.417 0 0 0 -3.3.884l-.667 1.149a.043.043 0 0 1 -.059.016l-15.8-9.123a5.182 5.182 0 0 0 -4.568-.316z" transform="translate(24.886 16.868)"/><path d="m388.061 134.983a1.185 1.185 0 0 0 1.186 1.186h8.763a1.186 1.186 0 1 0 0-2.371h-8.763a1.185 1.185 0 0 0 -1.186 1.185z" transform="translate(-295.883 -79.835)"/><path d="m367.131 47.41 6.2-6.2a1.186 1.186 0 1 0 -1.677-1.677l-6.2 6.2a1.186 1.186 0 0 0 1.677 1.677z" transform="translate(-276.558 -.184)"/><path d="m310.88 11.134a1.185 1.185 0 0 0 1.186-1.186v-8.762a1.186 1.186 0 1 0 -2.371 0v8.762a1.186 1.186 0 0 0 1.185 1.186z" transform="translate(-229.905 32.811)"/></svg>