<svg height="152" viewBox="0 0 152 152" width="152" xmlns="http://www.w3.org/2000/svg"><circle cx="76" cy="76" fill="#91b3fa" opacity=".45" r="76"/><circle cx="76" cy="76" fill="#fff" r="62"/><path d="m17.012 61.3c-.089-1.013-.135-2.036-.135-3.042a34.458 34.458 0 0 1 18.573-30.58l-1.084-.413a1.265 1.265 0 1 1 .9-2.363l3.881 1.479a1.264 1.264 0 0 1 .731 1.633l-1.483 3.881a1.265 1.265 0 0 1 -2.363-.9l.366-.957a31.818 31.818 0 0 0 -16.992 28.22c0 .932.042 1.88.125 2.819a1.265 1.265 0 0 1 -1.148 1.371c-.038 0-.076 0-.113 0a1.265 1.265 0 0 1 -1.258-1.148zm48.088 25.761a31.974 31.974 0 0 1 -30.558-1.648l1.185-.255a1.265 1.265 0 1 0 -.532-2.473l-4.06.874a1.265 1.265 0 0 0 -.97 1.5l.874 4.06a1.265 1.265 0 1 0 2.473-.532l-.209-.968a34.5 34.5 0 0 0 32.89 1.721 1.265 1.265 0 1 0 -1.093-2.279zm-1.012-58.067a31.927 31.927 0 0 1 19.156 29.264q0 1.107-.075 2.2l-.715-.884a1.265 1.265 0 1 0 -1.967 1.59l2.613 3.236a1.265 1.265 0 0 0 1.778.189l3.231-2.608a1.265 1.265 0 0 0 -1.589-1.968l-.831.671q.083-1.206.085-2.425a34.456 34.456 0 0 0 -20.674-31.583 1.265 1.265 0 1 0 -1.012 2.318zm-3.7 29.264a9.064 9.064 0 1 1 -9.063-9.058 9.075 9.075 0 0 1 9.066 9.058zm-2.529 0a6.535 6.535 0 1 0 -6.537 6.533 6.542 6.542 0 0 0 6.54-6.533zm9.714 11.192a1.265 1.265 0 0 1 -.292 1.331l-3.428 3.433a1.264 1.264 0 0 1 -1.331.293l-3.449-1.268-2.631 1.088-1.542 3.335a1.265 1.265 0 0 1 -1.148.735h-4.852a1.265 1.265 0 0 1 -1.148-.735l-1.54-3.337-2.631-1.088-3.449 1.268a1.264 1.264 0 0 1 -1.331-.293l-3.431-3.431a1.265 1.265 0 0 1 -.292-1.332l1.271-3.443-1.091-2.631-3.334-1.54a1.265 1.265 0 0 1 -.734-1.148v-4.854a1.265 1.265 0 0 1 .734-1.148l3.334-1.54 1.091-2.631-1.272-3.447a1.265 1.265 0 0 1 .292-1.332l3.431-3.435a1.264 1.264 0 0 1 1.332-.292l3.448 1.272 2.63-1.091 1.541-3.338a1.265 1.265 0 0 1 1.148-.735h4.853a1.265 1.265 0 0 1 1.148.735l1.541 3.338 2.63 1.091 3.447-1.272a1.265 1.265 0 0 1 1.332.293l3.428 3.433a1.265 1.265 0 0 1 .292 1.33l-1.268 3.448 1.098 2.633 3.333 1.54a1.265 1.265 0 0 1 .734 1.148v4.853a1.265 1.265 0 0 1 -.734 1.148l-3.333 1.541-1.091 2.631 1.268 3.443zm-1.686-8.163 3.048-1.408v-3.237l-3.048-1.408a1.265 1.265 0 0 1 -.638-.664l-1.47-3.545a1.264 1.264 0 0 1 -.019-.921l1.16-3.154-2.285-2.288-3.152 1.163a1.264 1.264 0 0 1 -.922-.018l-3.545-1.47a1.265 1.265 0 0 1 -.664-.638l-1.409-3.052h-3.233l-1.41 3.053a1.265 1.265 0 0 1 -.664.638l-3.545 1.47a1.266 1.266 0 0 1 -.922.018l-3.153-1.163-2.286 2.288 1.163 3.149a1.265 1.265 0 0 1 -.018.922l-1.47 3.545a1.265 1.265 0 0 1 -.638.664l-3.048 1.408v3.236l3.048 1.408a1.265 1.265 0 0 1 .638.664l1.47 3.545a1.264 1.264 0 0 1 .018.922l-1.163 3.148 2.288 2.288 3.153-1.159a1.265 1.265 0 0 1 .92.018l3.545 1.465a1.264 1.264 0 0 1 .665.639l1.409 3.052h3.235l1.409-3.052a1.265 1.265 0 0 1 .665-.639l3.545-1.465a1.264 1.264 0 0 1 .92-.018l3.153 1.159 2.285-2.288-1.159-3.149a1.265 1.265 0 0 1 .019-.921l1.47-3.545a1.265 1.265 0 0 1 .638-.664zm-23.342-27.779v-15.034a1.265 1.265 0 0 1 1.265-1.265h15.034a1.265 1.265 0 0 1 1.265 1.265v15.034a1.265 1.265 0 0 1 -1.265 1.265h-15.034a1.265 1.265 0 0 1 -1.265-1.265zm2.529-1.265h12.506v-12.505h-12.505zm44.584 50.84a1.265 1.265 0 0 1 -1.1.632h-18.582a1.265 1.265 0 0 1 -1.1-1.9l9.294-16.1a1.265 1.265 0 0 1 2.191 0l9.294 16.1a1.265 1.265 0 0 1 0 1.265zm-3.286-1.9-7.1-12.306-7.1 12.306h14.201zm-54.727-6.789a9.322 9.322 0 1 1 -9.322-9.326 9.332 9.332 0 0 1 9.322 9.326zm-2.529 0a6.793 6.793 0 1 0 -6.793 6.793 6.8 6.8 0 0 0 6.792-6.793z" transform="translate(26.034 21.043)"/><path d="m387.272 356.385h14.207l-7.1-12.306z" fill="#6cf5c2" transform="translate(-289.072 -254.155)"/><path d="m35.792 349.55a6.795 6.795 0 1 0 -6.792-6.793 6.8 6.8 0 0 0 6.792 6.793z" fill="#8ac9fe" transform="translate(12.564 -247.319)"/><path d="m149.236 174.935a1.265 1.265 0 0 1 -.018.922l-1.47 3.545a1.265 1.265 0 0 1 -.638.664l-3.048 1.408v3.236l3.048 1.408a1.265 1.265 0 0 1 .638.664l1.47 3.545a1.264 1.264 0 0 1 .018.922l-1.163 3.148 2.288 2.288 3.153-1.159a1.265 1.265 0 0 1 .92.018l3.545 1.465a1.264 1.264 0 0 1 .665.639l1.409 3.052h3.235l1.409-3.052a1.265 1.265 0 0 1 .665-.639l3.545-1.465a1.264 1.264 0 0 1 .92-.018l3.153 1.159 2.285-2.288-1.159-3.149a1.265 1.265 0 0 1 .019-.921l1.47-3.545a1.265 1.265 0 0 1 .638-.664l3.048-1.408v-3.236l-3.048-1.408a1.265 1.265 0 0 1 -.638-.664l-1.47-3.545a1.264 1.264 0 0 1 -.019-.921l1.16-3.154-2.285-2.288-3.152 1.163a1.264 1.264 0 0 1 -.922-.018l-3.545-1.47a1.265 1.265 0 0 1 -.664-.638l-1.409-3.052h-3.235l-1.408 3.052a1.265 1.265 0 0 1 -.664.638l-3.545 1.47a1.266 1.266 0 0 1 -.922.018l-3.153-1.163-2.288 2.288 1.163 3.153zm12.432-.908a9.062 9.062 0 1 1 -9.062 9.062 9.074 9.074 0 0 1 9.062-9.062z" fill="#ffc338" transform="translate(-84.309 -103.788)"/><path d="m215.895 33.209h12.505v12.505h-12.505z" fill="#fe646f" transform="translate(-144.786 7.572)"/></svg>