<svg xmlns="http://www.w3.org/2000/svg" width="84.778" height="80.528" viewBox="0 0 84.778 80.528"><path d="M376.694,0h-24.12a1.242,1.242,0,0,0-1.242,1.242v24.12a1.242,1.242,0,0,0,1.242,1.242h24.12a1.242,1.242,0,0,0,1.242-1.242V1.242A1.242,1.242,0,0,0,376.694,0Zm-1.242,24.12H353.816V2.484h12.06V12.06h-2.484V6.209a1.242,1.242,0,1,0-2.484,0V13.3a1.242,1.242,0,0,0,1.242,1.242h4.967a1.241,1.241,0,0,0,1.242-1.242V2.484h7.093Zm0,0" transform="translate(-293.158)" fill="#283f65"/><path d="M176.91,26.6h24.12a1.242,1.242,0,0,0,1.242-1.242V1.242A1.242,1.242,0,0,0,201.03,0H176.91a1.241,1.241,0,0,0-1.242,1.242v24.12A1.242,1.242,0,0,0,176.91,26.6Zm10.818-24.12h2.484V12.06h-2.484Zm-9.576,0h7.092V13.3a1.242,1.242,0,0,0,1.242,1.242h4.967A1.242,1.242,0,0,0,192.7,13.3V2.484h7.092V24.12H178.152Zm0,0" transform="translate(-146.581)" fill="#283f65"/><path d="M1.242,26.6h24.12A1.242,1.242,0,0,0,26.6,25.362V1.242A1.242,1.242,0,0,0,25.362,0H1.242A1.242,1.242,0,0,0,0,1.242v24.12A1.242,1.242,0,0,0,1.242,26.6ZM12.06,2.484h2.484V12.06H12.06Zm-9.576,0H9.576V13.3a1.242,1.242,0,0,0,1.242,1.242h4.967A1.241,1.241,0,0,0,17.027,13.3V2.484h7.092V24.12H2.484Zm0,0" fill="#283f65"/><path d="M376.694,175.668h-24.12a1.242,1.242,0,0,0-1.242,1.242v24.12a1.242,1.242,0,0,0,1.242,1.242h24.12a1.242,1.242,0,0,0,1.242-1.242V176.91A1.242,1.242,0,0,0,376.694,175.668Zm-13.3,2.484h2.484v9.576h-2.484Zm12.06,21.636H353.816V178.152h7.092v10.818a1.242,1.242,0,0,0,1.242,1.242h4.967a1.241,1.241,0,0,0,1.242-1.242V178.152h7.093Zm0,0" transform="translate(-293.158 -146.581)" fill="#283f65"/><path d="M176.91,202.272h24.12a1.242,1.242,0,0,0,1.242-1.242V176.91a1.242,1.242,0,0,0-1.242-1.242H176.91a1.241,1.241,0,0,0-1.242,1.242v24.12A1.242,1.242,0,0,0,176.91,202.272Zm10.818-24.12h2.484v9.576h-2.484Zm-9.576,0h7.092v10.818a1.242,1.242,0,0,0,1.242,1.242h4.967a1.242,1.242,0,0,0,1.242-1.242V178.152h7.092v21.636H178.152Zm0,0" transform="translate(-146.581 -146.581)" fill="#283f65"/><path d="M1.242,202.272h24.12A1.242,1.242,0,0,0,26.6,201.03V176.91a1.242,1.242,0,0,0-1.242-1.242H1.242A1.242,1.242,0,0,0,0,176.91v24.12A1.242,1.242,0,0,0,1.242,202.272Zm1.242-24.12h12.06v9.576H12.06v-5.85a1.242,1.242,0,0,0-2.484,0v7.092a1.242,1.242,0,0,0,1.242,1.242h4.967a1.241,1.241,0,0,0,1.242-1.242V178.152h7.092v21.636H2.484Zm0,0" transform="translate(0 -146.581)" fill="#283f65"/><path d="M83.536,351.336H1.242A1.242,1.242,0,0,0,0,352.578v19.87a1.242,1.242,0,0,0,1.242,1.242H83.536a1.242,1.242,0,0,0,1.242-1.242v-19.87A1.242,1.242,0,0,0,83.536,351.336ZM48.6,366.238v-7.451H72.359v7.451Zm-9.935,0v-7.451h7.451v7.451Zm-26.245,0v-7.451H36.179v7.451Zm-9.935,0v-7.451H9.935v7.451Zm72.359-7.451h7.451v7.451H74.843Zm7.451-4.967V356.3H2.484V353.82ZM2.484,371.206v-2.484h79.81v2.484Zm0,0" transform="translate(0 -293.161)" fill="#283f65"/></svg>