<svg xmlns="http://www.w3.org/2000/svg" width="90.669" height="90.667" viewBox="0 0 90.669 90.667"><g transform="translate(0 -0.005)"><g transform="translate(0 0.005)"><g transform="translate(0 0)"><path d="M89.536,36.419H87.7V28.735A14.355,14.355,0,0,0,84.5,19.6l-.085-.1c-3.332-3.983-3.756-10.107-3.8-12.2h.32a1.133,1.133,0,0,0,1.133-1.133v-3.5A2.667,2.667,0,0,0,79.4.005H71.326a2.666,2.666,0,0,0-2.663,2.663v3.5A1.133,1.133,0,0,0,69.8,7.305h.577c-.116,2.134-.736,8.227-4.061,12.2l-.086.1a14.347,14.347,0,0,0-3.2,9.126V36.42H58.11V28.736a14.355,14.355,0,0,0-3.205-9.13l-.085-.1c-3.332-3.983-3.756-10.107-3.8-12.2h.32a1.133,1.133,0,0,0,1.133-1.133V2.67A2.667,2.667,0,0,0,49.808.006H41.733A2.666,2.666,0,0,0,39.07,2.67v3.5A1.133,1.133,0,0,0,40.2,7.306h.577c-.116,2.134-.736,8.227-4.061,12.2l-.086.1a14.347,14.347,0,0,0-3.2,9.126v7.684H28.517V28.737a14.355,14.355,0,0,0-3.205-9.13l-.085-.1c-3.333-3.982-3.755-10.107-3.8-12.2h.319a1.133,1.133,0,0,0,1.133-1.133v-3.5A2.667,2.667,0,0,0,20.215.007H12.144A2.666,2.666,0,0,0,9.481,2.671v3.5a1.133,1.133,0,0,0,1.133,1.133h.578c-.116,2.134-.736,8.227-4.061,12.2l-.085.1a14.353,14.353,0,0,0-3.2,9.126v7.684H1.133A1.133,1.133,0,0,0,0,37.556V89.539a1.133,1.133,0,0,0,1.133,1.133h88.4a1.133,1.133,0,0,0,1.133-1.133V37.552A1.133,1.133,0,0,0,89.536,36.419ZM71.327,2.271H79.4a.4.4,0,0,1,.4.4v2.37H70.932V2.667h0A.4.4,0,0,1,71.327,2.271ZM72.646,7.3h5.7c.034,2.268.474,8.756,4.1,13.346l-5.558,5.71a2.488,2.488,0,0,1-1.8.741,2.425,2.425,0,0,1-1.773-.813l-5.039-5.613C71.93,16.07,72.547,9.534,72.646,7.3ZM65.292,28.735a12.285,12.285,0,0,1,1.633-6.16L71.62,27.8a4.737,4.737,0,0,0,3.415,1.565h.093a4.732,4.732,0,0,0,3.381-1.427l5.267-5.411a12.275,12.275,0,0,1,1.662,6.2v7.684H65.292V28.735ZM41.339,2.667a.4.4,0,0,1,.4-.4h8.075a.4.4,0,0,1,.4.4v2.37H41.339V2.667ZM43.054,7.3h5.7c.034,2.268.474,8.756,4.1,13.346l-5.557,5.71a2.449,2.449,0,0,1-3.578-.071l-5.04-5.614C42.338,16.07,42.954,9.534,43.054,7.3ZM35.7,28.735a12.285,12.285,0,0,1,1.633-6.16L42.029,27.8a4.739,4.739,0,0,0,3.415,1.565h.094a4.733,4.733,0,0,0,3.381-1.427l5.265-5.411a12.269,12.269,0,0,1,1.662,6.2v7.684H35.7ZM11.747,2.667a.4.4,0,0,1,.4-.4h8.075a.4.4,0,0,1,.4.4v2.37H11.747ZM13.463,7.3h5.7c.034,2.268.473,8.756,4.1,13.346L17.7,26.36A2.459,2.459,0,0,1,15.9,27.1a2.425,2.425,0,0,1-1.773-.813L9.085,20.676C12.747,16.072,13.364,9.535,13.463,7.3ZM6.11,28.735a12.28,12.28,0,0,1,1.634-6.159L12.438,27.8a4.739,4.739,0,0,0,3.415,1.565h.094a4.733,4.733,0,0,0,3.381-1.427l5.266-5.411a12.269,12.269,0,0,1,1.662,6.2v7.684H6.11ZM88.4,88.405H2.267V38.686H88.4Z" transform="translate(0 -0.005)" fill="#283f65"/></g></g><g transform="translate(28.264 46.472)"><path d="M156.078,209.92H133.429a5.746,5.746,0,1,0,0,11.492h22.649a5.746,5.746,0,1,0,0-11.492Zm0,9.225H133.429a3.479,3.479,0,0,1,0-6.959h22.649a3.479,3.479,0,1,1,0,6.959Z" transform="translate(-127.683 -209.92)" fill="#283f65"/></g></g></svg>