<svg xmlns="http://www.w3.org/2000/svg" width="99.051" height="99.051" viewBox="0 0 99.051 99.051"><g transform="translate(-802.013 -1425.469)"><g transform="translate(802.013 1425.469)"><circle cx="49.525" cy="49.525" r="49.525" fill="#57dbd8" opacity="0.45"/><circle cx="40.402" cy="40.402" r="40.402" transform="translate(9.123 9.123)" fill="#fff"/></g><g transform="translate(825.634 1450.385)"><path d="M120,120h34.849v34.849H120Z" transform="translate(-109.11 -109.109)" fill="#e0c3aa"/><path d="M120,480h34.849v2.178H120Z" transform="translate(-109.11 -436.438)" fill="#d0a37f"/><path d="M112.726,124.342a.726.726,0,0,1-.726-.726v-10.89a.726.726,0,0,1,.726-.726h21.781a.726.726,0,1,1,0,1.452H113.452v10.164A.726.726,0,0,1,112.726,124.342Z" transform="translate(-101.836 -101.835)"/><path d="M147.575,148.3H112.726a.726.726,0,0,1-.726-.726V127.246a.726.726,0,0,1,1.452,0v19.6h33.4v-33.4h-9.438a.726.726,0,0,1,0-1.452h10.164a.726.726,0,0,1,.726.726v34.849A.726.726,0,0,1,147.575,148.3Z" transform="translate(-101.836 -101.835)"/><path d="M264,120h8.712v8.712H264Z" transform="translate(-240.041 -109.109)" fill="#f6edc8"/><path d="M264,192h8.712v2.178H264Z" transform="translate(-240.041 -174.575)" fill="#f4dcb5"/><path d="M265.438,122.164h-8.712a.726.726,0,0,1-.726-.726v-8.712a.726.726,0,0,1,.726-.726h8.712a.726.726,0,0,1,.726.726v8.712A.726.726,0,0,1,265.438,122.164Zm-7.986-1.452h7.26v-7.26h-7.26Z" transform="translate(-232.767 -101.835)"/><path d="M168,392h10.164v5.808H168Z" transform="translate(-152.754 -356.424)" fill="#f6f6f6"/><path d="M168,432h10.164v2.178H168Z" transform="translate(-152.754 -392.794)" fill="#dcdcdc"/><path d="M170.89,391.26H160.726a.726.726,0,0,1-.726-.726v-5.808a.726.726,0,0,1,.726-.726H170.89a.726.726,0,0,1,.726.726v5.808A.726.726,0,0,1,170.89,391.26Zm-9.438-1.452h8.712v-4.356h-8.712Z" transform="translate(-145.48 -349.15)"/><path d="M379.63,335.26a3.63,3.63,0,0,1-3.63-3.63V328h7.26v3.63A3.63,3.63,0,0,1,379.63,335.26Z" transform="translate(-341.877 -298.233)" fill="#f6f6f6"/><path d="M379.63,347.63A3.63,3.63,0,0,1,376,344v2.178a3.63,3.63,0,1,0,7.26,0V344A3.63,3.63,0,0,1,379.63,347.63Z" transform="translate(-341.877 -312.781)" fill="#dcdcdc"/><path d="M372.356,328.712A4.361,4.361,0,0,1,368,324.356v-3.63a.726.726,0,0,1,.726-.726h7.26a.726.726,0,0,1,.726.726v3.63A4.361,4.361,0,0,1,372.356,328.712Zm-2.9-7.26v2.9a2.9,2.9,0,1,0,5.808,0v-2.9Z" transform="translate(-334.603 -290.959)"/><path d="M402.176,325.08a.726.726,0,0,1-.514-.212l-1.452-1.452a.726.726,0,0,1-.175-.743l.726-2.178a.726.726,0,1,1,1.378.459l-.584,1.752,1.135,1.134a.726.726,0,0,1-.514,1.24Z" transform="translate(-363.697 -290.956)"/><path d="M408.726,405.808a.726.726,0,0,1-.726-.726v-4.356a.726.726,0,0,1,1.452,0v4.356A.726.726,0,0,1,408.726,405.808Z" transform="translate(-370.973 -363.698)"/><path d="M389.082,449.452h-4.356a.726.726,0,0,1,0-1.452h4.356a.726.726,0,1,1,0,1.452Z" transform="translate(-349.151 -407.342)"/><path d="M197.082,417.452h-4.356a.726.726,0,0,1,0-1.452h4.356a.726.726,0,0,1,0,1.452Z" transform="translate(-174.575 -378.246)"/><path d="M26.877,11.624v4.408a14.724,14.724,0,0,1-9.439,13.743A14.724,14.724,0,0,1,8,16.032V11.624l1.2-.15a16.464,16.464,0,0,0,8.243-3.48,16.413,16.413,0,0,0,8.243,3.48Z" transform="translate(-7.274 -7.268)" fill="#b1da7a"/><path d="M17.438,86.313A14.724,14.724,0,0,1,8,72.57v2.178a14.724,14.724,0,0,0,9.439,13.743,14.724,14.724,0,0,0,9.438-13.743V72.57a14.724,14.724,0,0,1-9.439,13.743Z" transform="translate(-7.274 -65.984)" fill="#96bf5b"/><path d="M9.9,23.18A15.443,15.443,0,0,1,0,8.759V4.352a.726.726,0,0,1,.635-.721l1.2-.149A15.737,15.737,0,0,0,9.711.154a.726.726,0,0,1,.908,0A15.737,15.737,0,0,0,18.5,3.482l1.2.149a.726.726,0,0,1,.635.721V8.759a15.444,15.444,0,0,1-9.9,14.421A.726.726,0,0,1,9.9,23.18ZM1.452,4.992V8.759a13.993,13.993,0,0,0,8.712,12.962A13.992,13.992,0,0,0,18.877,8.759V4.992l-.559-.07a17.18,17.18,0,0,1-8.153-3.283A17.179,17.179,0,0,1,2.011,4.922Z" transform="translate(0 0.005)"/><path d="M74.386,93.592l-2.178-2.178a.726.726,0,0,1,1.027-1.027L74.9,92.052l3.842-3.843a.726.726,0,0,1,1.027,1.027l-4.356,4.356a.726.726,0,0,1-1.027,0Z" transform="translate(-65.462 -80.009)"/></g></g></svg>