<svg xmlns="http://www.w3.org/2000/svg" xmlns:xlink="http://www.w3.org/1999/xlink" width="820" height="439" viewBox="0 0 820 439"><defs><clipPath id="a"><rect width="400" height="402.543" fill="none"/></clipPath><clipPath id="b"><rect width="400" height="402.543" fill="#a9b2c1"/></clipPath><clipPath id="c"><rect width="261.153" height="261.152" transform="translate(74.451 86.363)" fill="none"/></clipPath><clipPath id="d"><path d="M205.029,86.363h0A130.576,130.576,0,1,0,335.6,217.418v-.96A130.579,130.579,0,0,0,205.031,86.363h0" fill="none"/></clipPath><radialGradient id="e" cx="0.5" cy="1.727" r="0.5" gradientTransform="matrix(1, 0, 0, -1, 0, 2.421)" gradientUnits="objectBoundingBox"><stop offset="0" stop-color="#040405"/><stop offset="1" stop-color="#fff"/></radialGradient><clipPath id="f"><rect width="229.36" height="229.362" transform="translate(86.868 85.514)" fill="none"/></clipPath><clipPath id="g"><path d="M86.868,200.194a114.68,114.68,0,0,0,229.359.449v-.9a114.68,114.68,0,0,0-229.359.448" fill="none"/></clipPath><radialGradient id="h" cy="2.354" r="0.5" gradientTransform="matrix(1, 0, 0, -1, 0, 2.764)" xlink:href="#e"/><clipPath id="i"><rect width="400" height="400" fill="none"/></clipPath><clipPath id="j"><rect width="261.152" height="261.152" fill="none"/></clipPath><clipPath id="k"><path d="M293.1,167.635A130.576,130.576,0,1,1,162.523,37.059,130.576,130.576,0,0,1,293.1,167.635" transform="translate(-31.947 -37.059)" fill="none"/></clipPath><radialGradient id="l" cx="0.5" cy="0.5" r="0.5" gradientTransform="matrix(1, 0, 0, -1, 0, 2.227)" gradientUnits="objectBoundingBox"><stop offset="0"/><stop offset="1" stop-color="#fff"/></radialGradient><clipPath id="m"><rect width="229.359" height="229.361" fill="none"/></clipPath><clipPath id="n"><path d="M279.495,164.234a114.68,114.68,0,1,1-114.68-114.68,114.681,114.681,0,0,1,114.68,114.68" transform="translate(-50.135 -49.554)" fill="none"/></clipPath><radialGradient id="o" r="0.5" gradientTransform="matrix(1, 0, 0, -1, 0, 2.854)" xlink:href="#l"/></defs><g transform="translate(-390.025 -3277)"><rect width="820" height="439" rx="20" transform="translate(390.025 3277)" fill="#f6f6f6" opacity="0.56"/><g transform="translate(20.025 4)"><g transform="translate(579.975 3299.702)"><g clip-path="url(#a)"><g clip-path="url(#b)"><path d="M200,0V200H0v-.184C.1,89.432,89.616,0,200,0" fill="#91b3fa"/><path d="M200,200V400C89.547,399.991.009,310.453,0,200Z" fill="#57dbd8"/><path d="M400,200c.009,110.448-89.518,199.991-199.966,200H200V200Z" fill="#efbf6d"/><path d="M400,200H200V0C310.452.012,399.988,89.548,400,200" fill="#d4d9e0"/><g style="mix-blend-mode:multiply;isolation:isolate"><g clip-path="url(#c)"><g clip-path="url(#d)"><rect width="261.151" height="261.152" transform="translate(74.452 86.363)" fill="url(#e)"/></g></g></g><path d="M329.812,200A129.806,129.806,0,1,1,200.005,70.19,129.806,129.806,0,0,1,329.812,200" fill="#fff"/><g style="mix-blend-mode:multiply;isolation:isolate"><g clip-path="url(#f)"><g clip-path="url(#g)"><rect width="229.359" height="229.36" transform="translate(86.868 85.514)" fill="url(#h)"/></g></g></g><path d="M303.683,200.192A103.027,103.027,0,1,1,200.654,97.167h0A103.028,103.028,0,0,1,303.683,200.192" fill="#fff"/></g><text transform="translate(41.992 164.519) rotate(-74.002)" fill="#161615" font-size="15.37" font-family="Roboto-Bold, Roboto" font-weight="700"><tspan x="0" y="0">C</tspan></text><text transform="translate(44.744 154.992) rotate(-70.967)" fill="#161615" font-size="15.37" font-family="Roboto-Bold, Roboto" font-weight="700"><tspan x="0" y="0">a</tspan></text><text transform="matrix(0.364, -0.931, 0.931, 0.364, 47.424, 147.304)" fill="#161615" font-size="15.371" font-family="Roboto-Bold, Roboto" font-weight="700"><tspan x="0" y="0">r</tspan></text><text transform="translate(49.308 142.389) rotate(-66.407)" fill="#161615" font-size="15.371" font-family="Roboto-Bold, Roboto" font-weight="700"><tspan x="0" y="0">a</tspan></text><text transform="translate(52.558 134.946) rotate(-63.667)" fill="#161615" font-size="15.371" font-family="Roboto-Bold, Roboto" font-weight="700"><tspan x="0" y="0">c</tspan></text><text transform="translate(56.086 127.876) rotate(-61.44)" fill="#161615" font-size="15.37" font-family="Roboto-Bold, Roboto" font-weight="700"><tspan x="0" y="0">t</tspan></text><text transform="matrix(0.513, -0.859, 0.859, 0.513, 58.494, 123.384)" fill="#161615" font-size="15.37" font-family="Roboto-Bold, Roboto" font-weight="700"><tspan x="0" y="0">e</tspan></text><text transform="matrix(0.547, -0.837, 0.837, 0.547, 62.718, 116.36)" fill="#161615" font-size="15.37" font-family="Roboto-Bold, Roboto" font-weight="700"><tspan x="0" y="0">r</tspan></text><text transform="matrix(0.572, -0.821, 0.821, 0.572, 65.768, 111.715)" fill="#161615" font-size="15.37" font-family="Roboto-Bold, Roboto" font-weight="700"><tspan x="0" y="0">í</tspan></text><text transform="matrix(0.601, -0.8, 0.8, 0.601, 68.095, 108.314)" fill="#161615" font-size="15.371" font-family="Roboto-Bold, Roboto" font-weight="700"><tspan x="0" y="0">s</tspan></text><text transform="translate(72.785 102.106) rotate(-50.891)" fill="#161615" font-size="15.37" font-family="Roboto-Bold, Roboto" font-weight="700"><tspan x="0" y="0">t</tspan></text><text transform="translate(76.021 98.139) rotate(-49.331)" fill="#161615" font-size="15.37" font-family="Roboto-Bold, Roboto" font-weight="700"><tspan x="0" y="0">i</tspan></text><text transform="matrix(0.678, -0.735, 0.735, 0.678, 78.61, 95.072)" fill="#161615" font-size="15.37" font-family="Roboto-Bold, Roboto" font-weight="700"><tspan x="0" y="0">c</tspan></text><text transform="translate(83.955 89.271) rotate(-44.558)" fill="#161615" font-size="15.37" font-family="Roboto-Bold, Roboto" font-weight="700"><tspan x="0" y="0">a</tspan></text><text transform="translate(89.741 83.574) rotate(-41.852)" fill="#161615" font-size="15.371" font-family="Roboto-Bold, Roboto" font-weight="700"><tspan x="0" y="0">s</tspan></text><text transform="translate(95.568 78.401) rotate(-39.897)" fill="#161615" font-size="15.37" font-family="Roboto-Bold, Roboto" font-weight="700"><tspan x="0" y="0"> </tspan></text><text transform="translate(98.411 75.964) rotate(-37.806)" fill="#161615" font-size="15.37" font-family="Roboto-Bold, Roboto" font-weight="700"><tspan x="0" y="0">d</tspan></text><text transform="translate(105.16 70.73) rotate(-34.972)" fill="#161615" font-size="15.37" font-family="Roboto-Bold, Roboto" font-weight="700"><tspan x="0" y="0">e</tspan></text><text transform="translate(111.902 66.058) rotate(-32.911)" fill="#161615" font-size="15.37" font-family="Roboto-Bold, Roboto" font-weight="700"><tspan x="0" y="0">l</tspan></text><text transform="translate(115.29 63.868) rotate(-31.587)" fill="#161615" font-size="15.37" font-family="Roboto-Bold, Roboto" font-weight="700"><tspan x="0" y="0"> </tspan></text><text transform="translate(118.447 61.871) rotate(-29.505)" fill="#161615" font-size="15.37" font-family="Roboto-Bold, Roboto" font-weight="700"><tspan x="0" y="0">p</tspan></text><text transform="matrix(0.89, -0.456, 0.456, 0.89, 125.88, 57.698)" fill="#161615" font-size="15.37" font-family="Roboto-Bold, Roboto" font-weight="700"><tspan x="0" y="0">r</tspan></text><text transform="translate(130.528 55.274) rotate(-24.837)" fill="#161615" font-size="15.371" font-family="Roboto-Bold, Roboto" font-weight="700"><tspan x="0" y="0">o</tspan></text><text transform="matrix(0.928, -0.374, 0.374, 0.928, 138.307, 51.669)" fill="#161615" font-size="15.371" font-family="Roboto-Bold, Roboto" font-weight="700"><tspan x="0" y="0">d</tspan></text><text transform="translate(146.212 48.484) rotate(-19.049)" fill="#161615" font-size="15.371" font-family="Roboto-Bold, Roboto" font-weight="700"><tspan x="0" y="0">u</tspan></text><text transform="translate(154.233 45.719) rotate(-16.26)" fill="#161615" font-size="15.37" font-family="Roboto-Bold, Roboto" font-weight="700"><tspan x="0" y="0">c</tspan></text><text transform="matrix(0.97, -0.243, 0.243, 0.97, 161.843, 43.526)" fill="#161615" font-size="15.371" font-family="Roboto-Bold, Roboto" font-weight="700"><tspan x="0" y="0">t</tspan></text><text transform="translate(166.529 42.311) rotate(-11.788)" fill="#161615" font-size="15.37" font-family="Roboto-Bold, Roboto" font-weight="700"><tspan x="0" y="0">o</tspan></text><text transform="matrix(0.951, 0.308, -0.308, 0.951, 247.372, 47.983)" fill="#161615" font-size="15.37" font-family="Roboto-Bold, Roboto" font-weight="700"><tspan x="0" y="0">I</tspan></text><text transform="matrix(0.935, 0.354, -0.354, 0.935, 251.559, 49.207)" fill="#161615" font-size="15.371" font-family="Roboto-Bold, Roboto" font-weight="700"><tspan x="0" y="0">m</tspan></text><text transform="translate(263.846 53.924) rotate(24.376)" fill="#161615" font-size="15.37" font-family="Roboto-Bold, Roboto" font-weight="700"><tspan x="0" y="0">p</tspan></text><text transform="translate(271.608 57.444) rotate(27.213)" fill="#161615" font-size="15.37" font-family="Roboto-Bold, Roboto" font-weight="700"><tspan x="0" y="0">a</tspan></text><text transform="translate(278.815 61.148) rotate(29.949)" fill="#161615" font-size="15.37" font-family="Roboto-Bold, Roboto" font-weight="700"><tspan x="0" y="0">c</tspan></text><text transform="translate(285.664 65.126) rotate(32.183)" fill="#161615" font-size="15.371" font-family="Roboto-Bold, Roboto" font-weight="700"><tspan x="0" y="0">t</tspan></text><text transform="matrix(0.825, 0.566, -0.566, 0.825, 289.798, 67.68)" fill="#161615" font-size="15.371" font-family="Roboto-Bold, Roboto" font-weight="700"><tspan x="0" y="0">o</tspan></text><text transform="translate(296.883 72.591) rotate(36.577)" fill="#161615" font-size="15.37" font-family="Roboto-Bold, Roboto" font-weight="700"><tspan x="0" y="0"> </tspan></text><text transform="matrix(0.772, 0.636, -0.636, 0.772, 299.907, 74.683)" fill="#161615" font-size="15.37" font-family="Roboto-Bold, Roboto" font-weight="700"><tspan x="0" y="0">m</tspan></text><text transform="matrix(0.73, 0.683, -0.683, 0.73, 310.027, 83.112)" fill="#161615" font-size="15.37" font-family="Roboto-Bold, Roboto" font-weight="700"><tspan x="0" y="0">e</tspan></text><text transform="translate(315.991 88.684) rotate(45.965)" fill="#161615" font-size="15.371" font-family="Roboto-Bold, Roboto" font-weight="700"><tspan x="0" y="0">d</tspan></text><text transform="translate(321.922 94.879) rotate(48.107)" fill="#161615" font-size="15.37" font-family="Roboto-Bold, Roboto" font-weight="700"><tspan x="0" y="0">i</tspan></text><text transform="matrix(0.64, 0.769, -0.769, 0.64, 324.603, 97.8)" fill="#161615" font-size="15.37" font-family="Roboto-Bold, Roboto" font-weight="700"><tspan x="0" y="0">o</tspan></text><text transform="translate(330.086 104.395) rotate(53.08)" fill="#161615" font-size="15.371" font-family="Roboto-Bold, Roboto" font-weight="700"><tspan x="0" y="0">a</tspan></text><text transform="translate(335.008 110.805) rotate(56.679)" fill="#161615" font-size="15.371" font-family="Roboto-Bold, Roboto" font-weight="700"><tspan x="0" y="0">m</tspan></text><text transform="translate(342.171 121.827) rotate(60.343)" fill="#161615" font-size="15.37" font-family="Roboto-Bold, Roboto" font-weight="700"><tspan x="0" y="0">b</tspan></text><text transform="translate(346.373 129.289) rotate(62.467)" fill="#161615" font-size="15.371" font-family="Roboto-Bold, Roboto" font-weight="700"><tspan x="0" y="0">i</tspan></text><text transform="translate(348.244 132.791) rotate(64.527)" fill="#161615" font-size="15.37" font-family="Roboto-Bold, Roboto" font-weight="700"><tspan x="0" y="0">e</tspan></text><text transform="translate(351.768 140.171) rotate(67.348)" fill="#161615" font-size="15.371" font-family="Roboto-Bold, Roboto" font-weight="700"><tspan x="0" y="0">n</tspan></text><text transform="translate(355.009 148.022) rotate(69.649)" fill="#161615" font-size="15.37" font-family="Roboto-Bold, Roboto" font-weight="700"><tspan x="0" y="0">t</tspan></text><text transform="matrix(0.311, 0.951, -0.951, 0.311, 356.817, 152.804)" fill="#161615" font-size="15.37" font-family="Roboto-Bold, Roboto" font-weight="700"><tspan x="0" y="0">a</tspan></text><text transform="matrix(0.276, 0.961, -0.961, 0.276, 359.311, 160.554)" fill="#161615" font-size="15.371" font-family="Roboto-Bold, Roboto" font-weight="700"><tspan x="0" y="0">l</tspan></text><text transform="matrix(-0.271, 0.963, -0.963, -0.271, 361.196, 238.197)" fill="#161615" font-size="13" font-family="Roboto-Bold, Roboto" font-weight="700"><tspan x="0" y="0">P</tspan></text><text transform="matrix(-0.307, 0.952, -0.952, -0.307, 358.919, 246.169)" fill="#161615" font-size="13" font-family="Roboto-Bold, Roboto" font-weight="700"><tspan x="0" y="0">r</tspan></text><text transform="translate(357.578 250.41) rotate(109.827)" fill="#161615" font-size="13" font-family="Roboto-Bold, Roboto" font-weight="700"><tspan x="0" y="0">o</tspan></text><text transform="translate(355.114 257.238) rotate(112.199)" fill="#161615" font-size="13" font-family="Roboto-Bold, Roboto" font-weight="700"><tspan x="0" y="0">c</tspan></text><text transform="translate(352.586 263.445) rotate(114.529)" fill="#161615" font-size="13" font-family="Roboto-Bold, Roboto" font-weight="700"><tspan x="0" y="0">e</tspan></text><text transform="translate(349.712 269.74) rotate(116.839)" fill="#161615" font-size="13" font-family="Roboto-Bold, Roboto" font-weight="700"><tspan x="0" y="0">s</tspan></text><text transform="matrix(-0.488, 0.873, -0.873, -0.488, 346.738, 275.637)" fill="#161615" font-size="13" font-family="Roboto-Bold, Roboto" font-weight="700"><tspan x="0" y="0">o</tspan></text><text transform="matrix(-0.515, 0.857, -0.857, -0.515, 343.159, 281.972)" fill="#161615" font-size="13" font-family="Roboto-Bold, Roboto" font-weight="700"><tspan x="0" y="0"> </tspan></text><text transform="translate(341.542 284.721) rotate(122.807)" fill="#161615" font-size="13" font-family="Roboto-Bold, Roboto" font-weight="700"><tspan x="0" y="0">d</tspan></text><text transform="matrix(-0.577, 0.817, -0.817, -0.577, 337.627, 290.795)" fill="#161615" font-size="13" font-family="Roboto-Bold, Roboto" font-weight="700"><tspan x="0" y="0">e</tspan></text><text transform="matrix(-0.601, 0.799, -0.799, -0.601, 333.589, 296.465)" fill="#161615" font-size="13" font-family="Roboto-Bold, Roboto" font-weight="700"><tspan x="0" y="0"> </tspan></text><text transform="matrix(-0.626, 0.78, -0.78, -0.626, 331.706, 299.018)" fill="#161615" font-size="13" font-family="Roboto-Bold, Roboto" font-weight="700"><tspan x="0" y="0">p</tspan></text><text transform="matrix(-0.653, 0.757, -0.757, -0.653, 327.17, 304.636)" fill="#161615" font-size="13" font-family="Roboto-Bold, Roboto" font-weight="700"><tspan x="0" y="0">r</tspan></text><text transform="translate(324.277 308.027) rotate(132.758)" fill="#161615" font-size="13" font-family="Roboto-Bold, Roboto" font-weight="700"><tspan x="0" y="0">o</tspan></text><text transform="translate(319.357 313.351) rotate(135.227)" fill="#161615" font-size="13" font-family="Roboto-Bold, Roboto" font-weight="700"><tspan x="0" y="0">d</tspan></text><text transform="matrix(-0.739, 0.673, -0.673, -0.739, 314.234, 318.437)" fill="#161615" font-size="13" font-family="Roboto-Bold, Roboto" font-weight="700"><tspan x="0" y="0">u</tspan></text><text transform="translate(308.904 323.287) rotate(140.04)" fill="#161615" font-size="13" font-family="Roboto-Bold, Roboto" font-weight="700"><tspan x="0" y="0">c</tspan></text><text transform="translate(303.772 327.589) rotate(142.313)" fill="#161615" font-size="13" font-family="Roboto-Bold, Roboto" font-weight="700"><tspan x="0" y="0">c</tspan></text><text transform="translate(298.442 331.677) rotate(144.025)" fill="#161615" font-size="13" font-family="Roboto-Bold, Roboto" font-weight="700"><tspan x="0" y="0">i</tspan></text><text transform="matrix(-0.827, 0.562, -0.562, -0.827, 295.726, 333.687)" fill="#161615" font-size="13" font-family="Roboto-Bold, Roboto" font-weight="700"><tspan x="0" y="0">ó</tspan></text><text transform="matrix(-0.851, 0.526, -0.526, -0.851, 289.723, 337.763)" fill="#161615" font-size="13" font-family="Roboto-Bold, Roboto" font-weight="700"><tspan x="0" y="0">n</tspan></text><text transform="translate(283.588 341.52) rotate(150.026)" fill="#161615" font-size="13" font-family="Roboto-Bold, Roboto" font-weight="700"><tspan x="0" y="0"> </tspan></text><text transform="translate(280.847 343.13) rotate(151.659)" fill="#161615" font-size="13" font-family="Roboto-Bold, Roboto" font-weight="700"><tspan x="0" y="0">y</tspan></text><text transform="translate(275.143 346.181) rotate(153.293)" fill="#161615" font-size="13" font-family="Roboto-Bold, Roboto" font-weight="700"><tspan x="0" y="0"> </tspan></text><text transform="matrix(-0.906, 0.422, -0.422, -0.906, 272.31, 347.639)" fill="#161615" font-size="13" font-family="Roboto-Bold, Roboto" font-weight="700"><tspan x="0" y="0">e</tspan></text><text transform="translate(266.045 350.565) rotate(157.402)" fill="#161615" font-size="13" font-family="Roboto-Bold, Roboto" font-weight="700"><tspan x="0" y="0">n</tspan></text><text transform="matrix(-0.938, 0.346, -0.346, -0.938, 259.385, 353.331)" fill="#161615" font-size="13" font-family="Roboto-Bold, Roboto" font-weight="700"><tspan x="0" y="0">v</tspan></text><text transform="translate(253.397 355.549) rotate(161.97)" fill="#161615" font-size="13" font-family="Roboto-Bold, Roboto" font-weight="700"><tspan x="0" y="0">a</tspan></text><text transform="matrix(-0.963, 0.271, -0.271, -0.963, 246.87, 357.674)" fill="#161615" font-size="13" font-family="Roboto-Bold, Roboto" font-weight="700"><tspan x="0" y="0">s</tspan></text><text transform="matrix(-0.973, 0.232, -0.232, -0.973, 240.525, 359.466)" fill="#161615" font-size="13" font-family="Roboto-Bold, Roboto" font-weight="700"><tspan x="0" y="0">a</tspan></text><text transform="matrix(-0.982, 0.191, -0.191, -0.982, 233.82, 361.073)" fill="#161615" font-size="13" font-family="Roboto-Bold, Roboto" font-weight="700"><tspan x="0" y="0">d</tspan></text><text transform="translate(226.714 362.461) rotate(171.461)" fill="#161615" font-size="13" font-family="Roboto-Bold, Roboto" font-weight="700"><tspan x="0" y="0">o</tspan></text><text transform="translate(181.013 364.021) rotate(-172.39)" fill="#161615" font-size="12" font-family="Roboto-Bold, Roboto" font-weight="700"><tspan x="0" y="0">M</tspan></text><text transform="translate(170.705 362.594) rotate(-169.57)" fill="#161615" font-size="12" font-family="Roboto-Bold, Roboto" font-weight="700"><tspan x="0" y="0">a</tspan></text><text transform="translate(164.438 361.447) rotate(-167.36)" fill="#161615" font-size="12" font-family="Roboto-Bold, Roboto" font-weight="700"><tspan x="0" y="0">n</tspan></text><text transform="matrix(-0.969, -0.247, 0.247, -0.969, 157.951, 359.966)" fill="#161615" font-size="12" font-family="Roboto-Bold, Roboto" font-weight="700"><tspan x="0" y="0">i</tspan></text><text transform="translate(154.918 359.22) rotate(-164.02)" fill="#161615" font-size="12" font-family="Roboto-Bold, Roboto" font-weight="700"><tspan x="0" y="0">p</tspan></text><text transform="translate(148.503 357.383) rotate(-161.741)" fill="#161615" font-size="12" font-family="Roboto-Bold, Roboto" font-weight="700"><tspan x="0" y="0">u</tspan></text><text transform="translate(142.188 355.275) rotate(-160.064)" fill="#161615" font-size="12" font-family="Roboto-Bold, Roboto" font-weight="700"><tspan x="0" y="0">l</tspan></text><text transform="translate(139.221 354.223) rotate(-158.425)" fill="#161615" font-size="12" font-family="Roboto-Bold, Roboto" font-weight="700"><tspan x="0" y="0">a</tspan></text><text transform="translate(133.302 351.882) rotate(-156.271)" fill="#161615" font-size="12" font-family="Roboto-Bold, Roboto" font-weight="700"><tspan x="0" y="0">c</tspan></text><text transform="translate(127.654 349.377) rotate(-154.677)" fill="#161615" font-size="12" font-family="Roboto-Bold, Roboto" font-weight="700"><tspan x="0" y="0">i</tspan></text><text transform="translate(124.826 348.068) rotate(-152.99)" fill="#161615" font-size="12" font-family="Roboto-Bold, Roboto" font-weight="700"><tspan x="0" y="0">ó</tspan></text><text transform="matrix(-0.872, -0.489, 0.489, -0.872, 118.83, 345.015)" fill="#161615" font-size="12" font-family="Roboto-Bold, Roboto" font-weight="700"><tspan x="0" y="0">n</tspan></text><text transform="matrix(-0.858, -0.514, 0.514, -0.858, 113.038, 341.733)" fill="#161615" font-size="12" font-family="Roboto-Bold, Roboto" font-weight="700"><tspan x="0" y="0"> </tspan></text><text transform="translate(110.505 340.245) rotate(-147.45)" fill="#161615" font-size="12" font-family="Roboto-Bold, Roboto" font-weight="700"><tspan x="0" y="0">e</tspan></text><text transform="translate(105.106 336.802) rotate(-145.222)" fill="#161615" font-size="12" font-family="Roboto-Bold, Roboto" font-weight="700"><tspan x="0" y="0">n</tspan></text><text transform="matrix(-0.805, -0.594, 0.594, -0.805, 99.65, 332.983)" fill="#161615" font-size="12" font-family="Roboto-Bold, Roboto" font-weight="700"><tspan x="0" y="0"> </tspan></text><text transform="translate(97.269 331.234) rotate(-142.399)" fill="#161615" font-size="12" font-family="Roboto-Bold, Roboto" font-weight="700"><tspan x="0" y="0">t</tspan></text><text transform="translate(94.107 328.803) rotate(-140.987)" fill="#161615" font-size="12" font-family="Roboto-Bold, Roboto" font-weight="700"><tspan x="0" y="0">r</tspan></text><text transform="translate(90.863 326.197) rotate(-139.222)" fill="#161615" font-size="12" font-family="Roboto-Bold, Roboto" font-weight="700"><tspan x="0" y="0">a</tspan></text><text transform="translate(86.051 322.054) rotate(-137.018)" fill="#161615" font-size="12" font-family="Roboto-Bold, Roboto" font-weight="700"><tspan x="0" y="0">n</tspan></text><text transform="matrix(-0.705, -0.709, 0.709, -0.705, 81.198, 317.527)" fill="#161615" font-size="12" font-family="Roboto-Bold, Roboto" font-weight="700"><tspan x="0" y="0">s</tspan></text><text transform="matrix(-0.678, -0.735, 0.735, -0.678, 76.882, 313.198)" fill="#161615" font-size="12" font-family="Roboto-Bold, Roboto" font-weight="700"><tspan x="0" y="0">p</tspan></text><text transform="translate(72.358 308.296) rotate(-130.427)" fill="#161615" font-size="12" font-family="Roboto-Bold, Roboto" font-weight="700"><tspan x="0" y="0">o</tspan></text><text transform="matrix(-0.623, -0.782, 0.782, -0.623, 68.013, 303.169)" fill="#161615" font-size="12" font-family="Roboto-Bold, Roboto" font-weight="700"><tspan x="0" y="0">r</tspan></text><text transform="translate(65.145 299.564) rotate(-127.054)" fill="#161615" font-size="12" font-family="Roboto-Bold, Roboto" font-weight="700"><tspan x="0" y="0">t</tspan></text><text transform="matrix(-0.578, -0.816, 0.816, -0.578, 62.727, 296.392)" fill="#161615" font-size="12" font-family="Roboto-Bold, Roboto" font-weight="700"><tspan x="0" y="0">e</tspan></text><text transform="matrix(-0.555, -0.832, 0.832, -0.555, 59.02, 291.114)" fill="#161615" font-size="12" font-family="Roboto-Bold, Roboto" font-weight="700"><tspan x="0" y="0"> </tspan></text><text transform="translate(57.376 288.686) rotate(-122.191)" fill="#161615" font-size="12" font-family="Roboto-Bold, Roboto" font-weight="700"><tspan x="0" y="0">y</tspan></text><text transform="translate(54.211 283.623) rotate(-120.679)" fill="#161615" font-size="12" font-family="Roboto-Bold, Roboto" font-weight="700"><tspan x="0" y="0"> </tspan></text><text transform="translate(52.699 281.12) rotate(-119.102)" fill="#161615" font-size="12" font-family="Roboto-Bold, Roboto" font-weight="700"><tspan x="0" y="0">a</tspan></text><text transform="translate(49.605 275.514) rotate(-117.479)" fill="#161615" font-size="12" font-family="Roboto-Bold, Roboto" font-weight="700"><tspan x="0" y="0">l</tspan></text><text transform="translate(48.116 272.815) rotate(-115.203)" fill="#161615" font-size="12" font-family="Roboto-Bold, Roboto" font-weight="700"><tspan x="0" y="0">m</tspan></text><text transform="matrix(-0.381, -0.925, 0.925, -0.381, 43.775, 263.479)" fill="#161615" font-size="12" font-family="Roboto-Bold, Roboto" font-weight="700"><tspan x="0" y="0">a</tspan></text><text transform="translate(41.355 257.597) rotate(-110.222)" fill="#161615" font-size="12" font-family="Roboto-Bold, Roboto" font-weight="700"><tspan x="0" y="0">c</tspan></text><text transform="translate(39.218 251.806) rotate(-108.07)" fill="#161615" font-size="12" font-family="Roboto-Bold, Roboto" font-weight="700"><tspan x="0" y="0">e</tspan></text><text transform="matrix(-0.273, -0.962, 0.962, -0.273, 37.224, 245.71)" fill="#161615" font-size="12" font-family="Roboto-Bold, Roboto" font-weight="700"><tspan x="0" y="0">n</tspan></text><text transform="translate(35.408 239.296) rotate(-103.595)" fill="#161615" font-size="12" font-family="Roboto-Bold, Roboto" font-weight="700"><tspan x="0" y="0">a</tspan></text><text transform="translate(33.934 233.106) rotate(-101.979)" fill="#161615" font-size="12" font-family="Roboto-Bold, Roboto" font-weight="700"><tspan x="0" y="0">j</tspan></text><text transform="translate(33.273 230.11) rotate(-100.347)" fill="#161615" font-size="12" font-family="Roboto-Bold, Roboto" font-weight="700"><tspan x="0" y="0">e</tspan></text><text transform="translate(32.143 223.789) rotate(-98.743)" fill="#161615" font-size="12" font-family="Roboto-Bold, Roboto" font-weight="700"><tspan x="0" y="0"> </tspan></text></g></g><g transform="translate(654.425 3381.608)" opacity="0.34" style="mix-blend-mode:multiply;isolation:isolate"><g clip-path="url(#j)"><g transform="translate(0 0)"><g clip-path="url(#k)"><rect width="261.152" height="261.152" transform="translate(0 0)" fill="url(#l)"/></g></g></g></g><g transform="translate(696.811 3410.728)" style="mix-blend-mode:multiply;isolation:isolate"><g transform="translate(-29.968 -29.968)"><g clip-path="url(#m)"><g transform="translate(0)"><g clip-path="url(#n)"><rect width="229.36" height="229.362" transform="translate(0)" fill="url(#o)"/></g></g></g></g></g><path d="M247.947,144.9A103.027,103.027,0,1,1,144.919,41.875,103.028,103.028,0,0,1,247.947,144.9" transform="translate(635.71 3350.537)" fill="#fff"/><rect width="400" height="400" transform="translate(579.975 3295.245)" fill="none"/><rect width="400" height="400" transform="translate(579.975 3295.245)" fill="none"/><path d="M-37.963-6.973h-6.75V0h-3.516V-17.062h11.109v2.848h-7.594v4.406h6.75ZM-28.354,0a3.761,3.761,0,0,1-.34-1.137,4.1,4.1,0,0,1-3.2,1.371A4.5,4.5,0,0,1-34.98-.844a3.467,3.467,0,0,1-1.225-2.719,3.583,3.583,0,0,1,1.494-3.094,7.373,7.373,0,0,1,4.318-1.09h1.559v-.727a2.089,2.089,0,0,0-.451-1.406,1.775,1.775,0,0,0-1.424-.527,2.018,2.018,0,0,0-1.342.41,1.393,1.393,0,0,0-.486,1.125h-3.387a3.4,3.4,0,0,1,.68-2.039,4.493,4.493,0,0,1,1.922-1.471,7,7,0,0,1,2.789-.533,5.534,5.534,0,0,1,3.721,1.178,4.12,4.12,0,0,1,1.377,3.311v5.5a6.062,6.062,0,0,0,.5,2.73V0Zm-2.8-2.355a2.917,2.917,0,0,0,1.383-.334,2.194,2.194,0,0,0,.938-.9v-2.18H-30.1q-2.543,0-2.707,1.758l-.012.2a1.356,1.356,0,0,0,.445,1.043A1.73,1.73,0,0,0-31.154-2.355ZM-17.561-2.5a2.221,2.221,0,0,0,1.523-.516,1.807,1.807,0,0,0,.609-1.371h3.176a4.344,4.344,0,0,1-.7,2.361A4.64,4.64,0,0,1-14.848-.357,5.923,5.923,0,0,1-17.5.234a5.5,5.5,0,0,1-4.289-1.729,6.84,6.84,0,0,1-1.57-4.775v-.223A6.762,6.762,0,0,1-21.8-11.168a5.441,5.441,0,0,1,4.277-1.746,5.333,5.333,0,0,1,3.814,1.354,4.792,4.792,0,0,1,1.459,3.6h-3.176a2.308,2.308,0,0,0-.609-1.6,2.037,2.037,0,0,0-1.547-.615,2.041,2.041,0,0,0-1.787.861,4.986,4.986,0,0,0-.6,2.795v.352a5.049,5.049,0,0,0,.6,2.813A2.066,2.066,0,0,0-17.561-2.5Zm11.3-13.3v3.117H-4.1V-10.2H-6.264v6.328a1.511,1.511,0,0,0,.27,1.008,1.354,1.354,0,0,0,1.031.3,5.4,5.4,0,0,0,1-.082V-.07a6.972,6.972,0,0,1-2.051.3q-3.562,0-3.633-3.6V-10.2H-11.5V-12.68H-9.65V-15.8Zm3.176,9.34A7.52,7.52,0,0,1-2.361-9.82,5.319,5.319,0,0,1-.27-12.105a6.1,6.1,0,0,1,3.17-.809,5.774,5.774,0,0,1,4.189,1.57A6.3,6.3,0,0,1,8.9-7.078l.023.867A6.627,6.627,0,0,1,7.295-1.529,5.662,5.662,0,0,1,2.924.234,5.69,5.69,0,0,1-1.453-1.523,6.744,6.744,0,0,1-3.088-6.3ZM.3-6.211a4.727,4.727,0,0,0,.68,2.76A2.243,2.243,0,0,0,2.924-2.5a2.249,2.249,0,0,0,1.922-.943,5.172,5.172,0,0,0,.691-3.018A4.68,4.68,0,0,0,4.846-9.2,2.249,2.249,0,0,0,2.9-10.172a2.212,2.212,0,0,0-1.922.967A5.259,5.259,0,0,0,.3-6.211ZM18.135-9.5A9.2,9.2,0,0,0,16.916-9.6,2.481,2.481,0,0,0,14.4-8.3V0H11.01V-12.68h3.2l.094,1.512a3.138,3.138,0,0,1,2.824-1.746,3.549,3.549,0,0,1,1.055.152ZM25.6.234a6.225,6.225,0,0,1-4.541-1.711,6.082,6.082,0,0,1-1.752-4.559v-.328a7.66,7.66,0,0,1,.738-3.416,5.418,5.418,0,0,1,2.092-2.32,5.871,5.871,0,0,1,3.088-.814,5.262,5.262,0,0,1,4.1,1.641,6.667,6.667,0,0,1,1.494,4.652v1.383H22.74a3.146,3.146,0,0,0,.99,1.992,2.993,2.993,0,0,0,2.092.75,3.656,3.656,0,0,0,3.059-1.418l1.664,1.863A5.084,5.084,0,0,1,28.482-.369,6.767,6.767,0,0,1,25.6.234Zm-.387-10.406a2.121,2.121,0,0,0-1.635.68,3.511,3.511,0,0,0-.8,1.945h4.711v-.27a2.5,2.5,0,0,0-.609-1.74A2.189,2.189,0,0,0,25.213-10.172ZM39.6-3.5a1.091,1.091,0,0,0-.615-.979,6.989,6.989,0,0,0-1.975-.639Q32.49-6.07,32.49-8.965a3.484,3.484,0,0,1,1.4-2.818,5.649,5.649,0,0,1,3.662-1.131,6.08,6.08,0,0,1,3.861,1.137,3.582,3.582,0,0,1,1.447,2.953H39.475a1.639,1.639,0,0,0-.469-1.2,1.984,1.984,0,0,0-1.465-.475,2.027,2.027,0,0,0-1.324.387,1.221,1.221,0,0,0-.469.984,1.044,1.044,0,0,0,.533.908,5.485,5.485,0,0,0,1.8.6,14.692,14.692,0,0,1,2.133.568Q42.9-6.07,42.9-3.645A3.307,3.307,0,0,1,41.408-.838,6.42,6.42,0,0,1,37.564.234a6.706,6.706,0,0,1-2.83-.568,4.748,4.748,0,0,1-1.939-1.559,3.621,3.621,0,0,1-.7-2.139H35.3a1.768,1.768,0,0,0,.668,1.383,2.649,2.649,0,0,0,1.664.48,2.452,2.452,0,0,0,1.471-.369A1.149,1.149,0,0,0,39.6-3.5ZM-27.932,19.5a2.221,2.221,0,0,0,1.523-.516,1.807,1.807,0,0,0,.609-1.371h3.176a4.344,4.344,0,0,1-.7,2.361,4.64,4.64,0,0,1-1.893,1.664,5.923,5.923,0,0,1-2.654.592,5.5,5.5,0,0,1-4.289-1.729,6.84,6.84,0,0,1-1.57-4.775v-.223a6.762,6.762,0,0,1,1.559-4.676A5.441,5.441,0,0,1-27.9,9.086a5.333,5.333,0,0,1,3.814,1.354,4.792,4.792,0,0,1,1.459,3.6H-25.8a2.308,2.308,0,0,0-.609-1.6,2.037,2.037,0,0,0-1.547-.615,2.041,2.041,0,0,0-1.787.861,4.986,4.986,0,0,0-.6,2.795v.352a5.049,5.049,0,0,0,.6,2.813A2.066,2.066,0,0,0-27.932,19.5ZM-17.115,22h-3.4V4h3.4Zm10.137,0a3.761,3.761,0,0,1-.34-1.137,4.1,4.1,0,0,1-3.2,1.371,4.5,4.5,0,0,1-3.088-1.078,3.467,3.467,0,0,1-1.225-2.719,3.583,3.583,0,0,1,1.494-3.094,7.373,7.373,0,0,1,4.318-1.09h1.559v-.727a2.089,2.089,0,0,0-.451-1.406,1.775,1.775,0,0,0-1.424-.527,2.018,2.018,0,0,0-1.342.41,1.393,1.393,0,0,0-.486,1.125h-3.387a3.4,3.4,0,0,1,.68-2.039,4.493,4.493,0,0,1,1.922-1.471,7,7,0,0,1,2.789-.533,5.534,5.534,0,0,1,3.721,1.178,4.12,4.12,0,0,1,1.377,3.311v5.5a6.062,6.062,0,0,0,.5,2.73V22Zm-2.8-2.355A2.917,2.917,0,0,0-8.4,19.311a2.194,2.194,0,0,0,.938-.9v-2.18H-8.725q-2.543,0-2.707,1.758l-.012.2A1.356,1.356,0,0,0-11,19.234,1.73,1.73,0,0,0-9.779,19.645ZM3.111,17.863,5.467,9.32H9.006L4.729,22H1.494L-2.783,9.32H.756ZM16.33,22.234a6.225,6.225,0,0,1-4.541-1.711,6.082,6.082,0,0,1-1.752-4.559v-.328a7.66,7.66,0,0,1,.738-3.416A5.418,5.418,0,0,1,12.867,9.9a5.871,5.871,0,0,1,3.088-.814,5.262,5.262,0,0,1,4.1,1.641,6.667,6.667,0,0,1,1.494,4.652v1.383H13.471a3.146,3.146,0,0,0,.99,1.992,2.993,2.993,0,0,0,2.092.75,3.656,3.656,0,0,0,3.059-1.418l1.664,1.863a5.084,5.084,0,0,1-2.062,1.682A6.767,6.767,0,0,1,16.33,22.234Zm-.387-10.406a2.121,2.121,0,0,0-1.635.68,3.511,3.511,0,0,0-.8,1.945h4.711v-.27a2.5,2.5,0,0,0-.609-1.74A2.189,2.189,0,0,0,15.943,11.828ZM30.334,18.5a1.091,1.091,0,0,0-.615-.979,6.989,6.989,0,0,0-1.975-.639q-4.523-.949-4.523-3.844a3.484,3.484,0,0,1,1.4-2.818,5.649,5.649,0,0,1,3.662-1.131,6.08,6.08,0,0,1,3.861,1.137,3.582,3.582,0,0,1,1.447,2.953H30.205a1.639,1.639,0,0,0-.469-1.2,1.984,1.984,0,0,0-1.465-.475,2.027,2.027,0,0,0-1.324.387,1.221,1.221,0,0,0-.469.984,1.044,1.044,0,0,0,.533.908,5.485,5.485,0,0,0,1.8.6,14.692,14.692,0,0,1,2.133.568q2.684.984,2.684,3.41a3.307,3.307,0,0,1-1.488,2.807,6.42,6.42,0,0,1-3.844,1.072,6.706,6.706,0,0,1-2.83-.568,4.748,4.748,0,0,1-1.939-1.559,3.621,3.621,0,0,1-.7-2.139h3.211a1.768,1.768,0,0,0,.668,1.383,2.649,2.649,0,0,0,1.664.48,2.452,2.452,0,0,0,1.471-.369A1.149,1.149,0,0,0,30.334,18.5Z" transform="translate(782.975 3535.184)" fill="#12263f"/></g><g transform="translate(768.065 3439.745)"><path d="M57,44V62H43V38l4,6Z" fill="#d3a06c"/><path d="M39,44H27V62H43V38Z" fill="#d3a06c"/><path d="M57,38l4,6H47l-4-6H57Z" fill="#b27946"/><path d="M43,38l-4,6H23l4-6H43Z" fill="#b27946"/><path d="M54,30.85V38H46V30.85a3,3,0,0,1,1.66-2.68L48,28V24h4v4l.34.17A3,3,0,0,1,54,30.85Z" fill="#ffeaa7"/><path d="M51,20a3,3,0,0,1,3,3,1,1,0,0,1-1,1H47a1,1,0,0,1-1-1,3,3,0,0,1,3-3Z" fill="#fcd770"/><path d="M46,30.85V38H38V30.85a3,3,0,0,1,1.66-2.68L40,28V24h4v4l.34.17A3,3,0,0,1,46,30.85Z" fill="#e6e9ed"/><path d="M46,23a1,1,0,0,1-1,1H39a1,1,0,0,1-1-1,3,3,0,0,1,3-3h2a3,3,0,0,1,3,3Z" fill="#ccd1d9"/><path d="M38,30.85V38H30V30.85a3,3,0,0,1,1.66-2.68L32,28V24h4v4l.34.17A3,3,0,0,1,38,30.85Z" fill="#69d6f4"/><path d="M38,23a1,1,0,0,1-1,1H31a1,1,0,0,1-1-1,3,3,0,0,1,3-3h2a3,3,0,0,1,3,3Z" fill="#4fc1e9"/><path d="M23,12H17.24a2,2,0,0,0-1.79,1.11L14,16H2A10,10,0,0,1,12,6h5A6,6,0,0,1,23,12Z" fill="#ffeaa7"/><path d="M24,12a3,3,0,0,1,3,3,1,1,0,0,1-1,1H14l1.45-2.89A2,2,0,0,1,17.24,12H24Z" fill="#fcd770"/><path d="M10,24v7l-.43-.11A9.992,9.992,0,0,1,2,21.19V16h8l-.59.59a4.828,4.828,0,0,0,0,6.82Z" fill="#656d78"/><path d="M27,50H20v-.23a15.931,15.931,0,0,0-.55-4.16h-.01L14,45l-.18-1.07A20.518,20.518,0,0,0,10,35a10.843,10.843,0,0,0-6,9.71v.44a10.733,10.733,0,0,0,2.01,6.28H6V62H20V56h9V50Z" fill="#b4dd7f"/><path d="M19.44,45.61,14,45l-.18-1.07A20.518,20.518,0,0,0,10,35a15.781,15.781,0,0,1,5.99,4.23A15.633,15.633,0,0,1,19.44,45.61Z" fill="#a0d468"/><path d="M37,51.94v2.12A1.942,1.942,0,0,1,35.06,56H29V50l1.43-1.43a1.942,1.942,0,0,1,3.11.5L34,50h1.06A1.942,1.942,0,0,1,37,51.94Z" fill="#f0d0b4"/><path d="M16,30.2v9.02l-.01.01A15.781,15.781,0,0,0,10,35V24l-.59-.59a4.828,4.828,0,0,1,0-6.82L10,16H23v4.51a2.154,2.154,0,0,0,.22.93l.56,1.12a2.154,2.154,0,0,1,.22.93,2.109,2.109,0,0,1-1.43,1.99L21,26v2.48a2.516,2.516,0,0,1-3.45,2.34Z" fill="#f0d0b4"/><path d="M53,8l-3.55,7.11a1.626,1.626,0,0,1-2.9,0L43,8h3V2h4V8Z" fill="#ffeaa7"/><path d="M62.869,45l-5.333-8H55V30.854a3.975,3.975,0,0,0-2-3.465V25a2,2,0,0,0,2-2,4,4,0,0,0-4-4H49a3.975,3.975,0,0,0-3,1.382A3.975,3.975,0,0,0,43,19H41a3.975,3.975,0,0,0-3,1.382A3.975,3.975,0,0,0,35,19H33a4,4,0,0,0-4,4,2,2,0,0,0,2,2v2.39a3.975,3.975,0,0,0-2,3.465V37H26.465l-5.333,8H26v4H20.983A16.828,16.828,0,0,0,17,38.836V31.678l.178.071A3.515,3.515,0,0,0,22,28.484V26.72l.887-.3a3.09,3.09,0,0,0,1.786-4.315l-.558-1.116A1.089,1.089,0,0,1,24,20.508V17h2a2,2,0,0,0,2-2,4,4,0,0,0-4-4h-.071A7.011,7.011,0,0,0,17,5H12A11.013,11.013,0,0,0,1,16v5.192A10.979,10.979,0,0,0,9,31.766v2.64a11.781,11.781,0,0,0-6,10.3v.438a11.778,11.778,0,0,0,2,6.578V63H21V57h5v6H58V45Zm-3.738-2h-11.6l-2.667-4h11.6Zm-18-6H39V30.854a1.988,1.988,0,0,1,1.1-1.789l.9-.447V25h2v3.618l.9.447A1.989,1.989,0,0,1,45,30.854V37H41.131ZM37,27.39V25a1.978,1.978,0,0,0,1-.278A1.978,1.978,0,0,0,39,25v2.39a4.009,4.009,0,0,0-1,.826A3.988,3.988,0,0,0,37,27.39Zm9-2.668A1.978,1.978,0,0,0,47,25v2.39a4.009,4.009,0,0,0-1,.826,3.988,3.988,0,0,0-1-.826V25A1.978,1.978,0,0,0,46,24.722Zm5.9,4.343A1.989,1.989,0,0,1,53,30.854V37H47V30.854a1.988,1.988,0,0,1,1.1-1.789l.9-.447V25h2v3.618ZM49,21h2a2,2,0,0,1,2,2H47A2,2,0,0,1,49,21Zm-8,0h2a2,2,0,0,1,2,1.993s0,0,0,.007H39A2,2,0,0,1,41,21Zm-8,0h2a2,2,0,0,1,2,1.993s0,0,0,.007H31A2,2,0,0,1,33,21Zm-2,9.854a1.988,1.988,0,0,1,1.1-1.789l.9-.447V25h2v3.618l.9.447A1.989,1.989,0,0,1,37,30.854V37H31ZM27.535,39h13.6l-2.667,4h-13.6ZM30,50.414l1.14-1.14a.967.967,0,0,1,1.5.244L33.382,51h1.681a.938.938,0,0,1,.937.938v2.125a.938.938,0,0,1-.937.937H30ZM18.017,44.44l-3.155-.35-.054-.322a21.555,21.555,0,0,0-1.982-6.085,14.779,14.779,0,0,1,5.191,6.757Zm4.31-22.55.558,1.115a1.092,1.092,0,0,1-.63,1.523L20,25.279v3.2a1.514,1.514,0,0,1-2.078,1.408l-4.55-1.82-.743,1.857L15,30.878v5.973a16.957,16.957,0,0,0-4-2.5V23.586l-.879-.879A3.857,3.857,0,0,1,9,20a3.8,3.8,0,0,1,1.122-2.707L10.415,17H22v3.508a3.1,3.1,0,0,0,.327,1.382ZM24,13a2,2,0,0,1,2,2H15.618l.724-1.447A.994.994,0,0,1,17.236,13ZM12,7h5a5.008,5.008,0,0,1,4.9,4H17.235a2.985,2.985,0,0,0-2.683,1.658L13.382,15H3.055A9.013,9.013,0,0,1,12,7ZM3,21.192V17H7.837A5.79,5.79,0,0,0,7,20a5.868,5.868,0,0,0,1.707,4.121L9,24.414v5.262a8.987,8.987,0,0,1-6-8.484ZM5,44.708a9.783,9.783,0,0,1,4.71-8.384A19.6,19.6,0,0,1,12.835,44.1l.3,1.814,5.5.612A14.932,14.932,0,0,1,18.98,49H15a4,4,0,0,1-4-4,5.868,5.868,0,0,0-1.707-4.121l-.586-.586L7.293,41.706l.586.586A3.862,3.862,0,0,1,9,45a6.006,6.006,0,0,0,6,6H28v4H14.854A9.865,9.865,0,0,1,5,45.146ZM19,61H7V54a11.79,11.79,0,0,0,7.854,3H19Zm9-4h7.063A2.94,2.94,0,0,0,38,54.063V51.938A2.94,2.94,0,0,0,35.063,49h-.444l-.188-.376a2.938,2.938,0,0,0-4.7-.764L28.586,49H28V45H39.535L42,41.3V61H28Zm28,4H44V41.3L46.465,45H56Z"/><path d="M48,17a2.6,2.6,0,0,0,2.342-1.447L54.618,7H51V1H45V7H41.382l4.276,8.553A2.6,2.6,0,0,0,48,17ZM47,9V3h2V9h2.382l-2.829,5.658a.64.64,0,0,1-1.1,0L44.618,9Z"/></g></g></svg>