<svg xmlns="http://www.w3.org/2000/svg" width="99.051" height="99.051" viewBox="0 0 99.051 99.051"><g transform="translate(-526 -4522.475)"><g transform="translate(526 4522.475)"><circle cx="49.525" cy="49.525" r="49.525" fill="#91b3fa" opacity="0.45"/><circle cx="40.402" cy="40.402" r="40.402" transform="translate(9.123 9.123)" fill="#fff"/></g><g transform="translate(546.953 4546.361)"><g transform="translate(0.86 0.803)"><g transform="translate(37.518)"><ellipse cx="7.223" cy="6.822" rx="7.223" ry="6.822" transform="translate(0)" fill="#ff826e"/></g><g transform="translate(23.957 1.768)"><path d="M38.536,9.124V33.936H35.114V8.268a.853.853,0,0,0-.856-.856H29.98V3.99h5.134a3.427,3.427,0,0,1,3.422,3.422Z" transform="translate(-29.98 -3.99)" fill="#5cd6b3"/></g><g transform="translate(0 1.768)"><path d="M27.648,47.625v.856H5.4A3.427,3.427,0,0,1,1.98,45.059V7.412A3.421,3.421,0,0,1,5.4,3.99h5.134V7.412H6.258a.847.847,0,0,0-.856.856V44.2a.853.853,0,0,0,.856.856h21.39Z" transform="translate(-1.98 -3.99)" fill="#5cd6b3"/></g><g transform="translate(3.422 5.191)"><path d="M31.648,8.846V34.513H28.226V45.636H6.836a.853.853,0,0,1-.856-.856V8.846a.847.847,0,0,1,.856-.856h4.278A1.711,1.711,0,0,0,12.825,9.7H24.8A1.716,1.716,0,0,0,26.514,7.99h4.278a.853.853,0,0,1,.856.856Z" transform="translate(-5.98 -7.99)" fill="#e6e9ed"/></g><g transform="translate(6.845 32.57)"><path d="M9.98,39.99h8.556v6.845H9.98Z" transform="translate(-9.98 -39.99)" fill="#fcd770"/></g><g transform="translate(8.556 0.057)"><path d="M27.381,3.7V7.124A1.716,1.716,0,0,1,25.67,8.835H13.691A1.711,1.711,0,0,1,11.98,7.124V3.7A1.705,1.705,0,0,1,13.691,1.99H25.67A1.711,1.711,0,0,1,27.381,3.7Z" transform="translate(-11.98 -1.99)" fill="#aab2bd"/></g><g transform="translate(25.668 45.404)"><path d="M31.98,54.99H57.648V56.7a1.716,1.716,0,0,1-1.711,1.711H54.226a2.567,2.567,0,0,0-5.134,0H40.536a2.567,2.567,0,0,0-5.134,0H33.691A1.711,1.711,0,0,1,31.98,56.7V54.99Z" transform="translate(-31.98 -54.99)" fill="#ccd1d9"/></g><g transform="translate(42.334 46.548)"><ellipse cx="2.809" cy="2.408" rx="2.809" ry="2.408" transform="translate(0 0)" fill="#969faa"/></g><g transform="translate(29.493 46.548)"><circle cx="2.408" cy="2.408" r="2.408" transform="translate(0 0)" fill="#969faa"/></g><g transform="translate(41.069 35.137)"><path d="M60.247,46.412v6.845H49.98V42.99h7.7Z" transform="translate(-49.98 -42.99)" fill="#ff826e"/></g><g transform="translate(25.668 31.714)"><path d="M31.98,38.99h15.4V52.68H31.98Z" transform="translate(-31.98 -38.99)" fill="#d3a06c"/></g><g transform="translate(30.801 31.714)"><path d="M39.691,38.99h3.422v3.422H37.98V38.99Z" transform="translate(-37.98 -38.99)" fill="#b27946"/></g></g><g transform="translate(0 0)"><path d="M57.323,7.488l-1.21-1.21-4.529,4.529L50.478,9.7l-1.21,1.21,2.316,2.316Z" transform="translate(-7.949 -1.749)"/><path d="M16.4,13.412l-1.369-1.026-4.542,6.055L9.478,17.427l-1.21,1.21,2.409,2.409Z" transform="translate(-2.028 -2.631)"/><path d="M47.177,36.064V16.335A7.7,7.7,0,1,0,38.672,7.83H35.2V6.974A4.283,4.283,0,0,0,30.921,2.7H26.485A2.563,2.563,0,0,0,24.076.985H12.1A2.563,2.563,0,0,0,9.688,2.7H5.253A4.283,4.283,0,0,0,.975,6.974V44.62A4.283,4.283,0,0,0,5.253,48.9h21.39a2.57,2.57,0,0,0,2.567,2.567h.977a3.406,3.406,0,0,0,6.6,0h7.088a3.406,3.406,0,0,0,6.6,0h.977A2.57,2.57,0,0,0,54.022,48.9V40.057l-2.995-3.993ZM46.322,2.7a5.989,5.989,0,1,1-5.989,5.989A6,6,0,0,1,46.322,2.7Zm-7.65,6.845a7.711,7.711,0,0,0,6.794,6.794V36.064H43.755V32.642H35.2V9.541ZM28.354,46.332V34.353h3.422v3.422h6.845V34.353h3.422V46.332ZM9.688,7.83A2.563,2.563,0,0,0,12.1,9.541H24.076A2.563,2.563,0,0,0,26.485,7.83h3.58V32.642H26.643V43.765H6.109V7.83Zm23.8,26.523H36.91v1.711H33.488Zm0-27.379V32.642H31.776V7.83a1.713,1.713,0,0,0-1.711-1.711H26.643V4.407h4.278A2.57,2.57,0,0,1,33.488,6.974ZM11.242,3.552A.856.856,0,0,1,12.1,2.7H24.076a.856.856,0,0,1,.856.856V6.974a.856.856,0,0,1-.856.856H12.1a.856.856,0,0,1-.856-.856ZM5.253,47.187A2.57,2.57,0,0,1,2.686,44.62V6.974A2.57,2.57,0,0,1,5.253,4.407H9.531V6.119H6.109A1.713,1.713,0,0,0,4.4,7.83V43.765a1.713,1.713,0,0,0,1.711,1.711H26.643v1.711Zm24.934,2.567H29.21a.856.856,0,0,1-.856-.856v-.856h2.894A3.409,3.409,0,0,0,30.187,49.754Zm3.3,2.567A1.711,1.711,0,1,1,35.2,50.609,1.713,1.713,0,0,1,33.488,52.321Zm10.389-2.567H36.789a3.4,3.4,0,0,0-1.061-1.711h9.21a3.409,3.409,0,0,0-1.061,1.711Zm3.3,2.567a1.711,1.711,0,1,1,1.711-1.711A1.713,1.713,0,0,1,47.177,52.321Zm4.278-2.567h-.977a3.4,3.4,0,0,0-1.061-1.711h2.894V48.9A.856.856,0,0,1,51.455,49.754Zm.856-3.422H43.755V37.776h6.417l2.139,2.852Z" transform="translate(-0.975 -0.985)"/><path d="M19.975,12.985H31.1V14.7H19.975Z" transform="translate(-3.719 -2.718)"/><path d="M30.975,16.985h1.711V18.7H30.975Z" transform="translate(-5.307 -3.295)"/><path d="M19.975,16.985h7.7V18.7h-7.7Z" transform="translate(-3.719 -3.295)"/><path d="M19.975,20.985H31.1V22.7H19.975Z" transform="translate(-3.719 -3.873)"/><path d="M16.4,25.412l-1.369-1.026-4.542,6.055L9.478,29.427l-1.21,1.21,2.409,2.409Z" transform="translate(-2.028 -4.364)"/><path d="M19.975,24.985H31.1V26.7H19.975Z" transform="translate(-3.719 -4.451)"/><path d="M30.975,28.985h1.711V30.7H30.975Z" transform="translate(-5.307 -5.028)"/><path d="M19.975,28.985h7.7V30.7h-7.7Z" transform="translate(-3.719 -5.028)"/><path d="M19.975,32.985H31.1V34.7H19.975Z" transform="translate(-3.719 -5.606)"/><path d="M8.975,47.541H19.242V38.985H8.975ZM10.686,40.7h6.845V45.83H10.686Z" transform="translate(-2.13 -6.472)"/><path d="M22.975,38.985h5.134V40.7H22.975Z" transform="translate(-4.152 -6.472)"/><path d="M22.975,42.985h5.134V44.7H22.975Z" transform="translate(-4.152 -7.05)"/><path d="M22.975,46.985h5.134V48.7H22.975Z" transform="translate(-4.152 -7.628)"/></g></g></g></svg>