<svg xmlns="http://www.w3.org/2000/svg" width="99.051" height="99.051" viewBox="0 0 99.051 99.051"><g transform="translate(-842 -4202.114)"><g transform="translate(849.173 4209.114)"><g transform="translate(-7.173 -7)"><circle cx="49.525" cy="49.525" r="49.525" fill="#91b3fa" opacity="0.45"/><circle cx="40.402" cy="40.402" r="40.402" transform="translate(9.123 9.123)" fill="#fff"/></g></g><g transform="translate(867.773 4227.303)"><path d="M36.933,8.04V30.4L22.25,35.864l-2.883,1a1.126,1.126,0,0,1-.8,0L1.833,31.07A1.242,1.242,0,0,1,1,29.894V8.04a1.257,1.257,0,0,1,.261-.76,1.188,1.188,0,0,1,.572-.417l16.734-5.79a1.126,1.126,0,0,1,.8,0L36.1,6.864a1.188,1.188,0,0,1,.572.417,1.257,1.257,0,0,1,.261.76Z" transform="translate(-0.183 -0.181)" fill="#c1966b"/><path d="M36.731,7.28,19.025,13.389,1.32,7.28a1.188,1.188,0,0,1,.572-.417l16.734-5.79a1.126,1.126,0,0,1,.8,0l16.734,5.79A1.188,1.188,0,0,1,36.731,7.28Z" transform="translate(-0.242 -0.181)" fill="#a37851"/><path d="M40.967,9.449V31.81L26.283,37.273l-2.883,1a1.154,1.154,0,0,1-.4.074V14.8L40.705,8.69a1.257,1.257,0,0,1,.261.76Z" transform="translate(-4.217 -1.591)" fill="#8c6342"/><circle cx="13.741" cy="13.741" r="13.741" transform="translate(21.235 21.235)" fill="#46bc65"/><path d="M25.322,3.07,8,9.546v8.632a.716.716,0,0,0,1.037.637l1.307-.67a.714.714,0,0,1,.882.18L12.459,19.8a.714.714,0,0,0,1.258-.457V11.514L31.03,5.046Z" transform="translate(-1.467 -0.561)" fill="#f2e5b0"/><path d="M8,9.546,25.322,3.07,31.03,5.046,13.717,11.514Z" transform="translate(-1.467 -0.561)" fill="#e0d39d"/><g transform="translate(0 0)"><path d="M45.257,26.834a.817.817,0,0,0-.186,1.143,12.259,12.259,0,1,1-1.851-2.046A.817.817,0,0,0,44.3,24.707a13.862,13.862,0,0,0-6.733-3.254V7.856a2.06,2.06,0,0,0-1.382-1.949L19.471.124A1.913,1.913,0,0,0,18.116.118L1.383,5.907A2.059,2.059,0,0,0,0,7.856V29.71a2.06,2.06,0,0,0,1.382,1.949L18.1,37.441a1.979,1.979,0,0,0,.693.127,1.867,1.867,0,0,0,.662-.12l1.9-.653A13.878,13.878,0,1,0,46.4,27.021.817.817,0,0,0,45.257,26.834Zm-10.14-5.6A13.9,13.9,0,0,0,21.233,35.1l-1.633.565V13.79L35.933,8.155V21.27c-.272-.016-.543-.037-.817-.037ZM8.5,16.855l-1.155.591V10.126l4.083,1.409v6.957l-1.04-1.245A1.537,1.537,0,0,0,8.5,16.855Zm.443-7.9L23.867,3.374l3.287,1.138L12.235,10.085Zm20.628-3.6,4.737,1.638-15.53,5.356-4.122-1.421ZM18.67,1.654a.321.321,0,0,1,.245.007l2.532.875L6.523,8.115,3.256,6.989ZM1.633,29.71V8.156L5.717,9.564v8.051a1.534,1.534,0,0,0,2.226,1.364l1.239-.635,1.185,1.419a1.509,1.509,0,0,0,1.161.546,1.539,1.539,0,0,0,.532-.095,1.512,1.512,0,0,0,1.006-1.432V12.1l4.9,1.691V35.667L1.916,30.114a.425.425,0,0,1-.283-.4Z" transform="translate(0 0.003)" fill="#262626"/><path d="M51.527,47.474a3.375,3.375,0,0,0-.026-3.43L49.938,41.4a.817.817,0,1,0-1.406.831L50.1,44.875a1.758,1.758,0,0,1,.014,1.789,1.691,1.691,0,0,1-1.477.869H45.773l.239-.238a.817.817,0,1,0-1.154-1.156l-1.637,1.633a.817.817,0,0,0,0,1.156l1.637,1.633a.817.817,0,1,0,1.154-1.156l-.245-.238h2.858a3.307,3.307,0,0,0,2.9-1.693Z" transform="translate(-7.88 -7.514)" fill="#262626"/><path d="M41.946,32.633a1.642,1.642,0,0,1,1.492.834l1.446,2.466-.334-.087a.817.817,0,1,0-.415,1.579l2.24.588a.833.833,0,0,0,.208.027.817.817,0,0,0,.789-.608l.59-2.234a.817.817,0,1,0-1.579-.417l-.087.327L44.85,32.641A3.3,3.3,0,0,0,41.968,31h-.034a3.4,3.4,0,0,0-2.962,1.753l-1.5,2.679a.817.817,0,0,0,1.426.8l1.5-2.678a1.78,1.78,0,0,1,1.549-.919Z" transform="translate(-6.851 -5.681)" fill="#262626"/><path d="M32.447,47.11a3.389,3.389,0,0,0,2.978,1.729H38.5a.817.817,0,0,0,0-1.633H35.424a1.779,1.779,0,0,1-1.56-.9,1.681,1.681,0,0,1,0-1.7l1.456-2.461.087.333a.817.817,0,1,0,1.58-.408l-.577-2.238a.817.817,0,0,0-.993-.586l-2.243.577a.817.817,0,1,0,.408,1.583l.333-.082-1.453,2.455a3.292,3.292,0,0,0-.016,3.339Z" transform="translate(-5.866 -7.186)" fill="#262626"/></g></g></g></svg>