<svg xmlns="http://www.w3.org/2000/svg" width="99.051" height="99.051" viewBox="0 0 99.051 99.051"><g transform="translate(33.774 10174.096)"><g transform="translate(-33.774 -10174.096)"><circle cx="49.525" cy="49.525" r="49.525" fill="#57dbd8" opacity="0.45"/><circle cx="40.402" cy="40.402" r="40.402" transform="translate(9.123 9.123)" fill="#fff"/></g><g transform="translate(-8.136 -10147.139)"><g transform="translate(0 0)"><g transform="translate(0.55 0.55)"><path d="M39.281,14.923v29.5a1.533,1.533,0,0,1-1.533,1.533H14.923a1.533,1.533,0,0,1-1.533-1.533v-29.5a1.533,1.533,0,0,1,1.533-1.533H37.748a1.533,1.533,0,0,1,1.533,1.533Z" transform="translate(-13.39 -13.39)" fill="#d2e5ea"/><path d="M39.283,14.922v29.5a1.534,1.534,0,0,1-1.532,1.532H35.1V21.475a1.531,1.531,0,0,0-1.532-1.532H13.39v-5.02a1.534,1.534,0,0,1,1.532-1.532H37.75a1.534,1.534,0,0,1,1.532,1.532Z" transform="translate(-13.39 -13.39)" opacity="0.12"/><g transform="translate(5.02 22.247)"><path d="M70.53,258.524l.065,6.634H68.774l-.065-6.634Z" transform="translate(-68.709 -258.524)" fill="#f7d042"/><path d="M146.374,258.524l.064,6.634h-1.785l-.064-6.634Z" transform="translate(-137.703 -258.524)" fill="#f7d042"/><path d="M221.292,258.524l.064,6.634h-1.8l-.064-6.634Z" transform="translate(-205.813 -258.524)" fill="#f7d042"/></g><path d="M57.5,57.576h6.653v6.653H57.5Z" transform="translate(-53.501 -53.566)" fill="#656158"/><path d="M347.852,346.364v12.282a.839.839,0,0,1-.871.8H333.676a.839.839,0,0,1-.871-.8V346.364a.839.839,0,0,1,.871-.8h13.306A.839.839,0,0,1,347.852,346.364Z" transform="translate(-303.817 -315.415)" fill="#d7914c"/><path d="M347.858,356.139v2.514a.842.842,0,0,1-.872.806h-13.3a.839.839,0,0,1-.872-.806V346.372a.836.836,0,0,1,.872-.8h4.531v9.767a.835.835,0,0,0,.867.8Z" transform="translate(-303.823 -315.425)" opacity="0.12"/><path d="M396.569,345.56v6.366l-2.122-1.865-2.122,1.865V345.56Z" transform="translate(-357.936 -315.415)" fill="#d2e5ea"/></g><path d="M9.408,40.993H32.234a2.085,2.085,0,0,0,2.083-2.083V9.408a2.085,2.085,0,0,0-2.083-2.083H9.408A2.085,2.085,0,0,0,7.325,9.408v29.5a2.085,2.085,0,0,0,2.083,2.083ZM8.426,9.408a.983.983,0,0,1,.982-.982H32.234a.983.983,0,0,1,.982.982v29.5a.983.983,0,0,1-.982.982H9.408a.983.983,0,0,1-.982-.982Z" transform="translate(-7.325 -7.325)"/><path d="M175.88,59.9h7.192a.55.55,0,0,0,0-1.1H175.88a.55.55,0,0,0,0,1.1Z" transform="translate(-160.083 -54.126)"/><path d="M175.88,92.918h7.192a.55.55,0,1,0,0-1.1H175.88a.55.55,0,1,0,0,1.1Z" transform="translate(-160.083 -84.149)"/><path d="M175.88,125.936h7.192a.55.55,0,1,0,0-1.1H175.88a.55.55,0,0,0,0,1.1Z" transform="translate(-160.083 -114.171)"/><path d="M65.014,252.458h-1.82a.551.551,0,0,0-.551.556l.065,6.634a.551.551,0,0,0,.55.545H65.08a.551.551,0,0,0,.551-.556L65.565,253A.551.551,0,0,0,65.014,252.458Zm-1.21,6.634-.054-5.533h.719l.054,5.533Z" transform="translate(-57.623 -230.212)"/><path d="M41.76,252.456a.551.551,0,0,0-.544.557l.083,6.634a.55.55,0,0,0,.55.543h.007a.55.55,0,0,0,.544-.557L42.317,253A.551.551,0,0,0,41.76,252.456Z" transform="translate(-38.141 -230.21)"/><path d="M140.859,252.458h-1.785a.551.551,0,0,0-.551.556l.064,6.634a.551.551,0,0,0,.55.545h1.785a.551.551,0,0,0,.551-.556L141.409,253A.551.551,0,0,0,140.859,252.458Zm-1.176,6.634-.053-5.533h.684l.053,5.533Z" transform="translate(-126.616 -230.212)"/><path d="M215.776,252.458h-1.8a.551.551,0,0,0-.551.556l.064,6.634a.551.551,0,0,0,.55.545h1.8a.551.551,0,0,0,.551-.556L216.327,253A.551.551,0,0,0,215.776,252.458Zm-1.186,6.634-.053-5.533h.694l.053,5.533Z" transform="translate(-194.726 -230.212)"/><path d="M185,252.456a.551.551,0,0,0-.544.557l.083,6.634a.55.55,0,0,0,.55.543h.007a.55.55,0,0,0,.544-.557L185.561,253A.546.546,0,0,0,185,252.456Z" transform="translate(-168.385 -230.21)"/><path d="M257.81,253.014l.083,6.634a.55.55,0,0,0,.55.543h.007a.55.55,0,0,0,.544-.557L258.91,253a.55.55,0,1,0-1.1.014Z" transform="translate(-235.077 -230.21)"/><path d="M107.4,252.456a.551.551,0,0,0-.544.557l.083,6.634a.55.55,0,0,0,.55.543h.007a.55.55,0,0,0,.544-.557L107.955,253A.554.554,0,0,0,107.4,252.456Z" transform="translate(-97.822 -230.21)"/><path d="M37.2,214.619H56.975a.55.55,0,1,0,0-1.1H37.2a.55.55,0,1,0,0,1.1Z" transform="translate(-33.986 -194.805)"/><path d="M37.2,175.183H56.975a.55.55,0,0,0,0-1.1H37.2a.55.55,0,0,0,0,1.1Z" transform="translate(-33.986 -158.948)"/><path d="M51.988,59.264h6.653a.55.55,0,0,0,.55-.55V52.061a.55.55,0,0,0-.55-.55H51.988a.55.55,0,0,0-.55.55v6.653A.55.55,0,0,0,51.988,59.264Zm.55-6.653h5.552v5.552H52.539Z" transform="translate(-47.435 -47.501)"/><path d="M341.467,339.494H328.161a1.391,1.391,0,0,0-1.421,1.354V353.13a1.391,1.391,0,0,0,1.421,1.354h13.306a1.391,1.391,0,0,0,1.421-1.354V340.848A1.391,1.391,0,0,0,341.467,339.494Zm-8.224,1.1h3.143v4.6l-1.208-1.062a.551.551,0,0,0-.727,0l-1.208,1.062v-4.6Zm8.545,12.535a.3.3,0,0,1-.32.253H328.161a.3.3,0,0,1-.32-.253V340.848a.3.3,0,0,1,.32-.253h3.98v5.816a.551.551,0,0,0,.914.414l1.759-1.546,1.759,1.546a.551.551,0,0,0,.914-.414v-5.816h3.98a.3.3,0,0,1,.32.253Z" transform="translate(-297.752 -309.349)"/></g></g></g></svg>