<svg xmlns="http://www.w3.org/2000/svg" width="99.051" height="99.051" viewBox="0 0 99.051 99.051"><g transform="translate(-842 -4355.228)"><g transform="translate(849.173 4362.228)"><g transform="translate(-7.173 -7)"><circle cx="49.525" cy="49.525" r="49.525" fill="#91b3fa" opacity="0.45"/><circle cx="40.402" cy="40.402" r="40.402" transform="translate(9.123 9.123)" fill="#fff"/></g></g><g transform="translate(872.352 4382.884)"><path d="M130.76,15.11V39.739c0,.049,0,.1,0,.148a3.18,3.18,0,0,1-3.177,3.032H109.7a3.18,3.18,0,0,1-3.18-3.179V11.224a3.175,3.175,0,0,1,3.18-3.18h14.2a3.17,3.17,0,0,1,1.381.316c.859.413,1.1.936,2.645,2.514,1.776,1.928,2.2,2.126,2.562,2.961A3.145,3.145,0,0,1,130.76,15.11Z" transform="translate(-97.884 -7.388)" fill="#ffc477"/><path d="M158.463,15.109V39.738c0,.049,0,.1,0,.148a3.19,3.19,0,0,1-.718.081H139.865a3.18,3.18,0,0,1-3.18-3.179V8.272c0-.05,0-.1,0-.148a3.194,3.194,0,0,1,.718-.081h14.2a3.185,3.185,0,0,1,2.324,1.01l1.7,1.821,1.949,2.039a3.2,3.2,0,0,1,.882,2.2Z" transform="translate(-125.587 -7.387)" fill="#ffdaaa"/><path d="M271.079,179.39v17.878a4.494,4.494,0,0,1-4.494,4.494H254.908a4.494,4.494,0,0,1-4.494-4.494V179.39a4.492,4.492,0,0,1,4.494-4.494h11.677A4.493,4.493,0,0,1,271.079,179.39Z" transform="translate(-230.045 -160.639)" fill="#4cba68"/><path d="M292.013,179.39v17.878a2.306,2.306,0,0,1-2.636,3.018H277.7a4.494,4.494,0,0,1-4.494-4.494V177.914a2.306,2.306,0,0,1,2.636-3.018h11.677A4.493,4.493,0,0,1,292.013,179.39Z" transform="translate(-250.979 -160.639)" fill="#7ccc92"/><path d="M359.483,366.641v2.1a.672.672,0,0,1-.671.672h-2.1a.672.672,0,0,1-.672-.672v-2.1a.672.672,0,0,1,.672-.672h2.1A.672.672,0,0,1,359.483,366.641Z" transform="translate(-327.06 -336.136)" fill="#2c733f"/><path d="M302.785,208.527v2.25a1.449,1.449,0,0,1-1.449,1.449h-11.59a1.449,1.449,0,0,1-1.449-1.449v-2.25a1.449,1.449,0,0,1,1.449-1.449h11.59A1.449,1.449,0,0,1,302.785,208.527Z" transform="translate(-264.84 -190.197)" fill="#1e81ce"/><path d="M330.488,208.527v2.25a1.449,1.449,0,0,1-1.449,1.449h-9.132a1.449,1.449,0,0,1-1.449-1.449v-2.25a1.449,1.449,0,0,1,1.449-1.449h9.132A1.449,1.449,0,0,1,330.488,208.527Z" transform="translate(-292.542 -190.197)" fill="#3d9ae2"/><g transform="translate(23.457 24.342)"><path d="M291.742,366.641v2.1a.672.672,0,0,1-.672.672h-2.1a.672.672,0,0,1-.672-.672v-2.1a.672.672,0,0,1,.672-.672h2.1A.672.672,0,0,1,291.742,366.641Z" transform="translate(-288.297 -360.478)" fill="#2c733f"/><path d="M359.483,299.28v2.1a.672.672,0,0,1-.671.672h-2.1a.672.672,0,0,1-.672-.672v-2.1a.672.672,0,0,1,.672-.672h2.1A.672.672,0,0,1,359.483,299.28Z" transform="translate(-350.517 -298.608)" fill="#2c733f"/></g><path d="M428.04,299.28v2.1a.672.672,0,0,1-.672.672h-2.1a.672.672,0,0,1-.672-.672v-2.1a.672.672,0,0,1,.672-.672h2.1A.672.672,0,0,1,428.04,299.28Z" transform="translate(-390.028 -274.266)" fill="#ee8700"/><g transform="translate(23.457 24.342)"><path d="M291.742,299.28v2.1a.672.672,0,0,1-.672.672h-2.1a.672.672,0,0,1-.672-.672v-2.1a.672.672,0,0,1,.672-.672h2.1A.672.672,0,0,1,291.742,299.28Z" transform="translate(-288.297 -298.608)" fill="#2c733f"/><path d="M359.483,430.7v2.1a.672.672,0,0,1-.671.672h-2.1a.672.672,0,0,1-.672-.672v-2.1a.672.672,0,0,1,.672-.671h2.1A.672.672,0,0,1,359.483,430.7Z" transform="translate(-350.517 -419.318)" fill="#2c733f"/><path d="M291.742,430.7v2.1a.672.672,0,0,1-.672.672h-2.1a.672.672,0,0,1-.672-.672v-2.1a.672.672,0,0,1,.672-.671h2.1A.672.672,0,0,1,291.742,430.7Z" transform="translate(-288.297 -419.318)" fill="#2c733f"/></g><path d="M428.04,366.966v6.521a1.146,1.146,0,0,1-1.146,1.147h-1.152a1.146,1.146,0,0,1-1.146-1.147v-6.521a1,1,0,0,1,1-1h1.447A1,1,0,0,1,428.04,366.966Z" transform="translate(-390.028 -336.135)" fill="#ee8700"/><g transform="translate(23.457 24.342)"><path d="M359.483,366.641v.625a.672.672,0,0,1-.671.672h-2.1a.672.672,0,0,1-.672-.672v-.625a.672.672,0,0,1,.672-.672h2.1A.672.672,0,0,1,359.483,366.641Z" transform="translate(-350.517 -360.478)" fill="#317f46"/><path d="M291.742,366.641v.625a.672.672,0,0,1-.672.672h-2.1a.672.672,0,0,1-.672-.672v-.625a.672.672,0,0,1,.672-.672h2.1A.672.672,0,0,1,291.742,366.641Z" transform="translate(-288.297 -360.478)" fill="#317f46"/><path d="M359.483,299.28v.625a.672.672,0,0,1-.671.672h-2.1a.672.672,0,0,1-.672-.672v-.625a.672.672,0,0,1,.672-.672h2.1A.672.672,0,0,1,359.483,299.28Z" transform="translate(-350.517 -298.608)" fill="#317f46"/></g><path d="M428.04,299.28v.625a.672.672,0,0,1-.672.672h-2.1a.672.672,0,0,1-.672-.672v-.625a.672.672,0,0,1,.672-.672h2.1A.672.672,0,0,1,428.04,299.28Z" transform="translate(-390.028 -274.266)" fill="#ff9811"/><g transform="translate(23.457 24.342)"><path d="M291.742,299.28v.625a.672.672,0,0,1-.672.672h-2.1a.672.672,0,0,1-.672-.672v-.625a.672.672,0,0,1,.672-.672h2.1A.672.672,0,0,1,291.742,299.28Z" transform="translate(-288.297 -298.608)" fill="#317f46"/><path d="M359.483,430.7v.625a.672.672,0,0,1-.671.672h-2.1a.672.672,0,0,1-.672-.672V430.7a.672.672,0,0,1,.672-.671h2.1A.672.672,0,0,1,359.483,430.7Z" transform="translate(-350.517 -419.318)" fill="#317f46"/><path d="M291.742,430.7v.625a.672.672,0,0,1-.672.672h-2.1a.672.672,0,0,1-.672-.672V430.7a.672.672,0,0,1,.672-.671h2.1A.672.672,0,0,1,291.742,430.7Z" transform="translate(-288.297 -419.318)" fill="#317f46"/></g><path d="M428.04,366.966v5.046a1.146,1.146,0,0,1-1.146,1.147h-1.152a1.146,1.146,0,0,1-1.146-1.147v-5.046a1,1,0,0,1,1-1h1.447A1,1,0,0,1,428.04,366.966Z" transform="translate(-390.028 -336.135)" fill="#ff9811"/><path d="M341.868,17.4h-3.985a1.222,1.222,0,0,1-1.222-1.222V11.924a3.175,3.175,0,0,1,.943.693l1.7,1.821,1.949,2.039A3.148,3.148,0,0,1,341.868,17.4Z" transform="translate(-309.262 -10.952)" fill="#ffb655"/><path d="M82.11,463.208a1.561,1.561,0,0,1-1.557,1.557h-9.54a1.557,1.557,0,0,1,0-3.114h9.54A1.562,1.562,0,0,1,82.11,463.208Z" transform="translate(-63.839 -424.018)" fill="#aa6100"/><path d="M82.11,425a1.561,1.561,0,0,1-1.557,1.557h-9.54a1.557,1.557,0,0,1,0-3.114h9.54A1.562,1.562,0,0,1,82.11,425Z" transform="translate(-63.839 -388.927)" fill="#cc7400"/><path d="M82.11,386.8a1.561,1.561,0,0,1-1.557,1.557h-9.54a1.557,1.557,0,0,1,0-3.114h9.54A1.562,1.562,0,0,1,82.11,386.8Z" transform="translate(-63.839 -353.838)" fill="#ee8700"/><path d="M82.11,348.593a1.561,1.561,0,0,1-1.557,1.557h-9.54a1.562,1.562,0,0,1-1.557-1.557,1.561,1.561,0,0,1,1.557-1.557h9.54A1.562,1.562,0,0,1,82.11,348.593Z" transform="translate(-63.839 -318.746)" fill="#ff9811"/><path d="M80.553,311.948h-9.54a1.562,1.562,0,0,1-1.557-1.557h0a1.562,1.562,0,0,1,1.557-1.557h9.54a1.562,1.562,0,0,1,1.557,1.557h0A1.562,1.562,0,0,1,80.553,311.948Z" transform="translate(-63.839 -283.658)" fill="#ffa733"/><path d="M20.757,382.475a5.067,5.067,0,0,0-5.28-4.852H13.492a5.073,5.073,0,0,0,.434,10.138h1.551v0c.142.006.284.007.428,0a5.158,5.158,0,0,0,.943-.129,5.074,5.074,0,0,0,3.91-4.756v-.006C20.763,382.739,20.763,382.608,20.757,382.475Z" transform="translate(-7.964 -346.836)" fill="#cc7400"/><path d="M69.38,384.372v.006a5.073,5.073,0,0,1-3.91,4.756,5.076,5.076,0,0,1-3.905-4.722c0-.011,0-.022,0-.034v-.006a5.075,5.075,0,0,1,3.909-5.117,5.075,5.075,0,0,1,3.907,4.723C69.385,384.111,69.385,384.242,69.38,384.372Z" transform="translate(-56.587 -348.339)" fill="#ee8700"/><path d="M37.089,13.643H34.08V7.722a3.845,3.845,0,0,0-1.063-2.65L31.073,3.038c-1.65-1.7-1.858-2.18-2.841-2.657A3.844,3.844,0,0,0,26.568,0h-14.2A3.84,3.84,0,0,0,8.532,3.836V24.52H7.723a2.211,2.211,0,0,0-1.57,3.77,2.2,2.2,0,0,0-.643,1.557,2.27,2.27,0,0,0,.043.438,5.578,5.578,0,0,0,.8,11.122l10.912,0a2.211,2.211,0,0,0,1.57-3.77,2.2,2.2,0,0,0,.639-1.447h.83v.443a5.114,5.114,0,0,0,5.108,5.108H37.089A5.114,5.114,0,0,0,42.2,36.629V18.751A5.114,5.114,0,0,0,37.089,13.643ZM28.6,2.319,31.869,5.77l0,0h0l0,0h0l0,0,0,0,0,0,0,0,0,0H28.6V2.319ZM7.723,25.831h9.54a.9.9,0,0,1,0,1.8H7.723a.9.9,0,1,1,0-1.8Zm0,3.114h9.54a.9.9,0,1,1,0,1.8H10.674a5.34,5.34,0,0,0-.83-.3,5.527,5.527,0,0,0-1.311-.193c-.129,0-.257,0-.386,0H6.923a.886.886,0,0,1-.1-.412A.9.9,0,0,1,7.723,28.946Zm10.441,4.016a.9.9,0,0,1-.9.9H13.594a5.515,5.515,0,0,0-1.113-1.8h4.782A.9.9,0,0,1,18.165,32.962ZM4.534,31.785A5.658,5.658,0,0,0,3.5,33.109H2.737A4.33,4.33,0,0,1,4.534,31.785ZM2.04,34.338h.955a5.66,5.66,0,0,0-.179.983H1.807A4.308,4.308,0,0,1,2.04,34.338Zm.106,3.25a4.3,4.3,0,0,1-.308-1.038h1a4.948,4.948,0,0,0,.234,1.038Zm.818,1.229c.4,0,.636,0,.691,0a5.537,5.537,0,0,0,.882,1.067A4.331,4.331,0,0,1,2.963,38.817Zm5.594,1.361a4.349,4.349,0,1,1,2.755-7.549A4.346,4.346,0,0,1,8.558,40.179Zm8.706-.087H11.971a5.617,5.617,0,0,0,1.409-1.8h3.883a.9.9,0,1,1,0,1.8Zm.894-3.906a.9.9,0,0,1-.894.792H13.833a5.633,5.633,0,0,0,.079-1.8h3.351A.9.9,0,0,1,18.158,36.186ZM20.3,34.874H19.12a2.176,2.176,0,0,0-.286-.356,2.208,2.208,0,0,0,0-3.114,2.208,2.208,0,0,0,0-3.114,2.215,2.215,0,0,0-1.57-3.77H9.844V3.836a2.528,2.528,0,0,1,2.524-2.524H27.293V6.448a.655.655,0,0,0,.656.656h4.742c.137.531.052.356.078,6.539H25.411A5.114,5.114,0,0,0,20.3,18.751V34.874Zm20.665,1.755a3.883,3.883,0,0,1-3.879,3.879H25.412a3.884,3.884,0,0,1-3.879-3.879V18.751a3.884,3.884,0,0,1,3.879-3.879H37.089a3.883,3.883,0,0,1,3.879,3.879V36.629Z" transform="translate(-0.549)"/><path d="M285.051,204.686h-2.23a.837.837,0,0,1-.834-.834V201.6a.837.837,0,0,1,.834-.834h11.59a.835.835,0,0,1,.834.834v2.25a.835.835,0,0,1-.834.834H287.7a.615.615,0,1,0,0,1.229h6.71a2.066,2.066,0,0,0,2.064-2.064V201.6a2.066,2.066,0,0,0-2.064-2.064h-11.59a2.064,2.064,0,0,0-2.064,2.064v2.25a2.064,2.064,0,0,0,2.064,2.064h2.23a.615.615,0,1,0,0-1.229Z" transform="translate(-257.915 -183.272)"/><path d="M282.044,363.1h2.1a1.288,1.288,0,0,0,1.287-1.287v-2.1a1.288,1.288,0,0,0-1.287-1.287h-2.1a1.288,1.288,0,0,0-1.287,1.287v2.1A1.288,1.288,0,0,0,282.044,363.1Zm-.057-3.386a.058.058,0,0,1,.057-.057h2.1a.058.058,0,0,1,.057.057v2.1a.058.058,0,0,1-.057.057h-2.1a.058.058,0,0,1-.057-.057Z" transform="translate(-257.915 -329.21)"/><path d="M420.442,291.068h-2.1a1.288,1.288,0,0,0-1.287,1.287v2.1a1.288,1.288,0,0,0,1.287,1.287h2.1a1.288,1.288,0,0,0,1.287-1.287v-2.1A1.288,1.288,0,0,0,420.442,291.068Zm.057,3.386a.057.057,0,0,1-.057.057h-2.1a.058.058,0,0,1-.057-.057c.025-2.078-.053-2.157.057-2.157h2.1a.057.057,0,0,1,.057.057Z" transform="translate(-383.103 -267.34)"/><path d="M282.044,295.741h2.1a1.288,1.288,0,0,0,1.287-1.287v-2.1a1.288,1.288,0,0,0-1.287-1.287h-2.1a1.288,1.288,0,0,0-1.287,1.287v2.1A1.288,1.288,0,0,0,282.044,295.741Zm-.057-3.386a.058.058,0,0,1,.057-.057h2.1a.058.058,0,0,1,.057.057v2.1a.058.058,0,0,1-.057.057h-2.1a.058.058,0,0,1-.057-.057Z" transform="translate(-257.915 -267.34)"/><path d="M285.083,422.924a1.286,1.286,0,0,0-.963-.434h-2.1a1.283,1.283,0,0,0-.962.434,1.758,1.758,0,0,0-.325,1.311v1.642a1.288,1.288,0,0,0,1.287,1.287h2.1a1.288,1.288,0,0,0,1.287-1.287v-1.642A1.773,1.773,0,0,0,285.083,422.924Zm-.963,3.01c-2.075-.025-2.158.053-2.158-.057,0-2.224-.025-2.157.057-2.157h2.1c.1,0,.039.14.057.516A8.738,8.738,0,0,1,284.12,425.935Z" transform="translate(-257.89 -388.05)"/><path d="M420.115,358.428h-1.447a1.615,1.615,0,0,0-1.613,1.613v6.521a1.763,1.763,0,0,0,1.76,1.761h1.152a1.763,1.763,0,0,0,1.76-1.761v-6.521A1.615,1.615,0,0,0,420.115,358.428Zm.384,8.134a.532.532,0,0,1-.531.532h-1.152a.532.532,0,0,1-.531-.532v-6.521a.384.384,0,0,1,.384-.384h1.447a.384.384,0,0,1,.384.384v6.521Z" transform="translate(-383.102 -329.209)"/><path d="M165.311,171.506h0c-.749-.275-1.291-.474-1.291-1.169,0-.633.42-.954,1.249-.954.88,0,1.117.387,1.427.387a.59.59,0,0,0,.524-.606c0-.512-.835-.766-1.582-.833v-.462a.582.582,0,0,0-1.165,0v.535a1.905,1.905,0,0,0-1.582,1.993c0,1.431,1.053,1.826,1.9,2.145.829.311,1.483.557,1.483,1.5,0,.782-.434,1.178-1.29,1.178-1.253,0-1.265-.846-1.742-.846a.614.614,0,0,0-.534.606c0,.484.721,1.121,1.766,1.286v.446a.582.582,0,0,0,1.165,0v-.458a2.1,2.1,0,0,0,1.766-2.273C167.4,172.275,166.243,171.848,165.311,171.506Z" transform="translate(-149.488 -153.651)"/><path d="M351.863,422.491h-2.1a1.286,1.286,0,0,0-.963.434,1.765,1.765,0,0,0-.324,1.311v1.642a1.288,1.288,0,0,0,1.287,1.287h2.1a1.288,1.288,0,0,0,1.286-1.287v-2.1a1.288,1.288,0,0,0-1.286-1.286Zm0,3.444c-2.075-.025-2.158.053-2.158-.057v-2.1a.057.057,0,0,1,.057-.057h2.1a.057.057,0,0,1,.057.057C351.9,425.857,351.972,425.935,351.863,425.935Z" transform="translate(-320.112 -388.05)"/><path d="M351.886,291.068h-2.1a1.288,1.288,0,0,0-1.287,1.287v2.1a1.288,1.288,0,0,0,1.287,1.287h2.1a1.267,1.267,0,0,0,.468-.089,1.288,1.288,0,0,0,.818-1.2v-2.1A1.288,1.288,0,0,0,351.886,291.068Zm.057,3.386a.057.057,0,0,1-.057.057h-2.1a.058.058,0,0,1-.057-.057v-2.1c0-.111.076-.033,2.158-.057a.057.057,0,0,1,.057.057v2.1Z" transform="translate(-320.134 -267.34)"/><path d="M352.354,358.517a1.267,1.267,0,0,0-.468-.089h-2.1a1.288,1.288,0,0,0-1.287,1.287v2.1a1.288,1.288,0,0,0,1.287,1.287h2.1a1.288,1.288,0,0,0,1.286-1.287v-2.1A1.288,1.288,0,0,0,352.354,358.517Zm-.411,3.3a.057.057,0,0,1-.057.057h-2.1a.058.058,0,0,1-.057-.057v-2.1a.058.058,0,0,1,.057-.057h2.1a.057.057,0,0,1,.057.057Z" transform="translate(-320.134 -329.209)"/><path d="M320.662,104.271h1.544a.615.615,0,0,0,0-1.229h-1.544a.615.615,0,1,0,0,1.229Z" transform="translate(-294.002 -94.642)"/><path d="M156.785,104.271h10.9a.615.615,0,1,0,0-1.229h-10.9a.615.615,0,1,0,0,1.229Z" transform="translate(-143.484 -94.642)"/><path d="M158.738,141.7a.615.615,0,1,0,0-1.229h-1.954a.615.615,0,1,0,0,1.229Z" transform="translate(-143.484 -129.021)"/><path d="M222.019,141.087a.615.615,0,0,0-.615-.615H210.914a.615.615,0,1,0,0,1.229H221.4A.615.615,0,0,0,222.019,141.087Z" transform="translate(-193.2 -129.021)"/><path d="M78.7,400.446c0-.154.057-.2.11-.228a1.056,1.056,0,0,1,.891.06.7.7,0,0,0,.333.1c.606,0,1.086-1.126-.362-1.376v-.039a.623.623,0,1,0-1.246,0v.118a1.4,1.4,0,0,0-.95,1.4c0,1.048.762,1.335,1.318,1.544.53.2.714.286.714.647,0,.226-.061.434-.5.434-.643,0-.566-.508-1.046-.508a.642.642,0,0,0-.594.637c0,.426.443.83,1.06.994v.047a.623.623,0,0,0,1.246,0v-.063a1.54,1.54,0,0,0,1.06-1.577C80.736,400.769,78.7,401.05,78.7,400.446Z" transform="translate(-71.107 -365.87)"/></g></g></svg>