<svg xmlns="http://www.w3.org/2000/svg" width="99.051" height="99.051" viewBox="0 0 99.051 99.051"><g transform="translate(362.722 10176.34)"><g transform="translate(-355.55 -10169.34)"><g transform="translate(-7.173 -7)"><circle cx="49.525" cy="49.525" r="49.525" fill="#57dbd8" opacity="0.45"/><circle cx="40.402" cy="40.402" r="40.402" transform="translate(9.123 9.123)" fill="#fff"/></g></g><g transform="translate(-336.597 -10148.604)"><path d="M17.863,25.863A1.545,1.545,0,0,0,19.4,27.4H11.7a1.545,1.545,0,0,0-1.54,1.54v9.242a1.545,1.545,0,0,0,1.54,1.54H4V12H31.795a12.974,12.974,0,0,0,.7,3.081H19.4a1.545,1.545,0,0,0-1.54,1.54Z" transform="translate(-1.69 -3.209)" fill="#ffeaa7"/><path d="M55.4,41.155H47.7a1.545,1.545,0,0,0,1.54-1.54V30.373a1.545,1.545,0,0,0-1.54-1.54H40a1.545,1.545,0,0,0,1.54-1.54V18.22a12.852,12.852,0,0,0,6.931,5.992A12.852,12.852,0,0,0,55.4,18.22Z" transform="translate(-9.964 -4.639)" fill="#ffeaa7"/><path d="M31.335,10.621H3.54A1.545,1.545,0,0,1,2,9.081V7.54A1.545,1.545,0,0,1,3.54,6H31.266V9.312A12.317,12.317,0,0,0,31.335,10.621Z" transform="translate(-1.23 -1.83)" fill="#fcd770"/><path d="M4,48H47.129v4.621H4Z" transform="translate(-1.69 -11.484)" fill="#ccd1d9"/><g transform="translate(6.161 36.516)"><path d="M54.621,54v6.161H51.54L50,54Z" transform="translate(-18.424 -49.379)" fill="#838f9b"/><path d="M14.391,48A5.391,5.391,0,1,1,9,53.391a4.216,4.216,0,0,1,.062-.77A5.375,5.375,0,0,1,14.391,48Z" transform="translate(-9 -48)" fill="#838f9b"/><path d="M35.721,52.621a4.271,4.271,0,0,1,.062.77,5.439,5.439,0,1,1-.062-.77Z" transform="translate(-12.677 -48)" fill="#838f9b"/></g><ellipse cx="2.31" cy="2.31" rx="2.31" ry="2.31" transform="translate(9.242 39.597)" fill="#e6e9ed"/><ellipse cx="2.31" cy="2.31" rx="2.31" ry="2.31" transform="translate(21.564 39.597)" fill="#e6e9ed"/><path d="M45.863,32H33.54A1.545,1.545,0,0,0,32,33.54v9.242a1.545,1.545,0,0,0,1.54,1.54H45.863a1.545,1.545,0,0,0,1.54-1.54V33.54A1.545,1.545,0,0,0,45.863,32Z" transform="translate(-8.125 -7.806)" fill="#cf9e76"/><path d="M25.863,32H13.54A1.545,1.545,0,0,0,12,33.54v9.242a1.545,1.545,0,0,0,1.54,1.54H25.863a1.545,1.545,0,0,0,1.54-1.54V33.54A1.545,1.545,0,0,0,25.863,32Z" transform="translate(-3.528 -7.806)" fill="#cf9e76"/><path d="M35.863,16H23.54A1.545,1.545,0,0,0,22,17.54v9.242a1.545,1.545,0,0,0,1.54,1.54H35.863a1.545,1.545,0,0,0,1.54-1.54V17.54A1.545,1.545,0,0,0,35.863,16Z" transform="translate(-5.827 -4.129)" fill="#cf9e76"/><path d="M24.161,32v4.621H18V32h6.161Z" transform="translate(-4.907 -7.806)" fill="#e6e9ed"/><path d="M44.161,32v4.621H38V32h6.161Z" transform="translate(-9.504 -7.806)" fill="#e6e9ed"/><path d="M28,16h6.161v4.621H28Z" transform="translate(-7.206 -4.129)" fill="#e6e9ed"/><path d="M56.943,4.31V8.392a12.875,12.875,0,0,1-8.472,12.091,12.852,12.852,0,0,1-6.931-5.992,12.2,12.2,0,0,1-.77-1.71,12.974,12.974,0,0,1-.7-3.081A12.317,12.317,0,0,1,40,8.392V4.31h2.9A7.894,7.894,0,0,0,48.472,2a7.888,7.888,0,0,0,2.557,1.71,7.908,7.908,0,0,0,3.019.6Z" transform="translate(-9.964 -0.911)" fill="#5cd6b3"/><path d="M53.564,10.218a4.551,4.551,0,0,1,.678,2.4,4.63,4.63,0,1,1-.678-2.4Z" transform="translate(-11.113 -2.29)" fill="#e6e9ed"/><path d="M48.75,3.215H45.085a7.07,7.07,0,0,1-5.033-2.085L39.508.586l-.544.545A7.07,7.07,0,0,1,33.93,3.215H30.266v.77H3.31A2.313,2.313,0,0,0,1,6.3v1.54a2.307,2.307,0,0,0,1.54,2.169V42.493H6.391a6.161,6.161,0,1,0,10.223-4.621h4.2a6.157,6.157,0,1,0,10.222,4.621h7.1l1.54,6.161h4.452V42.493h3.081V14.328a13.58,13.58,0,0,0,1.54-6.264ZM39.508,35.562a.771.771,0,0,1-.77.77H26.415a.771.771,0,0,1-.77-.77V26.32a.771.771,0,0,1,.77-.77h2.31v4.621h7.7V25.55h2.31a.771.771,0,0,1,.77.77ZM34.887,28.63H30.266V25.55h4.621ZM31.036,24.01H18.714a.771.771,0,0,1-.77-.77V14a.771.771,0,0,1,.77-.77h2.31v4.621h7.7V13.227H31.29c.155.376.33.741.516,1.1v8.911A.771.771,0,0,1,31.036,24.01ZM14.863,25.55h4.621V28.63H14.863Zm7.7-12.323h4.621v3.081H22.564Zm-3.851-1.54A2.313,2.313,0,0,0,16.4,14v9.242a2.284,2.284,0,0,0,.142.77H11.012A2.313,2.313,0,0,0,8.7,26.32v9.242a2.284,2.284,0,0,0,.142.77H4.081V10.147H30.428a13.454,13.454,0,0,0,.342,1.54ZM2.54,6.3a.771.771,0,0,1,.77-.77H30.266V8.063c0,.182.014.362.022.543H3.31a.771.771,0,0,1-.77-.77Zm1.54,34.657V37.872h4.41a6.16,6.16,0,0,0-1.9,3.081Zm13.093,1.54a4.621,4.621,0,1,1-4.621-4.621A4.626,4.626,0,0,1,17.173,42.493Zm-6.161-6.161a.771.771,0,0,1-.77-.77V26.32a.771.771,0,0,1,.77-.77h2.31v4.621h7.7V25.55h2.31a.771.771,0,0,1,.77.77v9.242a.771.771,0,0,1-.77.77ZM24.875,47.114A4.621,4.621,0,1,1,29.5,42.493,4.626,4.626,0,0,1,24.875,47.114Zm17.714,0H40.879l-1.156-4.621h2.865ZM30.834,40.953a6.16,6.16,0,0,0-1.9-3.081H45.669v3.081Zm14.836-4.621H40.906a2.284,2.284,0,0,0,.142-.77V26.32a2.313,2.313,0,0,0-2.31-2.31H33.2a2.285,2.285,0,0,0,.142-.77V16.682a13.613,13.613,0,0,0,5.9,4.2l.263.1.263-.1a13.609,13.609,0,0,0,5.9-4.2Zm1.54-28.269a12.139,12.139,0,0,1-7.7,11.272,12.139,12.139,0,0,1-7.7-11.272V4.756H33.93A8.592,8.592,0,0,0,39.508,2.72a8.592,8.592,0,0,0,5.577,2.036h2.124Z" transform="translate(-1 -0.586)"/><path d="M49.391,7a5.41,5.41,0,1,0,4.888,3.132L56.1,8.315,55.008,7.226,53.416,8.818A5.372,5.372,0,0,0,49.391,7Zm3.851,5.391a3.9,3.9,0,1,1-.925-2.475l-2.926,2.926-1.766-1.766-1.089,1.089,2.855,2.855,3.685-3.685A3.8,3.8,0,0,1,53.242,12.391Z" transform="translate(-10.883 -2.06)"/><path d="M15.081,57.161A3.081,3.081,0,1,0,12,54.081,3.084,3.084,0,0,0,15.081,57.161Zm0-4.621a1.54,1.54,0,1,1-1.54,1.54A1.542,1.542,0,0,1,15.081,52.54Z" transform="translate(-3.528 -12.173)"/><path d="M31.081,51a3.081,3.081,0,1,0,3.081,3.081A3.084,3.084,0,0,0,31.081,51Zm0,4.621a1.54,1.54,0,1,1,1.54-1.54A1.542,1.542,0,0,1,31.081,55.621Z" transform="translate(-7.206 -12.173)"/><path d="M7,23H8.54v1.54H7Z" transform="translate(-2.379 -5.738)"/><path d="M7,15H8.54v1.54H7Z" transform="translate(-2.379 -3.899)"/><path d="M7,19H8.54v1.54H7Z" transform="translate(-2.379 -4.818)"/><path d="M55,39h1.54v1.54H55Z" transform="translate(-13.412 -9.415)"/><path d="M55,43h1.54v1.54H55Z" transform="translate(-13.412 -10.335)"/><path d="M55,35h1.54v1.54H55Z" transform="translate(-13.412 -8.496)"/></g></g></svg>