<svg xmlns="http://www.w3.org/2000/svg" width="99.051" height="99.051" viewBox="0 0 99.051 99.051"><g transform="translate(-317 -4202.114)"><g transform="translate(324.173 4209.114)"><g transform="translate(-7.173 -7)"><circle cx="49.525" cy="49.525" r="49.525" fill="#57dbd8" opacity="0.45"/><circle cx="40.402" cy="40.402" r="40.402" transform="translate(9.123 9.123)" fill="#fff"/></g></g><g transform="translate(333.866 4220.626)"><g transform="translate(0.896 1.673)"><path d="M13.473,204.974l-5.973,1.7V216.5l10.323-3.361c3.052-.994,6-2.616,6-6.976V198a2.205,2.205,0,0,0-1.9-2.22,2.255,2.255,0,0,0-2.563,2.019l.464-5.175,4.225-5.319c2.82-2.706-.715-6.051-3.319-3.152l-5.776,6.431Z" transform="translate(-7.5 -167.435)" fill="#fdf1e0" fill-rule="evenodd"/><path d="M107.3,224.123l-.464,5.175a2.255,2.255,0,0,1,2.563-2.019l2.96-3.966c1.229-1.646.417-3.446-.834-4.509Z" transform="translate(-94.975 -198.931)" fill="#ffdfb9" fill-rule="evenodd"/><path d="M197,149.866V183.9h34.03v-34.03Zm17.015,26.865a9.851,9.851,0,1,1,9.851-9.851A9.851,9.851,0,0,1,214.015,176.731Z" transform="translate(-174.373 -138.224)" fill="#ffc45c" fill-rule="evenodd"/><ellipse cx="9.851" cy="9.851" rx="9.851" ry="9.851" transform="translate(28.378 20.477) rotate(-8.973)" fill="#fff"/><path d="M197,57.739h10.12V59.53l5.373-3.582-5.373-3.582v1.791H197Z" transform="translate(-174.373 -52.366)" fill="#40a2ff" fill-rule="evenodd"/><path d="M174.5,434.866h39.4v3.582H174.5Z" transform="translate(-154.559 -389.195)" fill="#fff" fill-rule="evenodd"/><path d="M174.5,434.866h2.687v3.582H174.5Z" transform="translate(-154.559 -389.195)" fill="#83f2f8" fill-rule="evenodd"/><path d="M10.187,374.6,7.5,375.37V385.2l2.687-.875Z" transform="translate(-7.5 -336.128)" fill="#ffdfb9" fill-rule="evenodd"/><path d="M197,67.366h2.687v3.582H197Z" transform="translate(-174.373 -65.575)" fill="#0069f8" fill-rule="evenodd"/><path d="M197,149.866h2.687V183.9H197Z" transform="translate(-174.373 -138.224)" fill="#ff8e45" fill-rule="evenodd"/><path d="M257,219.718a9.854,9.854,0,0,0,11.194,9.759,9.851,9.851,0,0,1,0-19.518A9.854,9.854,0,0,0,257,219.718Z" transform="translate(-227.209 -191.061)" fill="#83f2f8" fill-rule="evenodd"/><g transform="translate(52.179 14.328)"><path d="M446.291,177.738H444.5v-1.791h1.791Zm0-3.582H444.5v-1.791h1.791Z" transform="translate(-444.5 -172.365)" fill="#fff"/></g></g><g transform="translate(0 0)"><path d="M19.273,177.765a3.035,3.035,0,0,0-2.233-2.152,3.668,3.668,0,0,0-3.579,1.332l-2.29,2.549,1.332,1.2,2.29-2.549a1.926,1.926,0,0,1,1.833-.786,1.245,1.245,0,0,1,.918.88,1.889,1.889,0,0,1-.719,1.813l-.044.042-4.429,5.576-.488,5.436v.011l-.643,7.165,1.784.16.644-7.172a1.217,1.217,0,0,1,.432-.88,1.629,1.629,0,0,1,1.138-.327,1.315,1.315,0,0,1,1.1,1.33v8.163c0,2.27-.652,4.584-5.384,6.124l-9.15,2.979V200.74L7.7,199.056l1.515-14.7,2.1-2.333-1.333-1.2-2.484,2.766-1.45,14.074L0,199.388v11.736l11.5-3.743c3.083-1,6.621-2.8,6.62-7.828V191.39a3.153,3.153,0,0,0-1.375-2.625L19,185.74a3.914,3.914,0,0,0-.331-5.088A3.377,3.377,0,0,0,19.273,177.765Zm-1.711,6.9-2.687,3.6a3.585,3.585,0,0,0-.975.2l.189-2.107,3.419-4.3A2.135,2.135,0,0,1,17.562,184.668Z" transform="translate(0 -159.149)"/><path d="M205.507,176.395v-34.03H169.687v34.03H167v5.373h34.03v-1.791H168.791v-1.791H206.4v1.791h-3.582v1.791h5.373v-5.373Zm-34.03-32.239h32.239v32.239H171.478Z" transform="translate(-147.06 -129.946)"/><path d="M320.055,264.223h1.791v-3.586h2.626v-1.791h-2.626v-1.661H324.7v-1.791h-4.643Z" transform="translate(-281.84 -229.479)"/><path d="M260.246,202.365a10.746,10.746,0,1,0,10.746,10.746A10.758,10.758,0,0,0,260.246,202.365Zm0,19.7a8.955,8.955,0,1,1,8.955-8.955A8.965,8.965,0,0,1,260.246,222.066Z" transform="translate(-219.709 -182.781)"/><path d="M199.62,48.863l7.883-5.255-7.883-5.255v2.569H189.5v5.373h10.12Zm-8.329-4.36V42.712h10.12V41.7l2.863,1.909-2.863,1.909V44.5Z" transform="translate(-166.873 -38.352)"/></g></g></g></svg>