<svg xmlns="http://www.w3.org/2000/svg" width="99.051" height="99.051" viewBox="0 0 99.051 99.051"><g transform="translate(-1120.824 -1425.283)"><g transform="translate(1120.824 1425.283)"><circle cx="49.525" cy="49.525" r="49.525" fill="#57dbd8" opacity="0.45"/><circle cx="40.402" cy="40.402" r="40.402" transform="translate(9.123 9.123)" fill="#fff"/></g><g transform="translate(1143.527 1449.385)"><path d="M32,56.024H53.564a1.54,1.54,0,0,0,1.54-1.54V37.54A1.54,1.54,0,0,0,53.564,36H32Z" transform="translate(-8.125 -8.889)" fill="#cf9e76"/><path d="M50.1,5.081V12.69a18.354,18.354,0,0,1-8.533,15.5,18.591,18.591,0,0,1-3,1.533l-.023.008-.023-.008c-.524-.208-1.024-.439-1.517-.693a15.6,15.6,0,0,1-1.479-.847,18.294,18.294,0,0,1-7-8.148c.008-.1.008-.208.008-.316a6.9,6.9,0,0,0-1.3-4.036h.008A18.334,18.334,0,0,1,27,12.69V5.081h1.379A18.328,18.328,0,0,0,38.552,2a18.593,18.593,0,0,0,4.86,2.3,18.456,18.456,0,0,0,5.314.786Z" transform="translate(-6.976 -1.074)" fill="#b4dd7f"/><path d="M47.943,9.163v4.6a15.177,15.177,0,0,1-8.472,13.663A15.18,15.18,0,0,1,31,13.761v-4.6a21.246,21.246,0,0,0,8.472-2.5A21.246,21.246,0,0,0,47.943,9.163Z" transform="translate(-7.895 -2.145)" fill="#e6e9ed"/><path d="M25.079,22.931h-7.7l-.685-1.379a3.1,3.1,0,0,0-2.757-1.7H11.94a6.933,6.933,0,0,1,13.139,3.081Z" transform="translate(-3.514 -4.292)" fill="#ff826e"/><path d="M14.867,22.7l.685,1.379H5.54A1.545,1.545,0,0,1,4,22.54,1.552,1.552,0,0,1,5.54,21H12.11A3.1,3.1,0,0,1,14.867,22.7Z" transform="translate(-1.69 -5.441)" fill="#fc6e51"/><path d="M8,44H26.484V57.863H8Z" transform="translate(-2.609 -10.728)" fill="#cf9e76"/><path d="M29.726,46.472V48.69A2.307,2.307,0,0,1,27.415,51H20.484a2.31,2.31,0,0,1,0-4.621H25.1V41.759H6.621V46.38h4.621a2.31,2.31,0,1,1,0,4.621H4.31A2.307,2.307,0,0,1,2,48.69V46.472A12.328,12.328,0,0,1,12.782,34.25V35.6a3.081,3.081,0,1,0,6.161,0V34.25A12.317,12.317,0,0,1,29.726,46.472Z" transform="translate(-1.23 -8.487)" fill="#b4dd7f"/><path d="M22.161,34.193V35.54a3.081,3.081,0,0,1-6.161,0V34.193h.015L17.54,34h3.081l1.525.193Z" transform="translate(-4.448 -8.429)" fill="#f0d0b4"/><path d="M17.161,25h7.7c0,.108,0,.216-.008.316A6.931,6.931,0,0,1,11,25Z" transform="translate(-3.298 -6.361)" fill="#f0d0b4"/><path d="M16,44h6.161v3.081H16Z" transform="translate(-4.448 -10.728)" fill="#fcd770"/><path d="M49.242,36v4.621H40V36.839c.493.254.994.485,1.517.693l.023.008.023-.008a18.591,18.591,0,0,0,3-1.533Z" transform="translate(-9.964 -8.889)" fill="#fcd770"/><path d="M35.54,13.472a25.2,25.2,0,0,0,3.352-1l-.544-1.441a23.644,23.644,0,0,1-3.728,1.065L34,12.216v2.65l1.54-.018Z" transform="translate(-8.585 -3.149)"/><path d="M35.676,17.868l-1.526.2a13.017,13.017,0,0,0,.326,1.637l1.489-.4a11.233,11.233,0,0,1-.288-1.443Z" transform="translate(-8.619 -4.721)"/><path d="M38.9,27.856l.341.169.342-.169a15.914,15.914,0,0,0,8.9-14.36v-5.3l-.709-.056a20.468,20.468,0,0,1-8.167-2.412l-.366-.2-.367.2a20.461,20.461,0,0,1-8.166,2.412L30,8.193v5.3A15.926,15.926,0,0,0,38.9,27.856ZM31.54,9.6a21.96,21.96,0,0,0,7.7-2.331,21.944,21.944,0,0,0,7.7,2.331V13.5a14.381,14.381,0,0,1-7.7,12.8,14.389,14.389,0,0,1-7.7-12.8Z" transform="translate(-7.665 -1.885)"/><path d="M46.624,17.382l-1.089-1.089L39.148,22.68l-1.766-1.766L36.293,22l2.855,2.855Z" transform="translate(-9.112 -4.359)"/><path d="M46.439,27.139H37.976A19.011,19.011,0,0,0,44.9,12.41V4.034H42.751A17.514,17.514,0,0,1,33,1.083L32.576.8l-.427.285A17.512,17.512,0,0,1,22.4,4.034H20.254V12.41c0,.3.023.606.037.909A7.66,7.66,0,0,0,8.983,15.587H4.851a2.31,2.31,0,1,0,0,4.621h3.12a7.7,7.7,0,0,0,3.578,5.747A13.109,13.109,0,0,0,1,38.787V41a3.084,3.084,0,0,0,3.081,3.081h1.54V48.7H46.439a2.313,2.313,0,0,0,2.31-2.31V29.449A2.313,2.313,0,0,0,46.439,27.139Zm-6.931,1.54V31.76h-7.7V29.944c.162.07.315.153.48.219l.31.108.289-.115a19.417,19.417,0,0,0,2.923-1.476h3.7ZM21.794,5.575H22.4A19.038,19.038,0,0,0,32.576,2.641,19.038,19.038,0,0,0,42.751,5.575h.608V12.41A17.493,17.493,0,0,1,32.576,28.617a17.462,17.462,0,0,1-9.249-9.042c0-.046.007-.091.007-.137a7.66,7.66,0,0,0-1.324-4.312,17.608,17.608,0,0,1-.216-2.716Zm-2.076,20.38a7.73,7.73,0,0,0,3.154-3.912,18.934,18.934,0,0,0,4.324,5.1H23.129a13.019,13.019,0,0,0-3.411-1.184Zm-6.4,1.287.818-.1h2.984l.819.1v.668a2.31,2.31,0,0,1-4.621,0Zm2.31-13.965a6.167,6.167,0,0,1,6.108,5.391h-6.4l-.477-.952a3.83,3.83,0,0,0-3.444-2.129h-.581A6.113,6.113,0,0,1,15.633,13.276ZM4.081,17.9a.771.771,0,0,1,.77-.77h6.568A2.3,2.3,0,0,1,13.485,18.4l.132.263H4.851A.771.771,0,0,1,4.081,17.9Zm5.444,2.31H21.74a6.155,6.155,0,0,1-12.215,0ZM2.54,41V38.787a11.568,11.568,0,0,1,9.242-11.311v.434a3.851,3.851,0,0,0,7.7,0l0-.434a11.568,11.568,0,0,1,9.244,11.312V41a1.542,1.542,0,0,1-1.54,1.54H20.254a1.54,1.54,0,0,1,0-3.081h5.391V33.3H5.621v6.161h5.391a1.54,1.54,0,0,1,0,3.081H4.081A1.542,1.542,0,0,1,2.54,41ZM13.323,34.84h4.621v1.54H13.323ZM7.161,47.163V44.082h3.851a3.081,3.081,0,1,0,0-6.161H7.161V34.84h4.621v3.081h7.7V34.84H24.1v3.081H20.254a3.081,3.081,0,1,0,0,6.161H24.1v3.081Zm40.048-.77a.771.771,0,0,1-.77.77H25.645V44.082h1.54A3.084,3.084,0,0,0,30.266,41V38.787a13.087,13.087,0,0,0-4.793-10.108h3.89c.3.181.6.357.9.524v4.1H41.048V28.679h5.391a.771.771,0,0,1,.77.77Z" transform="translate(-1 -0.798)"/><path d="M49,57h1.54v1.54H49Z" transform="translate(-12.032 -13.716)"/><path d="M53,57h1.54v1.54H53Z" transform="translate(-12.952 -13.716)"/><path d="M57,57h1.54v1.54H57Z" transform="translate(-13.871 -13.716)"/><path d="M49,53h7.7v1.54H49Z" transform="translate(-12.032 -12.796)"/></g></g></svg>