<svg xmlns="http://www.w3.org/2000/svg" width="58.271" height="88.8" viewBox="0 0 58.271 88.8"><path d="M75.945,117.558H94.9a1.605,1.605,0,0,0,1.6-1.6V101.63a1.605,1.605,0,0,0-1.6-1.6H75.945a1.605,1.605,0,0,0-1.6,1.6v14.324a1.605,1.605,0,0,0,1.6,1.6Zm1.6-14.324H93.3v11.115H77.549Z" transform="translate(-66.325 -66.636)" fill="#283f65"/><path d="M112.236,39.775a1.7,1.7,0,0,0-.239-.76l-9.788-15.532V16.8a1.605,1.605,0,0,0-1.6-1.6H65.617a1.605,1.605,0,0,0-1.6,1.6v6.685L54.224,39.015a1.755,1.755,0,0,0-.245.829c0,.219,0,57.874,0,58a6.156,6.156,0,0,0,6.15,6.15H106.1a6.156,6.156,0,0,0,6.15-6.15c-.009-61.88.013-57.7-.01-58.069ZM100.605,26.957l7.127,11.31H93.477ZM67.221,18.4H99v3.938H67.221Zm21.743,82.381H60.126a2.943,2.943,0,0,1-2.94-2.94V41.476H88.965Zm.719-62.518H58.489L66.5,25.551H97.7Zm19.353,59.578a2.943,2.943,0,0,1-2.94,2.94H92.174V41.476h16.862Z" transform="translate(-53.976 -15.194)" fill="#283f65"/></svg>