<svg xmlns="http://www.w3.org/2000/svg" width="99.051" height="99.051" viewBox="0 0 99.051 99.051"><g transform="translate(-317 -4364.563)"><g transform="translate(324.173 4371.563)"><g transform="translate(-7.173 -7)"><circle cx="49.525" cy="49.525" r="49.525" fill="#57dbd8" opacity="0.45"/><circle cx="40.402" cy="40.402" r="40.402" transform="translate(9.123 9.123)" fill="#fff"/></g></g><g transform="translate(341.994 4390.114)"><g transform="translate(0.718 0.718)"><path d="M17.612,17.638a18.188,18.188,0,0,1,24.443-1.722c.271.207,1.467,1.252,1.692,1.5q.376.337.737.7a18.859,18.859,0,0,1,1.58,1.793,35.069,35.069,0,0,1,3.681-3.6,24.051,24.051,0,0,0-1.64-1.817A23.785,23.785,0,0,0,11.5,44.509,48.663,48.663,0,0,0,15.991,42c-5.805-8.422-5.446-17.291,1.621-24.359Z" transform="translate(-7.506 -7.529)" fill="#c9eb74"/><path d="M77.855,51.5A18.664,18.664,0,0,0,49.8,75.99l.284-.262A18.665,18.665,0,0,1,78.553,52.234q-.338-.376-.7-.737Z" transform="translate(-42.312 -42.345)" fill="#acd980"/><path d="M73.264,108.949l-4.4,2.673a18.664,18.664,0,0,1-27.974,24.6c-.157-.157-.678-.727-1.077-1.181l1.11-3.049-7.364-1.274a.718.718,0,0,0-.84.707v7.47h0l3.172-.555q.328.389.675.767c10.239,9.926,24.811,9.3,33.858.256,7.905-7.905,8.81-19.065,2.835-30.416Z" transform="translate(-30.308 -99.242)" fill="#9cd169"/><g transform="translate(2.413 9.707)"><path d="M99.272,352.032l.141.193c.07.1.248.3.46.544l2.014-1.7a.718.718,0,0,0-.34-1.256l-.564-.1L99.39,351.06A.719.719,0,0,0,99.272,352.032Z" transform="translate(-92.778 -326.675)" fill="#7fcb8f"/><path d="M35.348,406.362a.718.718,0,0,0-1.029-.111l-1.594,1.342h0v.576a.718.718,0,0,0,1.18.549l1.995-1.679Q35.616,406.7,35.348,406.362Z" transform="translate(-32.722 -377.644)" fill="#7fcb8f"/><path d="M109.637,108.949c-.1.12-.186.228-.262.317A23.786,23.786,0,0,1,72.943,139.11c.228.248.461.493.7.734a23.785,23.785,0,0,0,35.992-30.895Z" transform="translate(-69.093 -108.949)" fill="#7fcb8f"/></g><path d="M396.75,89.319a26.553,26.553,0,0,0-1.028-6.81l-7.053,5.937s3.69,2.044,6.37,2.134A1.578,1.578,0,0,0,396.75,89.319Z" transform="translate(-352.188 -75.333)" fill="#c9eb74"/><path d="M389.7,76.971l-.447.376v6.3a.718.718,0,0,1-.84.707L382.2,83.284l-.438.37a.717.717,0,0,0,.349,1.248l7.928,1.372a.718.718,0,0,0,.84-.707V77.52a.718.718,0,0,0-1.18-.549Z" transform="translate(-345.723 -70.171)" fill="#acd980"/><path d="M179.807,123.114c0-4.142-3.947-10.29-7.263-13.642a1.473,1.473,0,0,0-.7-.373c-1.225,0-8.918,9.063-8.918,15.089a7.871,7.871,0,0,0,1.107,4.305c1.866,1.882,4.779,2.31,6.854,2.31C175.181,130.8,179.807,129.14,179.807,123.114Z" transform="translate(-148.053 -99.379)" fill="#acd980"/><path d="M183,112.993c2.671,3.082,6.306,8.66,6.306,12.8,0,6.026-4.625,7.69-8.918,7.69a10.944,10.944,0,0,1-5.9-1.47c1.628,2.566,4.8,3.384,7.811,3.384,4.293,0,8.918-1.664,8.918-7.69C191.22,122.408,185.266,114.755,183,112.993Z" transform="translate(-158.509 -102.899)" fill="#9cd169"/></g><g transform="translate(0 0)"><path d="M46.6,13.932V8.1A1.436,1.436,0,0,0,44.237,7L42.785,8.221c-.31-.347-.631-.686-.959-1.015a24.508,24.508,0,0,0-41,11A24.653,24.653,0,0,0,.741,30.53a.718.718,0,0,0,1.392-.35A23.054,23.054,0,0,1,8.19,8.221a23.066,23.066,0,0,1,32.62,0c.469.469.922.962,1.347,1.466a.718.718,0,0,0,1.011.087L45.161,8.1v8.046l-7.928-1.372,2.018-1.7a.718.718,0,0,0,.087-1.012c-.358-.425-.739-.84-1.133-1.234A19.385,19.385,0,0,0,6.589,31.949l-2.5-.432a1.436,1.436,0,0,0-1.68,1.415v8.046a1.436,1.436,0,0,0,2.36,1.1l1.452-1.222c.307.343.624.679.949,1a24.516,24.516,0,0,0,32.368,2.018.718.718,0,1,0-.883-1.132,23.081,23.081,0,0,1-30.47-1.9c-.465-.465-.915-.955-1.337-1.455A.718.718,0,0,0,5.842,39.3L3.849,40.978V32.932L11.778,34.3,9.76,36a.718.718,0,0,0-.086,1.012c.355.42.732.831,1.123,1.222a19.384,19.384,0,0,0,31.62-21.111l2.5.433A1.432,1.432,0,0,0,46.31,17a23.079,23.079,0,0,1-5.5,23.838.718.718,0,1,0,1.015,1.015A24.509,24.509,0,0,0,46.6,13.932ZM37.19,37.221a17.946,17.946,0,0,1-25.379,0q-.289-.289-.566-.592L12.7,35.4a1.436,1.436,0,0,0-.68-2.513l-3.732-.646a17.948,17.948,0,0,1,28.9-20.4q.294.294.576.6l-1.458,1.227a1.436,1.436,0,0,0,.68,2.513l3.727.645a17.923,17.923,0,0,1-3.526,20.39Z" transform="translate(0 -0.03)"/><path d="M167.494,103.334c-1.642-1.735-2.2-1.735-2.432-1.735s-.79,0-2.432,1.735a33.016,33.016,0,0,0-3.078,3.861c-1.541,2.241-4.126,6.546-4.126,10.211a7.61,7.61,0,0,0,3.159,6.7,11.086,11.086,0,0,0,5.759,1.7v4.27a.718.718,0,1,0,1.436,0v-8.411l5.269-5.269a.718.718,0,0,0-1.015-1.015l-4.254,4.254v-5.662l3.036-3.036a.718.718,0,1,0-1.015-1.015l-2.02,2.02v-5.5a.718.718,0,1,0-1.436,0v5.5l-2.02-2.02a.718.718,0,0,0-1.015,1.015l3.036,3.036v5.662l-4.254-4.254a.718.718,0,0,0-1.015,1.015l5.269,5.269v2.7a9.62,9.62,0,0,1-4.943-1.441,6.256,6.256,0,0,1-2.539-5.514c0-3.175,2.3-7.071,3.678-9.11a21.667,21.667,0,0,1,4.522-5.226,21.667,21.667,0,0,1,4.522,5.226c1.374,2.04,3.678,5.935,3.678,9.11,0,3.687-1.839,5.943-5.466,6.706a.718.718,0,1,0,.3,1.4,8.539,8.539,0,0,0,4.615-2.42,8.044,8.044,0,0,0,1.991-5.69c0-3.665-2.585-7.971-4.126-10.211a33.061,33.061,0,0,0-3.079-3.861Z" transform="translate(-140.551 -91.878)"/></g></g></g></svg>