<svg xmlns="http://www.w3.org/2000/svg" width="152" height="152" viewBox="0 0 152 152"><g transform="translate(-725 -2064.78)"><g transform="translate(732.173 2071.78)"><circle cx="76" cy="76" r="76" transform="translate(-7.173 -7)" fill="#57dbd8" opacity="0.45"/><circle cx="62" cy="62" r="62" transform="translate(6.827 7)" fill="#fff"/></g><g transform="translate(760.333 2103.328)"><path d="M40.114,258.4h66.9v30.85h-66.9Z" transform="translate(-33.898 -225.646)" fill="#5ea570"/><path d="M451.923,258.4h3.093v30.85h-3.093Z" transform="translate(-381.899 -225.646)" fill="#528e61"/><path d="M66.5,221.955H59.822v-3.341a3.341,3.341,0,1,1,6.683,0Z" transform="translate(-50.553 -189.199)" fill="#544f57"/><path d="M415.731,221.955h-6.683v-3.341a3.341,3.341,0,1,1,6.683,0Z" transform="translate(-345.667 -189.199)" fill="#544f57"/><path d="M229.281,63.758l-6,3.069-6-3.069V54.5h12Z" transform="translate(-183.616 -53.337)" fill="#e49824"/><path d="M241.749,54.5v6.048a2.891,2.891,0,0,1-1.574,2.574l-4.149,2.122,3.095,1.583,6-3.069V54.5Z" transform="translate(-199.454 -53.337)" fill="#df8621"/><path d="M78.171,109.443H74.28V80.917h3.891a1.162,1.162,0,0,0,0-2.324H71.226V76.414a4.5,4.5,0,0,0-7.329-3.5L44.969,59.082l1.226-.627a1.162,1.162,0,0,0,.633-1.035V48.161A1.162,1.162,0,0,0,45.666,47H41.99a1.162,1.162,0,0,0,0,2.324H44.5v7.386l-4.837,2.475L34.83,56.709V49.323h2.514a1.162,1.162,0,0,0,0-2.324H33.668a1.162,1.162,0,0,0-1.162,1.162V57.42a1.162,1.162,0,0,0,.633,1.035l1.226.627L15.437,72.91a4.5,4.5,0,0,0-7.33,3.5v2.179H1.162a1.162,1.162,0,0,0,0,2.324H5.053V96.28a1.162,1.162,0,0,0,2.324,0V80.917H48.9a1.162,1.162,0,0,0,0-2.324H17.114V76.414a4.481,4.481,0,0,0-.3-1.628L36.681,60.267l2.456,1.256a1.162,1.162,0,0,0,1.059,0l2.456-1.256L62.524,74.785a4.481,4.481,0,0,0-.3,1.628v2.179H53.545a1.162,1.162,0,0,0,0,2.324H71.955v28.526H7.378v-8.517a1.162,1.162,0,0,0-2.324,0v8.517H1.162a1.162,1.162,0,1,0,0,2.324H78.171a1.162,1.162,0,0,0,0-2.324ZM14.79,76.414v2.179H10.431V76.414a2.179,2.179,0,0,1,2.982-2.026l-1.489,1.088A1.162,1.162,0,1,0,13.3,77.352l1.489-1.088Q14.79,76.339,14.79,76.414Zm49.753,2.179V76.414q0-.075.005-.149l1.489,1.088a1.162,1.162,0,1,0,1.371-1.877l-1.489-1.088A2.179,2.179,0,0,1,68.9,76.414v2.179Z" transform="translate(0 -46.999)"/><path d="M248.5,73.282a1.162,1.162,0,1,0,2.324,0V71.777a1.162,1.162,0,1,0-2.324,0Z" transform="translate(-209.996 -66.956)"/><path d="M71.69,304.659V285.266a1.162,1.162,0,1,0-2.324,0v19.392a1.162,1.162,0,1,0,2.324,0Z" transform="translate(-58.618 -247.365)"/><path d="M116.474,304.659V285.266a1.162,1.162,0,1,0-2.324,0v19.392a1.162,1.162,0,1,0,2.324,0Z" transform="translate(-96.463 -247.365)"/><path d="M161.258,304.659V285.266a1.162,1.162,0,1,0-2.324,0v19.392a1.162,1.162,0,1,0,2.324,0Z" transform="translate(-134.308 -247.365)"/><path d="M206.041,304.659V285.266a1.162,1.162,0,0,0-2.324,0v19.392a1.162,1.162,0,0,0,2.324,0Z" transform="translate(-172.152 -247.365)"/><path d="M250.824,304.659V285.266a1.162,1.162,0,1,0-2.324,0v19.392a1.162,1.162,0,1,0,2.324,0Z" transform="translate(-209.996 -247.365)"/><path d="M295.608,304.659V285.266a1.162,1.162,0,1,0-2.324,0v19.392a1.162,1.162,0,1,0,2.324,0Z" transform="translate(-247.84 -247.365)"/><path d="M340.391,304.659V285.266a1.162,1.162,0,0,0-2.324,0v19.392a1.162,1.162,0,0,0,2.324,0Z" transform="translate(-285.684 -247.365)"/><path d="M385.175,304.659V285.266a1.162,1.162,0,0,0-2.324,0v19.392a1.162,1.162,0,0,0,2.324,0Z" transform="translate(-323.529 -247.365)"/><path d="M429.958,304.659V285.266a1.162,1.162,0,1,0-2.324,0v19.392a1.162,1.162,0,1,0,2.324,0Z" transform="translate(-361.373 -247.365)"/></g></g></svg>