<svg xmlns="http://www.w3.org/2000/svg" width="152" height="152" viewBox="0 0 152 152"><g transform="translate(-2978.949 9540.349)"><g transform="translate(2986.122 -9533.349)"><circle cx="76" cy="76" r="76" transform="translate(-7.173 -7)" fill="#91b3fa" opacity="0.45"/><circle cx="62" cy="62" r="62" transform="translate(6.827 7)" fill="#fff"/></g><g transform="translate(3017.349 -9504.277)"><path d="M165.6,43.688H147.5V39.047a1.547,1.547,0,0,1,1.547-1.547h15a1.547,1.547,0,0,1,1.547,1.547Zm0,0" transform="translate(-124.683 -31.699)" fill="#ccc"/><path d="M230.688,39.047v4.641h-4.641V39.047A1.548,1.548,0,0,0,224.5,37.5h4.641A1.548,1.548,0,0,1,230.688,39.047Zm0,0" transform="translate(-189.772 -31.699)" fill="#a0a0a0"/><g transform="translate(11.215 18.795)"><path d="M74.047,140.836h4.641V121.5H74.047a1.547,1.547,0,0,0-1.547,1.547v16.242A1.547,1.547,0,0,0,74.047,140.836Zm0,0" transform="translate(-72.5 -121.5)" fill="#ccc"/><path d="M449.5,228.97a4.254,4.254,0,0,0,8.508,0V227.5H449.5Zm0,0" transform="translate(-391.182 -211.103)" fill="#ccc"/><path d="M463.82,321.986a2.32,2.32,0,0,1-2.32-2.32v-1.392a.773.773,0,0,1,.773-.773h3.094a.773.773,0,0,1,.773.773v1.392A2.32,2.32,0,0,1,463.82,321.986Zm0,0" transform="translate(-401.326 -287.181)" fill="#ccc"/></g><path d="M130.654,103.543H106.367a3.867,3.867,0,0,1-3.867-3.867V71.367a3.867,3.867,0,0,1,3.867-3.867h24.286a3.867,3.867,0,0,1,3.867,3.867V99.675A3.867,3.867,0,0,1,130.654,103.543Zm0,0" transform="translate(-86.644 -57.058)" fill="#79b6d8"/><path d="M157.919,117.2H138.273a.773.773,0,0,1-.773-.773V103.273a.773.773,0,0,1,.773-.773h19.646a.773.773,0,0,1,.773.773v13.149A.773.773,0,0,1,157.919,117.2Zm0,0" transform="translate(-116.23 -86.644)" fill="#fff"/><path d="M165.6,402.688H147.5v-4.641a1.547,1.547,0,0,1,1.547-1.547h15a1.547,1.547,0,0,1,1.547,1.547Zm0,0" transform="translate(-124.683 -335.165)" fill="#ccc"/><path d="M230.688,398.047v4.641h-4.641v-4.641A1.548,1.548,0,0,0,224.5,396.5h4.641A1.548,1.548,0,0,1,230.688,398.047Zm0,0" transform="translate(-189.772 -335.165)" fill="#a0a0a0"/><path d="M142.035,434.234H115.273a.773.773,0,0,1-.773-.773v-3.094a3.867,3.867,0,0,1,3.867-3.867h20.574a3.867,3.867,0,0,1,3.867,3.867v3.094A.773.773,0,0,1,142.035,434.234Zm0,0" transform="translate(-96.788 -360.525)" fill="#515759"/><path d="M251.008,430.367v3.094a.773.773,0,0,1-.773.773h-4.641a.773.773,0,0,0,.773-.773v-3.094A3.867,3.867,0,0,0,242.5,426.5h4.641A3.867,3.867,0,0,1,251.008,430.367Zm0,0" transform="translate(-204.988 -360.525)" fill="#373a3a"/><path d="M263.008,71.367V99.675a3.867,3.867,0,0,1-3.867,3.867H254.5a3.867,3.867,0,0,0,3.867-3.867V71.367A3.867,3.867,0,0,0,254.5,67.5h4.641A3.867,3.867,0,0,1,263.008,71.367Zm0,0" transform="translate(-215.131 -57.058)" fill="#3b8bb7"/><path d="M151.579,95H131.934A1.935,1.935,0,0,0,130,96.934v13.149a1.935,1.935,0,0,0,1.934,1.934H143.69a1.16,1.16,0,0,0,0-2.32H132.32V97.32h18.872V109.7H149.1a1.16,1.16,0,0,0,0,2.32h2.475a1.935,1.935,0,0,0,1.934-1.934V96.934A1.935,1.935,0,0,0,151.579,95Zm0,0" transform="translate(-109.89 -80.304)"/><path d="M134.373,220H130.66a1.16,1.16,0,0,0,0,2.32h3.713a1.16,1.16,0,1,0,0-2.32Zm0,0" transform="translate(-109.468 -185.968)"/><path d="M76.494,20.574H49.037V14.309a5.033,5.033,0,0,0-5.027-5.027H42.076V7.348a2.709,2.709,0,0,0-2.32-2.676V2.707A2.71,2.71,0,0,0,37.048,0H26.684a2.71,2.71,0,0,0-2.707,2.707V4.672a2.71,2.71,0,0,0-2.32,2.676V9.281H19.723A5.033,5.033,0,0,0,14.7,14.309v3.326H12.762a2.71,2.71,0,0,0-2.707,2.707v.232H5.74a2.715,2.715,0,0,0-2.609,1.985L.1,33.52a2.727,2.727,0,0,0-.1.722v.95a1.16,1.16,0,0,0,1.16,1.16h8.895v.232a2.71,2.71,0,0,0,2.707,2.707H14.7v3.326a5.033,5.033,0,0,0,5.027,5.027h4.254V60.205a2.71,2.71,0,0,0-2.32,2.676v1.934h-.077a5.033,5.033,0,0,0-5.027,5.027v3.094a1.935,1.935,0,0,0,1.934,1.934h3.558a1.16,1.16,0,0,0,0-2.32H18.872V69.842a2.71,2.71,0,0,1,2.707-2.707H42.153a2.71,2.71,0,0,1,2.707,2.707v2.707h-17.4a1.16,1.16,0,0,0,0,2.32H45.247a1.935,1.935,0,0,0,1.934-1.934V69.842a5.033,5.033,0,0,0-5.027-5.027h-.077V62.881a2.709,2.709,0,0,0-2.32-2.676V47.644h4.254a5.033,5.033,0,0,0,5.027-5.027V36.352H68.373v.309a5.423,5.423,0,0,0,4.177,5.27v6.023h-.387a1.935,1.935,0,0,0-1.934,1.934V51.28a3.486,3.486,0,0,0,2.32,3.281v2.146a2.54,2.54,0,0,1-5.079,0,1.16,1.16,0,0,0-2.32,0,4.86,4.86,0,0,0,9.72,0V54.561a3.486,3.486,0,0,0,2.32-3.281V49.887a1.935,1.935,0,0,0-1.934-1.934H74.87V41.967A5.424,5.424,0,0,0,79.2,36.661V23.281A2.71,2.71,0,0,0,76.494,20.574ZM74.87,51.28a1.16,1.16,0,0,1-2.32,0V50.274h2.32ZM65.078,34.032l5.461-9.9,5.472,9.9Zm-3.917,0H50.228l5.461-9.9ZM57.655,22.894H68.573l-5.454,9.885Zm19.226.387v7.528l-4.375-7.915h3.989A.387.387,0,0,1,76.881,23.281Zm-23.158-.387-4.687,8.494V22.894ZM26.684,2.32H37.048a.387.387,0,0,1,.387.387V4.641H26.3V2.707A.387.387,0,0,1,26.684,2.32ZM23.977,7.348a.387.387,0,0,1,.387-.387h15a.387.387,0,0,1,.387.387V9.281H23.977ZM2.364,34.032l3-10.854a.388.388,0,0,1,.373-.283h4.314V34.032Zm10.4,2.939a.387.387,0,0,1-.387-.387V20.342a.387.387,0,0,1,.387-.387H14.7V36.971Zm24.673,23.2H29.66l7.775-4.3ZM26.3,59.382V48.449l9.9,5.461Zm-2.32,5.433V62.881a.387.387,0,0,1,.387-.387h15a.387.387,0,0,1,.387.387v1.934ZM37.435,51.944l-7.794-4.3h7.794Zm9.281-9.327a2.71,2.71,0,0,1-2.707,2.707H19.723a2.71,2.71,0,0,1-2.707-2.707V14.309A2.71,2.71,0,0,1,19.723,11.6H44.009a2.71,2.71,0,0,1,2.707,2.707Zm30.165-5.956a3.094,3.094,0,0,1-6.188,0v-.309h6.188Zm0,0" transform="translate(0)"/></g></g></svg>