<svg xmlns="http://www.w3.org/2000/svg" width="78.333" height="78.333" viewBox="0 0 78.333 78.333"><g transform="translate(-8 -8)"><path d="M249.263,264A1.263,1.263,0,0,0,248,265.263v25.269a1.263,1.263,0,0,0,2.527,0V265.263A1.263,1.263,0,0,0,249.263,264Z" transform="translate(-202.097 -215.57)" fill="#283f65"/><path d="M209.263,264A1.263,1.263,0,0,0,208,265.263v25.269a1.263,1.263,0,0,0,2.527,0V265.263A1.263,1.263,0,0,0,209.263,264Z" transform="translate(-168.414 -215.57)" fill="#283f65"/><path d="M169.263,264A1.263,1.263,0,0,0,168,265.263v25.269a1.263,1.263,0,0,0,2.527,0V265.263A1.263,1.263,0,0,0,169.263,264Z" transform="translate(-134.731 -215.57)" fill="#283f65"/><path d="M129.263,264A1.263,1.263,0,0,0,128,265.263v25.269a1.263,1.263,0,0,0,2.527,0V265.263A1.263,1.263,0,0,0,129.263,264Z" transform="translate(-101.048 -215.57)" fill="#283f65"/><path d="M89.263,264A1.263,1.263,0,0,0,88,265.263v25.269a1.263,1.263,0,0,0,2.527,0V265.263A1.263,1.263,0,0,0,89.263,264Z" transform="translate(-67.366 -215.57)" fill="#283f65"/><path d="M49.263,264A1.263,1.263,0,0,0,48,265.263v25.269a1.263,1.263,0,0,0,2.527,0V265.263A1.263,1.263,0,0,0,49.263,264Z" transform="translate(-33.683 -215.57)" fill="#283f65"/><path d="M449.263,264A1.263,1.263,0,0,0,448,265.263v20.215a1.263,1.263,0,0,0,2.527,0V265.263A1.263,1.263,0,0,0,449.263,264Z" transform="translate(-370.511 -215.57)" fill="#283f65"/><path d="M409.263,264A1.263,1.263,0,0,0,408,265.263v25.269a1.263,1.263,0,0,0,2.527,0V265.263A1.263,1.263,0,0,0,409.263,264Z" transform="translate(-336.828 -215.57)" fill="#283f65"/><path d="M369.263,264A1.263,1.263,0,0,0,368,265.263v25.269a1.263,1.263,0,0,0,2.527,0V265.263A1.263,1.263,0,0,0,369.263,264Z" transform="translate(-303.145 -215.57)" fill="#283f65"/><path d="M329.263,264A1.263,1.263,0,0,0,328,265.263v25.269a1.263,1.263,0,0,0,2.527,0V265.263A1.263,1.263,0,0,0,329.263,264Z" transform="translate(-269.462 -215.57)" fill="#283f65"/><path d="M289.263,264A1.263,1.263,0,0,0,288,265.263v25.269a1.263,1.263,0,0,0,2.527,0V265.263A1.263,1.263,0,0,0,289.263,264Z" transform="translate(-235.78 -215.57)" fill="#283f65"/><path d="M449.263,416A1.263,1.263,0,0,0,448,417.263v1.263a1.263,1.263,0,0,0,2.527,0v-1.263A1.263,1.263,0,0,0,449.263,416Z" transform="translate(-370.511 -343.565)" fill="#283f65"/><path d="M85.07,39.586H79L51.968,28.526a5.051,5.051,0,0,0-3.538-6.469V19.371h1.263a1.263,1.263,0,0,0,1.263-1.263V15.581H62.328a1.263,1.263,0,0,0,1.263-1.263V9.263A1.263,1.263,0,0,0,62.328,8H32.005a1.263,1.263,0,0,0-1.263,1.263v5.054a1.263,1.263,0,0,0,1.263,1.263H43.376v2.527a1.263,1.263,0,0,0,1.263,1.263H45.9v3.79a1.263,1.263,0,0,0,1.263,1.263,2.527,2.527,0,1,1-2.527,2.527,1.263,1.263,0,0,0-2.527,0,5.043,5.043,0,0,0,.253,1.575L15.333,39.586H9.263A1.263,1.263,0,0,0,8,40.849V85.07a1.263,1.263,0,0,0,1.263,1.263H85.07a1.263,1.263,0,0,0,1.263-1.263V40.849A1.263,1.263,0,0,0,85.07,39.586Zm-51.8-26.532V10.527h27.8v2.527ZM45.9,16.844V15.581H48.43v1.263ZM16.844,41.7,43.765,30.685a5.043,5.043,0,0,0,6.8,0L77.489,41.7v1.679H16.844Zm-6.317.415h3.79v1.263h-3.79Zm73.28,41.694H10.527V81.28h73.28Zm0-5.054H10.527V45.9h73.28Zm0-35.376h-3.79V42.113h3.79Z" fill="#283f65"/></g></svg>