<svg xmlns="http://www.w3.org/2000/svg" width="152" height="152" viewBox="0 0 152 152"><g transform="translate(-1143 -2064.78)"><g transform="translate(1150.173 2071.78)"><circle cx="76" cy="76" r="76" transform="translate(-7.173 -7)" fill="#57dbd8" opacity="0.45"/><circle cx="62" cy="62" r="62" transform="translate(6.827 7)" fill="#fff"/></g><g transform="translate(1180.399 2114.773)"><path d="M102.361,8.381V43.516a.81.81,0,0,1-.809.81H34.305a.81.81,0,0,1-.809-.81V8.381a.81.81,0,0,1,.809-.811h67.247A.81.81,0,0,1,102.361,8.381Zm0,0" transform="translate(-28.315 -6.399)" fill="#c0694e"/><path d="M102.361,8.381V36.637a.809.809,0,0,1-.809.809H34.305a.809.809,0,0,1-.809-.809V8.381a.81.81,0,0,1,.809-.811h67.247A.81.81,0,0,1,102.361,8.381Zm0,0" transform="translate(-28.315 -6.399)" fill="#c97e67"/><path d="M82.555,240.922H9.446a1.875,1.875,0,0,1-1.875-1.875v-5.418a1.875,1.875,0,0,1,1.875-1.875H82.555a1.875,1.875,0,0,1,1.875,1.875v5.418A1.875,1.875,0,0,1,82.555,240.922Zm0,0" transform="translate(-6.4 -195.904)" fill="#5f6c75"/><path d="M46.4,259.192a5.824,5.824,0,1,1-5.824-5.824A5.824,5.824,0,0,1,46.4,259.192Zm0,0" transform="translate(-29.378 -214.174)" fill="#7e8b96"/><path d="M50.821,273.388a3.95,3.95,0,1,1,3.95-3.949A3.954,3.954,0,0,1,50.821,273.388Zm0,0" transform="translate(-39.621 -224.42)" fill="#4e5a61"/><path d="M62.772,279.232a2.157,2.157,0,1,1-2.157-2.157A2.157,2.157,0,0,1,62.772,279.232Zm0,0" transform="translate(-49.414 -234.214)" fill="#5f6c75"/><path d="M168.8,259.192a5.824,5.824,0,1,1-5.824-5.824A5.824,5.824,0,0,1,168.8,259.192Zm0,0" transform="translate(-132.839 -214.174)" fill="#7e8b96"/><path d="M173.219,273.388a3.95,3.95,0,1,1,3.95-3.949A3.954,3.954,0,0,1,173.219,273.388Zm0,0" transform="translate(-143.085 -224.42)" fill="#4e5a61"/><path d="M185.17,279.232a2.157,2.157,0,1,1-2.158-2.157A2.158,2.158,0,0,1,185.17,279.232Zm0,0" transform="translate(-152.879 -234.214)" fill="#5f6c75"/><path d="M291.2,259.192a5.824,5.824,0,1,1-5.824-5.824A5.824,5.824,0,0,1,291.2,259.192Zm0,0" transform="translate(-236.304 -214.174)" fill="#7e8b96"/><path d="M295.614,273.388a3.95,3.95,0,1,1,3.949-3.949A3.954,3.954,0,0,1,295.614,273.388Zm0,0" transform="translate(-246.546 -224.42)" fill="#4e5a61"/><path d="M307.565,279.232a2.157,2.157,0,1,1-2.157-2.157A2.157,2.157,0,0,1,307.565,279.232Zm0,0" transform="translate(-256.341 -234.214)" fill="#5f6c75"/><path d="M413.59,259.192a5.824,5.824,0,1,1-5.824-5.824A5.824,5.824,0,0,1,413.59,259.192Zm0,0" transform="translate(-339.765 -214.174)" fill="#7e8b96"/><path d="M418.009,273.388a3.95,3.95,0,1,1,3.95-3.949A3.954,3.954,0,0,1,418.009,273.388Zm0,0" transform="translate(-350.008 -224.42)" fill="#4e5a61"/><path d="M429.964,279.232a2.158,2.158,0,1,1-2.158-2.157A2.158,2.158,0,0,1,429.964,279.232Zm0,0" transform="translate(-359.805 -234.214)" fill="#5f6c75"/><path d="M76.156,34.679h-.95V1.981A1.984,1.984,0,0,0,73.223,0H5.979A1.984,1.984,0,0,0,4,1.981v32.7h-.95A3.05,3.05,0,0,0,0,37.725v5.419A3.051,3.051,0,0,0,3.047,46.19H4.3a7,7,0,0,0,13.8,0h5.138a7,7,0,0,0,13.8,0h5.14a7,7,0,0,0,13.793,0H61.1a7,7,0,0,0,13.8,0h1.256A3.05,3.05,0,0,0,79.2,43.144V37.725a3.05,3.05,0,0,0-3.046-3.046ZM69.51,2.344h3.352V34.679H69.51Zm-6.383,0h4.04V34.679h-4.04Zm-6.383,0h4.04V34.679h-4.04Zm-6.383,0H54.4V34.679h-4.04Zm-6.383,0h4.04V34.679h-4.04Zm-6.383,0h4.039V34.679H37.594Zm-12.766,0h4.039V26.166a1.172,1.172,0,0,0,2.343,0V2.344h4.04V34.679h-4.04V30.853a1.172,1.172,0,0,0-2.343,0v3.826H24.828Zm-6.383,0h4.04V34.679h-4.04Zm-6.383,0H16.1V34.679h-4.04Zm-5.722,0H9.718V34.679H6.34ZM15.7,46.19a4.653,4.653,0,1,1-4.5-5.826,4.659,4.659,0,0,1,4.5,5.826Zm18.933,0a4.653,4.653,0,1,1-4.5-5.826,4.659,4.659,0,0,1,4.5,5.826Zm14.431,3.48a4.653,4.653,0,1,1,4.652-4.652,4.659,4.659,0,0,1-4.652,4.652ZM68,49.67a4.653,4.653,0,1,1,4.5-5.823A4.659,4.659,0,0,1,68,49.67Zm8.857-6.527a.7.7,0,0,1-.7.7H74.9a7,7,0,0,0-13.8,0h-5.14a7,7,0,0,0-13.793,0h-5.14a7,7,0,0,0-13.8,0H18.1a7,7,0,0,0-13.8,0H3.047a.7.7,0,0,1-.7-.7V37.725a.7.7,0,0,1,.7-.7H76.156a.7.7,0,0,1,.7.7Zm0,0" transform="translate(-0.001 0)"/><path d="M50.586,272.419a1.173,1.173,0,0,0,0,.918,3.328,3.328,0,1,0,0-.918Zm3.3,1.445a.986.986,0,1,1,.986-.986A.987.987,0,0,1,53.883,273.864Zm0,0" transform="translate(-42.682 -227.86)"/><path d="M176.595,269.5a3.329,3.329,0,1,0,3.329,3.329A3.333,3.333,0,0,0,176.595,269.5Zm0,4.315a.986.986,0,1,1,.986-.986A.987.987,0,0,1,176.595,273.815Zm0,0" transform="translate(-146.461 -227.811)"/><path d="M295.892,271.687a3.329,3.329,0,1,0,6.23,0A3.309,3.309,0,0,0,295.892,271.687Zm3.115,2.157a.986.986,0,1,1,.986-.986A.987.987,0,0,1,299.007,273.844Zm0,0" transform="translate(-249.939 -227.84)"/><path d="M418.271,271.687a3.328,3.328,0,1,0,6.23,0A3.332,3.332,0,0,0,418.271,271.687Zm3.115,2.157a.986.986,0,1,1,.986-.986A.987.987,0,0,1,421.386,273.844Zm0,0" transform="translate(-353.386 -227.84)"/></g></g></svg>