<svg xmlns="http://www.w3.org/2000/svg" width="108" height="42.188" viewBox="0 0 108 42.188"><g transform="translate(0 -19.5)"><path d="M66.438,37.875H59.687a1.688,1.688,0,1,1,0-3.375h6.752a1.688,1.688,0,0,1,0,3.375Z" transform="translate(39.874 10.313)" fill="#283f65"/><path d="M55.125,56.625H46.688A1.687,1.687,0,0,1,45,54.938V44.813a1.687,1.687,0,0,1,1.688-1.688h1.688V21.188A1.687,1.687,0,0,1,50.063,19.5H61.875a1.686,1.686,0,0,1,1.193.495l6.75,6.75a1.687,1.687,0,1,1-2.386,2.386l-6.256-6.256H51.75V44.813A1.687,1.687,0,0,1,50.063,46.5H48.375v6.75h6.75a1.688,1.688,0,0,1,0,3.375Z" transform="translate(30.938)" fill="#283f65"/><path d="M74,53.875H63.875a1.688,1.688,0,0,1,0-3.375h8.438V26.875H48.688a1.688,1.688,0,0,1,0-3.375H74a1.687,1.687,0,0,1,1.688,1.688v27A1.687,1.687,0,0,1,74,53.875Z" transform="translate(32.313 2.75)" fill="#283f65"/><path d="M72.563,51.563H1.688A1.687,1.687,0,0,1,0,49.875V21.188A1.687,1.687,0,0,1,1.687,19.5H72.563a1.687,1.687,0,0,1,1.688,1.688V49.875a1.687,1.687,0,0,1-1.688,1.688ZM3.375,48.188h67.5V22.875H3.375Z" transform="translate(0)" fill="#283f65"/><path d="M56.75,50a6.75,6.75,0,1,1,6.75-6.75A6.75,6.75,0,0,1,56.75,50Zm0-10.125a3.375,3.375,0,1,0,3.375,3.375,3.375,3.375,0,0,0-3.375-3.375Z" transform="translate(34.375 11.688)" fill="#283f65"/><path d="M37.75,50a6.75,6.75,0,1,1,6.75-6.75A6.75,6.75,0,0,1,37.75,50Zm0-10.125a3.375,3.375,0,1,0,3.375,3.375A3.375,3.375,0,0,0,37.75,39.875Z" transform="translate(21.313 11.688)" fill="#283f65"/><path d="M12.75,50a6.75,6.75,0,1,1,6.75-6.75A6.75,6.75,0,0,1,12.75,50Zm0-10.125a3.375,3.375,0,1,0,3.375,3.375,3.375,3.375,0,0,0-3.375-3.375Z" transform="translate(4.125 11.688)" fill="#283f65"/><path d="M10.053,46.625H4.688A1.687,1.687,0,0,1,3,44.937v-6.75a1.687,1.687,0,1,1,3.375,0V43.25h3.678a1.688,1.688,0,0,1,0,3.375Z" transform="translate(2.062 11.688)" fill="#283f65"/><path d="M46.177,43.875H13.508a1.688,1.688,0,0,1,0-3.375H46.177a1.688,1.688,0,1,1,0,3.375Z" transform="translate(8.126 14.438)" fill="#283f65"/><path d="M53.875,42.875H38.688a1.688,1.688,0,0,1,0-3.375H53.875a1.688,1.688,0,0,1,0,3.375Z" transform="translate(25.438 13.75)" fill="#283f65"/><path d="M48.75,38.875H43.688a1.688,1.688,0,0,1,0-3.375H48.75a1.688,1.688,0,0,1,0,3.375Z" transform="translate(28.875 11)" fill="#283f65"/><path d="M37.688,51.48A1.687,1.687,0,0,1,36,49.792V21.308a1.688,1.688,0,0,1,3.375,0V49.792a1.687,1.687,0,0,1-1.687,1.688Z" transform="translate(24.75 0.083)" fill="#283f65"/><path d="M7.688,51.563A1.687,1.687,0,0,1,6,49.876V21.188a1.688,1.688,0,0,1,3.375,0V49.876a1.687,1.687,0,0,1-1.687,1.688Z" transform="translate(4.125 0.001)" fill="#283f65"/><path d="M31.688,51.563A1.687,1.687,0,0,1,30,49.876V21.188a1.688,1.688,0,0,1,3.375,0V49.876a1.687,1.687,0,0,1-1.688,1.688Z" transform="translate(20.625 0.001)" fill="#283f65"/><path d="M13.688,51.563A1.687,1.687,0,0,1,12,49.875V21.188a1.688,1.688,0,0,1,3.375,0V49.875a1.687,1.687,0,0,1-1.688,1.688Z" transform="translate(8.25)" fill="#283f65"/><path d="M25.688,51.564A1.687,1.687,0,0,1,24,49.876V21.188a1.688,1.688,0,1,1,3.375,0V49.876a1.687,1.687,0,0,1-1.688,1.688Z" transform="translate(16.5 0)" fill="#283f65"/><path d="M19.688,51.564A1.687,1.687,0,0,1,18,49.876V21.188a1.688,1.688,0,1,1,3.375,0V49.876a1.687,1.687,0,0,1-1.687,1.688Z" transform="translate(12.375 0)" fill="#283f65"/><path d="M63.5,40.375H51.688A1.687,1.687,0,0,1,50,38.688v-13.5a1.687,1.687,0,1,1,3.375,0V37h8.438V25.188a1.687,1.687,0,1,1,3.375,0v13.5A1.687,1.687,0,0,1,63.5,40.375Z" transform="translate(34.375 2.75)" fill="#283f65"/></g></svg>