<svg xmlns="http://www.w3.org/2000/svg" width="152" height="152" viewBox="0 0 152 152"><g transform="translate(-3402 9538)"><g transform="translate(3409.173 -9531)"><circle cx="76" cy="76" r="76" transform="translate(-7.173 -7)" fill="#91b3fa" opacity="0.45"/><circle cx="62" cy="62" r="62" transform="translate(6.827 7)" fill="#fff"/></g><g transform="translate(3443.333 -9492.667)"><g transform="translate(2.118 2.118)"><g transform="translate(0 4.473)"><path d="M69.1,7.118v3.355H2V7.118A1.122,1.122,0,0,1,3.118,6h64.86A1.122,1.122,0,0,1,69.1,7.118Z" transform="translate(-2 -6)" fill="#b27946"/></g><g transform="translate(0 8.946)"><path d="M2,10V26.774a1.122,1.122,0,0,0,1.118,1.118h64.86A1.122,1.122,0,0,0,69.1,26.774V10Z" transform="translate(-2 -10)" fill="#cf9e76"/></g><g transform="translate(4.473 13.419)"><path d="M6,14h4.473V27.419H6Z" transform="translate(-6 -14)" fill="#aab2bd"/></g><g transform="translate(13.419 13.419)"><path d="M14,14h4.473V27.419H14Z" transform="translate(-14 -14)" fill="#aab2bd"/></g><g transform="translate(22.366 13.419)"><path d="M22,14h4.473V27.419H22Z" transform="translate(-22 -14)" fill="#aab2bd"/></g><g transform="translate(31.312 13.419)"><path d="M30,14h4.473V27.419H30Z" transform="translate(-30 -14)" fill="#aab2bd"/></g><g transform="translate(40.258 13.419)"><path d="M38,14h4.473V27.419H38Z" transform="translate(-38 -14)" fill="#aab2bd"/></g><g transform="translate(49.204 13.419)"><path d="M46,14h4.473V27.419H46Z" transform="translate(-46 -14)" fill="#aab2bd"/></g><g transform="translate(58.151 13.419)"><path d="M54,14h4.473V27.419H54Z" transform="translate(-54 -14)" fill="#aab2bd"/></g><g transform="translate(22.366 0)"><path d="M44.366,3.118V6.473H22V3.118A1.122,1.122,0,0,1,23.118,2H43.247A1.122,1.122,0,0,1,44.366,3.118Z" transform="translate(-22 -2)" fill="#ccd1d9"/></g><g transform="translate(44.731 58.151)"><path d="M46.473,56.237V60.71a2.237,2.237,0,0,1-4.473,0V56.237A2.243,2.243,0,0,1,44.237,54a2.253,2.253,0,0,1,2.237,2.237Z" transform="translate(-42 -54)" fill="#969faa"/></g><g transform="translate(20.129 53.678)"><path d="M46.839,50v4.473H20V50H46.839Z" transform="translate(-20 -50)" fill="#ff826e"/></g><g transform="translate(20.129 40.258)"><path d="M46.839,39.118v2.237a1.122,1.122,0,0,1-1.118,1.118h-24.6A1.122,1.122,0,0,1,20,41.355V39.118A1.122,1.122,0,0,1,21.118,38h24.6A1.122,1.122,0,0,1,46.839,39.118Z" transform="translate(-20 -38)" fill="#fc6e51"/></g><g transform="translate(20.129 44.731)"><path d="M37.893,50.946H20L22.237,42H44.6l2.237,8.946Z" transform="translate(-20 -42)" fill="#69d6f4"/></g><g transform="translate(20.129 58.151)"><path d="M20,54H46.839A2.243,2.243,0,0,0,44.6,56.237v2.237H22.237V56.237A2.253,2.253,0,0,0,20,54Z" transform="translate(-20 -54)" fill="#ff826e"/></g><g transform="translate(40.258 26.839)"><path d="M42.473,26V39.419H38V26Z" transform="translate(-38 -26)" fill="#ccd1d9"/></g><g transform="translate(22.366 26.839)"><path d="M26.473,32.71v6.71H22V26h4.473Z" transform="translate(-22 -26)" fill="#ccd1d9"/></g><g transform="translate(17.893 58.151)"><path d="M22.473,58.473V60.71a2.237,2.237,0,0,1-4.473,0V56.237A2.243,2.243,0,0,1,20.237,54a2.253,2.253,0,0,1,2.237,2.237Z" transform="translate(-18 -54)" fill="#969faa"/></g></g><path d="M68.1,5.473H47.968V3.237A2.239,2.239,0,0,0,45.731,1H25.6a2.239,2.239,0,0,0-2.237,2.237V5.473H3.237A2.239,2.239,0,0,0,1,7.71V27.839a2.239,2.239,0,0,0,2.237,2.237H23.366V41.258a2.239,2.239,0,0,0-2.237,2.237v2.237a2.233,2.233,0,0,0,1.931,2.205l-1.9,7.588-.022,3.829a3.349,3.349,0,0,0-2.249,3.152v4.473a3.355,3.355,0,1,0,6.71,0V65.86H45.731v1.118a3.355,3.355,0,1,0,6.71,0V62.506A3.35,3.35,0,0,0,50.2,59.356V55.8l-1.936-7.858A2.232,2.232,0,0,0,50.2,45.731V43.495a2.239,2.239,0,0,0-2.237-2.237V30.075H68.1a2.239,2.239,0,0,0,2.237-2.237V7.71A2.239,2.239,0,0,0,68.1,5.473ZM25.6,3.237H45.731V5.473H25.6ZM3.237,7.71H68.1V9.946H3.235Zm6.71,20.129H7.71V16.656H9.946Zm8.946,0H16.656V16.656h2.237Zm6.71,2.237h2.237V41.258H25.6Zm20.129-2.237H43.495V16.656h2.237Zm-5.855,7.828-4.209,2.1-4.209-2.1,4.209-2.1Zm-1.709-3.355,3.091-1.545v3.091Zm3.091,5.164v3.091l-3.091-1.545Zm-8.092,1.545-3.091,1.545V37.476Zm-3.091-5.164V30.766l3.091,1.545Zm5.591,6.414,1.973.986H33.7Zm1.118-12.433H34.548V16.656h2.237Zm.854,2.237-1.973.986-1.973-.986Zm-9.8-2.237H25.6V16.656h2.237ZM45.977,47.968l1.677,6.71h-6.4V52.441h2.237V50.2h-6.71v2.237h2.237v2.237H23.68l1.677-6.71ZM23.366,59.151V56.914h24.6v2.237Zm0,7.828a1.118,1.118,0,1,1-2.237,0V62.506a1.118,1.118,0,0,1,2.237,0ZM25.6,63.624V62.506a3.317,3.317,0,0,0-.206-1.118H45.938a3.291,3.291,0,0,0-.207,1.118v1.118Zm24.6,3.355a1.118,1.118,0,1,1-2.237,0V62.506a1.118,1.118,0,1,1,2.237,0ZM47.969,45.731h-24.6V43.495h24.6Zm-2.238-4.473H43.495V30.075h2.237Zm8.946-13.419H52.441V16.656h2.237Zm8.946,0H61.387V16.656h2.237Zm2.237,0V14.419h-6.71V27.839H56.914V14.419H50.2V27.839H47.968V14.419h-6.71V27.839H39.022V14.419h-6.71V27.839H30.075V14.419h-6.71V27.839H21.129V14.419h-6.71V27.839H12.183V14.419H5.473V27.839H3.237V12.183H68.1V27.839Z"/></g></g></svg>