<svg xmlns="http://www.w3.org/2000/svg" width="152" height="152" viewBox="0 0 152 152"><g transform="translate(-3194 9538)"><g transform="translate(3201.173 -9531)"><circle cx="76" cy="76" r="76" transform="translate(-7.173 -7)" fill="#57dbd8" opacity="0.45"/><path d="M62,0A62,62,0,1,1,0,62,62,62,0,0,1,62,0Z" transform="translate(6.827 7)" fill="#fff"/></g><g transform="translate(3232.531 -9497.881)"><g transform="translate(4.324 5.105)"><path d="M10.28,9h22.8a2.281,2.281,0,0,1,2.28,2.28V43.2H8V11.28A2.281,2.281,0,0,1,10.28,9Z" transform="translate(-3.691 -4.441)" fill="#cfd8dc"/><path d="M8,15H35.357V44.636H8Z" transform="translate(-3.691 -3.601)" fill="#eceff1"/><g transform="translate(7.729)"><rect width="4.559" height="6.839" rx="1" transform="translate(7.979 18.238) rotate(90)" fill="#b0bec5"/><rect width="4.559" height="6.839" rx="1" transform="translate(19.378 18.238) rotate(90)" fill="#b0bec5"/><path d="M12.14,5H30.378a1.14,1.14,0,0,1,1.14,1.14v3.42H11V6.14A1.14,1.14,0,0,1,12.14,5Z" transform="translate(-11 -5)" fill="#b0bec5"/></g><path d="M29.046,39.839H5.36A1.14,1.14,0,0,0,4.242,41.2l3.92,19.6A2.28,2.28,0,0,0,10.4,62.636H59.149a2.28,2.28,0,0,0,2.221-1.767L67.48,34.4A1.14,1.14,0,0,0,66.369,33H42.725a6.839,6.839,0,0,0-4.1,1.368l-5.471,4.1a6.839,6.839,0,0,1-4.1,1.368Z" transform="translate(-4.219 -1.084)" fill="#455a64"/><path d="M62.186,53l-1.174,5.072a2.28,2.28,0,0,1-2.223,1.767H10.037A2.281,2.281,0,0,1,7.8,58l-1-5Z" transform="translate(-3.859 1.713)" fill="#37474f"/><rect width="22.797" height="13.678" rx="2" transform="translate(38.505 18.238)" fill="#ffa000"/><rect width="22.797" height="13.678" rx="2" transform="translate(38.505 4.559)" fill="#ffb300"/><g transform="translate(38.505 37.616)"><circle cx="2.28" cy="2.28" r="2.28" fill="#eceff1"/><circle cx="2.28" cy="2.28" r="2.28" transform="translate(11.399)" fill="#eceff1"/></g></g><g transform="translate(3.469 4.25)"><path d="M8.1,30.361a.855.855,0,0,0,.855-.855v-.947a.855.855,0,0,0-1.71,0v.947A.855.855,0,0,0,8.1,30.361Z" transform="translate(-2.941 -0.97)" fill="#030611"/><path d="M17.8,26.519A2,2,0,0,0,19.8,24.524v-2.28A2,2,0,0,0,17.8,20.25H13.245a2,2,0,0,0-1.995,1.995v2.28a2,2,0,0,0,1.995,1.995ZM12.96,24.524v-2.28a.286.286,0,0,1,.285-.285H17.8a.286.286,0,0,1,.285.285v2.28a.286.286,0,0,1-.285.285H13.245A.286.286,0,0,1,12.96,24.524Z" transform="translate(-2.381 -2.012)" fill="#030611"/><path d="M27.8,26.519A2,2,0,0,0,29.8,24.524v-2.28A2,2,0,0,0,27.8,20.25H23.245a2,2,0,0,0-1.995,1.995v2.28a2,2,0,0,0,1.995,1.995ZM22.96,24.524v-2.28a.286.286,0,0,1,.285-.285H27.8a.286.286,0,0,1,.285.285v2.28a.286.286,0,0,1-.285.285H23.245A.286.286,0,0,1,22.96,24.524Z" transform="translate(-0.983 -2.012)" fill="#030611"/><path d="M68.035,36.919a1.985,1.985,0,0,0-1.561-.752h-.341a3.074,3.074,0,0,0,.348-1.425V25.622a3.118,3.118,0,0,0-1-2.28,3.118,3.118,0,0,0,1-2.28V11.944a3.138,3.138,0,0,0-3.135-3.135H45.109a3.138,3.138,0,0,0-3.135,3.135v9.119a3.118,3.118,0,0,0,1,2.28,3.118,3.118,0,0,0-1,2.28v9.119a3.087,3.087,0,0,0,.372,1.464,7.727,7.727,0,0,0-4.134,1.5l-1.368,1.026V11.944A3.138,3.138,0,0,0,33.711,8.81h-.285V6.245A2,2,0,0,0,31.431,4.25H13.193A2,2,0,0,0,11.2,6.245V8.81h-.285a3.138,3.138,0,0,0-3.135,3.135V28.9a.855.855,0,1,0,1.71,0V17.359H35.135V40.013l-2.394,1.8a6.018,6.018,0,0,1-3.59,1.2H9.489V35.488a.855.855,0,1,0-1.71,0v7.518H5.465a1.994,1.994,0,0,0-1.956,2.386l3.92,19.6a3.143,3.143,0,0,0,3.074,2.52H59.254a3.121,3.121,0,0,0,3.054-2.43l2.965-12.849a.855.855,0,1,0-1.666-.384l-1.642,7.114h-54L5.185,45.056a.285.285,0,0,1,.279-.341H29.151a7.742,7.742,0,0,0,4.617-1.539l5.471-4.1a6.018,6.018,0,0,1,3.59-1.2H66.474a.285.285,0,0,1,.277.35l-2.3,9.97a.855.855,0,0,0,1.666.384l2.3-9.97a1.985,1.985,0,0,0-.383-1.691ZM12.908,6.245a.286.286,0,0,1,.285-.285H31.431a.286.286,0,0,1,.285.285V8.809H12.908Zm-3.42,9.4v-3.7a1.426,1.426,0,0,1,1.425-1.425h22.8a1.426,1.426,0,0,1,1.425,1.425v3.7ZM61.571,60.673,60.642,64.7a1.418,1.418,0,0,1-1.388,1.1H10.5a1.43,1.43,0,0,1-1.4-1.145l-.8-3.984ZM43.684,21.063V11.944a1.426,1.426,0,0,1,1.425-1.425H63.347a1.426,1.426,0,0,1,1.425,1.425v9.119a1.426,1.426,0,0,1-1.425,1.425H45.109A1.426,1.426,0,0,1,43.684,21.063ZM63.347,24.2a1.426,1.426,0,0,1,1.425,1.425v9.119a1.426,1.426,0,0,1-1.425,1.425H45.109a1.426,1.426,0,0,1-1.425-1.425V25.622A1.426,1.426,0,0,1,45.109,24.2Z" transform="translate(-3.469 -4.25)" fill="#030611"/><path d="M43.1,30.519a.855.855,0,0,0,.855-.855V25.1a.855.855,0,1,0-1.71,0v4.559A.855.855,0,0,0,43.1,30.519Z" transform="translate(1.955 -1.453)" fill="#030611"/><path d="M48.1,30.519a.855.855,0,0,0,.855-.855V25.1a.855.855,0,1,0-1.71,0v4.559A.855.855,0,0,0,48.1,30.519Z" transform="translate(2.654 -1.453)" fill="#030611"/><path d="M53.1,30.519a.855.855,0,0,0,.855-.855V25.1a.855.855,0,1,0-1.71,0v4.559A.855.855,0,0,0,53.1,30.519Z" transform="translate(3.353 -1.453)" fill="#030611"/><path d="M43.1,12.25a.855.855,0,0,0-.855.855v4.559a.855.855,0,1,0,1.71,0V13.1A.855.855,0,0,0,43.1,12.25Z" transform="translate(1.955 -3.131)" fill="#030611"/><path d="M48.1,12.25a.855.855,0,0,0-.855.855v4.559a.855.855,0,1,0,1.71,0V13.1A.855.855,0,0,0,48.1,12.25Z" transform="translate(2.654 -3.131)" fill="#030611"/><path d="M53.1,12.25a.855.855,0,0,0-.855.855v4.559a.855.855,0,1,0,1.71,0V13.1A.855.855,0,0,0,53.1,12.25Z" transform="translate(3.353 -3.131)" fill="#030611"/><path d="M37.25,40.385a3.135,3.135,0,1,0,3.135-3.135A3.138,3.138,0,0,0,37.25,40.385Zm4.559,0a1.425,1.425,0,1,1-1.425-1.425A1.426,1.426,0,0,1,41.809,40.385Z" transform="translate(1.255 0.365)" fill="#030611"/><path d="M47.25,40.385a3.135,3.135,0,1,0,3.135-3.135A3.138,3.138,0,0,0,47.25,40.385Zm4.559,0a1.425,1.425,0,1,1-1.425-1.425A1.426,1.426,0,0,1,51.809,40.385Z" transform="translate(2.654 0.365)" fill="#030611"/></g></g></g></svg>