<svg xmlns="http://www.w3.org/2000/svg" width="65.833" height="75.238" viewBox="0 0 65.833 75.238"><g transform="translate(-50 -20)"><path d="M115.833,65.46v0a1.579,1.579,0,0,0-.812-1.373h0l-.011-.006-27.267-15a6.277,6.277,0,0,0,1.34-2.852c.181-.976.211-2.166-.879-2.6a1.584,1.584,0,0,0-2.109,1.1,9.251,9.251,0,0,1-.275,1.547,3.164,3.164,0,0,1-.926,1.244l-1.219-.671a1.568,1.568,0,0,0-1.511,0l-1.219.67a3.134,3.134,0,0,1,1.974-5.567,1.582,1.582,0,0,0,1.567-1.567V37.242h3.135a1.568,1.568,0,0,0,1.567-1.567V21.567A1.568,1.568,0,0,0,87.619,20h-9.4a1.567,1.567,0,0,0-1.567,1.567V35.675a1.567,1.567,0,0,0,1.567,1.567h3.135v1.766a6.267,6.267,0,0,0-3.257,10.071l-27.267,15-.011.006h0A1.59,1.59,0,0,0,50,65.456V93.671a1.568,1.568,0,0,0,1.567,1.567h62.7a1.568,1.568,0,0,0,1.567-1.567V65.46ZM79.782,23.135h6.27V34.107h-6.27ZM112.7,82.7h-12.54v-6.27H112.7ZM82.917,51.349a6.246,6.246,0,0,0,1.907-.3l23.34,12.837H57.67L81.01,51.052A6.246,6.246,0,0,0,82.917,51.349ZM81.349,67.024v6.27H68.81v-6.27Zm3.135,0h12.54v6.27H84.484Zm-31.349,0h12.54v6.27H53.135Zm0,9.4h12.54V82.7H53.135Zm15.675,0h12.54V82.7H68.81Zm12.54,9.4V92.1H68.81v-6.27Zm3.135,0h12.54V92.1H84.484Zm0-3.135v-6.27h12.54V82.7Zm15.675-9.4v-6.27H112.7v6.27ZM53.135,85.833h12.54V92.1H53.135Zm47.024,6.27v-6.27H112.7V92.1Z" fill="#283f65"/><path d="M104.7,390h-3.135a1.567,1.567,0,0,0,0,3.135H104.7a1.567,1.567,0,0,0,0-3.135Z" transform="translate(-42.163 -312.004)" fill="#283f65"/><path d="M84.7,330H81.567a1.567,1.567,0,1,0,0,3.135H84.7a1.567,1.567,0,1,0,0-3.135Z" transform="translate(-25.298 -261.409)" fill="#283f65"/><path d="M84.7,450H81.567a1.567,1.567,0,1,0,0,3.135H84.7a1.567,1.567,0,1,0,0-3.135Z" transform="translate(-25.298 -362.599)" fill="#283f65"/><path d="M204.7,390h-3.135a1.567,1.567,0,0,0,0,3.135H204.7a1.567,1.567,0,0,0,0-3.135Z" transform="translate(-126.488 -312.004)" fill="#283f65"/><path d="M181.567,333.135H184.7a1.567,1.567,0,1,0,0-3.135h-3.135a1.567,1.567,0,1,0,0,3.135Z" transform="translate(-109.623 -261.409)" fill="#283f65"/><path d="M181.567,453.135H184.7a1.567,1.567,0,1,0,0-3.135h-3.135a1.567,1.567,0,1,0,0,3.135Z" transform="translate(-109.623 -362.599)" fill="#283f65"/><path d="M304.7,390h-3.135a1.567,1.567,0,1,0,0,3.135H304.7a1.567,1.567,0,0,0,0-3.135Z" transform="translate(-210.813 -312.004)" fill="#283f65"/><path d="M284.7,330h-3.135a1.567,1.567,0,0,0,0,3.135H284.7a1.567,1.567,0,0,0,0-3.135Z" transform="translate(-193.948 -261.409)" fill="#283f65"/><path d="M284.7,450h-3.135a1.567,1.567,0,0,0,0,3.135H284.7a1.567,1.567,0,0,0,0-3.135Z" transform="translate(-193.948 -362.599)" fill="#283f65"/><path d="M401.567,393.135H404.7a1.567,1.567,0,1,0,0-3.135h-3.135a1.567,1.567,0,1,0,0,3.135Z" transform="translate(-295.139 -312.004)" fill="#283f65"/><path d="M384.7,330h-3.135a1.567,1.567,0,1,0,0,3.135H384.7a1.567,1.567,0,0,0,0-3.135Z" transform="translate(-278.274 -261.409)" fill="#283f65"/><path d="M384.7,450h-3.135a1.567,1.567,0,1,0,0,3.135H384.7a1.567,1.567,0,0,0,0-3.135Z" transform="translate(-278.274 -362.599)" fill="#283f65"/></g></svg>