<svg xmlns="http://www.w3.org/2000/svg" width="152" height="152" viewBox="0 0 152 152"><g transform="translate(-927 -2064.78)"><g transform="translate(934.173 2071.78)"><circle cx="76" cy="76" r="76" transform="translate(-7.173 -7)" fill="#91b3fa" opacity="0.45"/><circle cx="62" cy="62" r="62" transform="translate(6.827 7)" fill="#fff"/></g><g transform="translate(973.231 2112.28)"><path d="M7.5,219.8H65.293V212.48a1.054,1.054,0,0,0-1.054-1.054H8.554A1.054,1.054,0,0,0,7.5,212.48Z" transform="translate(-6.628 -188.109)" fill="#c9e2e7"/><path d="M7.5,243.382v8.273H65.293v-8.273Z" transform="translate(-6.628 -216.349)" fill="#97e4f9"/><path d="M462.726,211.425h-4.3a1.055,1.055,0,0,1,1.054,1.054V219.8h4.3v-7.321A1.055,1.055,0,0,0,462.726,211.425Z" transform="translate(-405.115 -188.108)" fill="#a8d0d5"/><path d="M459.476,243.382V250.6a1.054,1.054,0,0,1-1.054,1.054h5.358v-8.273Z" transform="translate(-405.115 -216.349)" fill="#62d8f9"/><path d="M47.89,371.76a.332.332,0,0,0-.317.227c-1.1,3.392-4.723,5.834-4.723,8.9a5.04,5.04,0,0,0,10.079,0c0-3.066-3.619-5.508-4.723-8.9A.332.332,0,0,0,47.89,371.76Z" transform="translate(-37.867 -329.799)" fill="#fbe7c5"/><path d="M217.7,371.76a.332.332,0,0,0-.317.227c-1.1,3.392-4.723,5.834-4.723,8.9a5.04,5.04,0,0,0,10.079,0c0-3.066-3.619-5.508-4.723-8.9A.332.332,0,0,0,217.7,371.76Z" transform="translate(-187.931 -329.799)" fill="#fbe7c5"/><g transform="translate(4.422 0.873)"><path d="M42.506,18.822,38.65,22.049a1.746,1.746,0,1,0,2.241,2.677l.989-.828V34.251a1.746,1.746,0,1,0,3.491,0V23.9l.989.828A1.746,1.746,0,0,0,48.6,22.049l-3.855-3.227a1.746,1.746,0,0,0-2.241,0Z" transform="translate(-38.025 -18.415)" fill="#cdf09c"/><path d="M212.316,18.822l-3.855,3.227a1.746,1.746,0,1,0,2.241,2.677l.989-.828V34.251a1.746,1.746,0,1,0,3.491,0V23.9l.989.828a1.746,1.746,0,0,0,2.241-2.677l-3.855-3.227A1.746,1.746,0,0,0,212.316,18.822Z" transform="translate(-188.089 -18.415)" fill="#cdf09c"/><path d="M382.125,18.822l-3.855,3.227a1.746,1.746,0,1,0,2.241,2.677l.989-.828V34.251a1.746,1.746,0,0,0,3.491,0V23.9l.989.828a1.746,1.746,0,0,0,2.241-2.677l-3.855-3.227A1.746,1.746,0,0,0,382.125,18.822Z" transform="translate(-338.152 -18.415)" fill="#cdf09c"/></g><path d="M387.51,371.76a.332.332,0,0,0-.317.227c-1.1,3.392-4.723,5.834-4.723,8.9a5.04,5.04,0,0,0,10.079,0c0-3.066-3.619-5.508-4.723-8.9a.332.332,0,0,0-.317-.227Z" transform="translate(-337.995 -329.799)" fill="#fbe7c5"/><path d="M409.77,371.987a.335.335,0,0,0-.438-.205.343.343,0,0,0-.2.219q-.021.064-.043.128a7.944,7.944,0,0,0,.419,6.362,4.893,4.893,0,0,1-2.206,6.956,5.042,5.042,0,0,0,7.192-4.558C414.493,377.821,410.874,375.379,409.77,371.987Z" transform="translate(-359.939 -329.799)" fill="#fdd8a3"/><path d="M239.961,371.987a.335.335,0,0,0-.438-.205.343.343,0,0,0-.2.219q-.021.064-.043.128a7.944,7.944,0,0,0,.419,6.362,4.893,4.893,0,0,1-2.206,6.956,5.042,5.042,0,0,0,7.192-4.558C244.684,377.821,241.064,375.379,239.961,371.987Z" transform="translate(-209.876 -329.799)" fill="#fdd8a3"/><path d="M70.151,371.987a.335.335,0,0,0-.438-.205.343.343,0,0,0-.2.219q-.021.064-.043.128a7.944,7.944,0,0,0,.419,6.362,4.893,4.893,0,0,1-2.206,6.956,5.042,5.042,0,0,0,7.192-4.558c0-3.066-3.619-5.508-4.723-8.9Z" transform="translate(-59.812 -329.799)" fill="#fdd8a3"/><path d="M451.37,266.252a.872.872,0,0,0,.609-1.073l-.578-2.095a.872.872,0,1,0-1.682.464l.578,2.095A.872.872,0,0,0,451.37,266.252Z" transform="translate(-397.397 -233.195)"/><path d="M393.178,266.251a.872.872,0,0,0,.609-1.073l-.578-2.095a.872.872,0,1,0-1.681.464l.578,2.095A.872.872,0,0,0,393.178,266.251Z" transform="translate(-345.971 -233.194)"/><path d="M334.985,266.251a.872.872,0,0,0,.609-1.073l-.578-2.095a.872.872,0,1,0-1.681.464l.578,2.095A.872.872,0,0,0,334.985,266.251Z" transform="translate(-294.545 -233.194)"/><path d="M276.791,266.252a.872.872,0,0,0,.609-1.073l-.578-2.095a.872.872,0,0,0-1.682.464l.578,2.095A.872.872,0,0,0,276.791,266.252Z" transform="translate(-243.119 -233.195)"/><path d="M218.6,266.252a.872.872,0,0,0,.609-1.073l-.578-2.095a.872.872,0,0,0-1.682.464l.578,2.095A.872.872,0,0,0,218.6,266.252Z" transform="translate(-191.693 -233.195)"/><path d="M160.4,266.251a.872.872,0,0,0,.609-1.073l-.578-2.095a.872.872,0,1,0-1.681.464l.578,2.095A.872.872,0,0,0,160.4,266.251Z" transform="translate(-140.266 -233.194)"/><path d="M102.212,266.251a.872.872,0,0,0,.609-1.073l-.578-2.095a.872.872,0,0,0-1.681.464l.578,2.095A.872.872,0,0,0,102.212,266.251Z" transform="translate(-88.84 -233.194)"/><path d="M44.019,266.252a.872.872,0,0,0,.609-1.073l-.578-2.095a.872.872,0,1,0-1.682.464l.578,2.095A.872.872,0,0,0,44.019,266.252Z" transform="translate(-37.414 -233.195)"/><path d="M58.665,307.024H.872a.872.872,0,1,0,0,1.744H58.665a.872.872,0,1,0,0-1.744Z" transform="translate(0 -272.591)"/><path d="M57.61,203.925H21.947a.872.872,0,1,0,0,1.744H57.61a.182.182,0,0,1,.182.182v1.789H1.744v-1.789a.182.182,0,0,1,.182-.182h15.94a.872.872,0,1,0,0-1.744H1.927A1.929,1.929,0,0,0,0,205.852v2.662a.872.872,0,0,0,.872.872H58.665a.872.872,0,0,0,.872-.872v-2.662A1.929,1.929,0,0,0,57.61,203.925Z" transform="translate(0 -181.48)"/><path d="M42.409,365.1a1.208,1.208,0,0,0-2.293,0c-1.048,3.22-4.766,5.725-4.766,9.17a5.912,5.912,0,0,0,11.824,0C47.175,370.82,43.459,368.335,42.409,365.1Zm-1.147,13.337a4.172,4.172,0,0,1-4.168-4.167c0-2.324,2.751-4.547,4.168-7.39,1.414,2.838,4.168,5.066,4.168,7.39A4.172,4.172,0,0,1,41.263,378.442Z" transform="translate(-31.24 -323.186)"/><path d="M212.218,365.1a1.208,1.208,0,0,0-2.293,0c-1.048,3.22-4.766,5.725-4.766,9.17a5.912,5.912,0,0,0,11.824,0C216.984,370.821,213.269,368.335,212.218,365.1Zm-1.146,13.337a4.172,4.172,0,0,1-4.168-4.167c0-2.324,2.751-4.547,4.168-7.39,1.416,2.841,4.168,5.067,4.168,7.39A4.172,4.172,0,0,1,211.072,378.442Z" transform="translate(-181.303 -323.186)"/><path d="M34.376,19.061v8.556a2.618,2.618,0,0,0,5.236,0V19.061a2.618,2.618,0,0,0,2.918-4.314l-3.855-3.227a2.615,2.615,0,0,0-3.36,0h0l-3.855,3.227a2.618,2.618,0,0,0,2.918,4.314Zm-1.8-2.977,3.855-3.227a.873.873,0,0,1,1.121,0l3.855,3.227a.872.872,0,0,1,.313.671.862.862,0,0,1-.2.56.875.875,0,0,1-1.23.109L39.3,16.6a.873.873,0,0,0-1.432.669V27.617a.874.874,0,0,1-1.747,0V17.264a.873.873,0,0,0-1.432-.669l-.989.828a.873.873,0,1,1-1.121-1.34Z" transform="translate(-26.971 -10.908)"/><path d="M204.186,19.061v8.556a2.618,2.618,0,0,0,5.236,0V19.061a2.618,2.618,0,0,0,2.918-4.314l-3.855-3.227a2.615,2.615,0,0,0-3.36,0h0l-3.855,3.227a2.618,2.618,0,0,0,2.917,4.314Zm-1.8-2.977,3.855-3.227a.873.873,0,0,1,1.121,0l3.855,3.227a.873.873,0,1,1-1.121,1.339l-.989-.828a.873.873,0,0,0-1.432.669V27.617a.874.874,0,0,1-1.747,0V17.264A.873.873,0,0,0,204.5,16.6l-.989.828a.873.873,0,1,1-1.121-1.34Z" transform="translate(-177.035 -10.908)"/><path d="M374,19.061v8.556a2.618,2.618,0,1,0,5.236,0V19.061a2.618,2.618,0,0,0,2.918-4.314l-3.855-3.227a2.615,2.615,0,0,0-3.36,0h0l-3.855,3.227A2.618,2.618,0,0,0,374,19.061Zm-1.8-2.977,3.855-3.227a.873.873,0,0,1,1.121,0l3.855,3.227a.873.873,0,1,1-1.121,1.339l-.989-.828a.873.873,0,0,0-1.432.669V27.617a.874.874,0,0,1-1.747,0V17.264a.873.873,0,0,0-1.432-.669l-.989.828a.873.873,0,1,1-1.121-1.34Z" transform="translate(-327.099 -10.908)"/><path d="M385.067,371.476a.872.872,0,0,0-.425,1.158,3.889,3.889,0,0,1,.405,1.64,4.168,4.168,0,0,1-8.335,0c0-2.323,2.752-4.55,4.168-7.39a17.361,17.361,0,0,0,1.593,2.5.872.872,0,1,0,1.406-1.032,12.055,12.055,0,0,1-1.853-3.252,1.208,1.208,0,0,0-2.293,0c-1.05,3.229-4.766,5.718-4.766,9.17a5.912,5.912,0,0,0,11.824,0,5.585,5.585,0,0,0-.567-2.373.872.872,0,0,0-1.158-.425Z" transform="translate(-331.366 -323.185)"/></g></g></svg>