<svg height="152" viewBox="0 0 152 152" width="152" xmlns="http://www.w3.org/2000/svg"><circle cx="76" cy="76" fill="#57dbd8" opacity=".45" r="76"/><path d="m62 0a62 62 0 1 1 -62 62 62 62 0 0 1 62-62z" fill="#fff" transform="translate(14 14)"/><g fill-rule="evenodd"><path d="m163.694 15.788a24.659 24.659 0 0 1 7.23 3l4.7-2.084 5.535 5.535-2.084 4.7a24.667 24.667 0 0 1 3 7.23l4.794 1.845v7.826l-4.794 1.845a24.686 24.686 0 0 1 -3 7.227l2.084 4.7-5.535 5.539-4.7-2.088a24.671 24.671 0 0 1 -7.23 3l-1.845 4.79h-7.831l-1.845-4.794a24.678 24.678 0 0 1 -7.227-3l-4.7 2.088-5.539-5.539 2.088-4.695a24.748 24.748 0 0 1 -3-7.23l-4.79-1.845v-7.829l4.79-1.845a24.67 24.67 0 0 1 3-7.23l-2.088-4.7 5.539-5.535 4.695 2.084a24.737 24.737 0 0 1 7.23-3l1.845-4.794h7.831z" fill="#a79ba7" transform="translate(-76.474 26.434)"/><path d="m230.184 17.4 1.579-.7 5.535 5.535-2.084 4.7a24.667 24.667 0 0 1 3 7.23l4.786 1.844v7.831l-4.794 1.845a24.686 24.686 0 0 1 -3 7.227l2.084 4.7-5.535 5.539-1.579-.7 4.838-4.838-2.088-4.7a24.686 24.686 0 0 0 3-7.227l4.794-1.845v-7.832l-4.794-1.845a24.667 24.667 0 0 0 -3-7.23l2.088-4.7zm-34.5 0 .7-.7 4.695 2.084c-.331.184-.659.376-.981.577zm24.147-1.613a24.659 24.659 0 0 1 7.23 3l-1.295.577a32.259 32.259 0 0 0 -8.214-3.574l-1.845-4.794h2.279zm-18.745 45.274-4.7 2.088-.7-.7 4.415-1.961q.482.297.985.573zm25.978 0a24.672 24.672 0 0 1 -7.23 3l-1.845 4.79h-2.279l1.845-4.79a32.338 32.338 0 0 0 8.218-3.574z" fill="#837683" transform="translate(-132.614 26.434)"/><path d="m221.752 86.793a16.946 16.946 0 1 1 -16.946 16.946 16.947 16.947 0 0 1 16.946-16.946z" fill="#ffc338" transform="translate(-140.291 -37.383)"/><path d="m304.277 86.793a16.946 16.946 0 1 1 0 33.893c-.488 0-.972-.022-1.451-.063a16.946 16.946 0 0 0 0-33.768c.474-.04.962-.062 1.451-.062z" fill="#f5b829" transform="translate(-222.816 -37.383)"/><path d="m166.306 294.7c-5.059-18.88 12.829-20.453 18.674-20.574a.285.285 0 0 1 .176.512c-6.834 5.113-3.856 19.834-18.85 20.062z" fill="#6cf5c2" transform="translate(-107.128 -195.098)"/><path d="m38.574 348.894c-14.541 3.665-15.474-11.326-23.4-14.5a.284.284 0 0 1 .037-.54c5.677-1.396 23.363-4.506 23.363 15.04z" fill="#6cf5c2" transform="translate(19.514 -244.488)"/><path d="m30.421 76.833c-6.829 1.161-10.667-1.757-13.734-5.474-1.525-1.849-2.844-3.912-4.278-5.711a11.288 11.288 0 0 0 -4.436-3.734 1.549 1.549 0 0 1 .2-2.942 32.819 32.819 0 0 1 11.784-.885 14.864 14.864 0 0 1 8.813 4.138 13.16 13.16 0 0 1 2.013 2.688 14.806 14.806 0 0 1 1.692-7.761l-1.375-1.38a1.265 1.265 0 0 1 -.261-1.408l1.822-4.1a26.024 26.024 0 0 1 -2.645-6.37l-4.182-1.609a1.265 1.265 0 0 1 -.81-1.18v-7.824a1.264 1.264 0 0 1 .81-1.18l4.181-1.609a26.058 26.058 0 0 1 2.646-6.377l-1.822-4.1a1.265 1.265 0 0 1 .261-1.408l5.533-5.533a1.265 1.265 0 0 1 1.408-.261l4.1 1.822a25.87 25.87 0 0 1 6.37-2.635l1.616-4.189a1.264 1.264 0 0 1 1.18-.811h7.827a1.265 1.265 0 0 1 1.181.811l1.608 4.189a25.874 25.874 0 0 1 6.369 2.639l4.1-1.822a1.265 1.265 0 0 1 1.408.261l5.533 5.533a1.265 1.265 0 0 1 .262 1.406l-1.816 4.1a25.826 25.826 0 0 1 2.64 6.378l4.181 1.605a1.264 1.264 0 0 1 .81 1.18v7.827a1.265 1.265 0 0 1 -.81 1.18l-4.183 1.613a26.085 26.085 0 0 1 -2.64 6.369l1.816 4.1a1.265 1.265 0 0 1 -.262 1.406l-5.531 5.531a1.265 1.265 0 0 1 -1.406.262l-4.1-1.815a25.794 25.794 0 0 1 -6.371 2.64l-1.609 4.18a1.264 1.264 0 0 1 -1.18.81h-7.827a1.265 1.265 0 0 1 -1.18-.81l-1.609-4.18q-.8-.212-1.58-.473-.18.424-.369.842c-2.071 4.538-5.161 8.463-12.591 8.9a23.7 23.7 0 0 0 -.528 12.258 1.265 1.265 0 0 1 -2.489.451 31.773 31.773 0 0 1 -.54-7.535zm-.056-5.027a13.323 13.323 0 0 0 -3.4-7.817 12.359 12.359 0 0 0 -7.35-3.4 27.324 27.324 0 0 0 -8.375.312c2.178 1.655 3.9 4.139 5.7 6.623 1.883 2.594 3.877 5.185 6.954 6.368a11.071 11.071 0 0 0 5.479.534 34.138 34.138 0 0 0 -8.428-6.426 1.265 1.265 0 1 1 1.265-2.19 38.982 38.982 0 0 1 8.155 5.996zm3.577-16.77a15.956 15.956 0 0 1 6.028-4.248 23.239 23.239 0 0 1 2.286-.823 18.142 18.142 0 1 1 7.687 4.657c-.257.486-.494.994-.721 1.515-.479 1.1-.909 2.259-1.352 3.427q.928.3 1.883.531a1.265 1.265 0 0 1 .889.776l1.532 3.982h6.09l1.536-3.981a1.265 1.265 0 0 1 .888-.776 23.257 23.257 0 0 0 6.855-2.84 1.265 1.265 0 0 1 1.177-.081l3.9 1.73 4.309-4.305-1.73-3.9a1.265 1.265 0 0 1 .078-1.173 23.562 23.562 0 0 0 2.843-6.86 1.265 1.265 0 0 1 .776-.888l3.982-1.533v-6.096l-3.978-1.533a1.264 1.264 0 0 1 -.776-.889 23.31 23.31 0 0 0 -2.841-6.864 1.265 1.265 0 0 1 -.08-1.176l1.73-3.9-4.305-4.306-3.9 1.736a1.265 1.265 0 0 1 -1.177-.079 23.348 23.348 0 0 0 -6.857-2.842 1.265 1.265 0 0 1 -.888-.777l-1.541-3.992h-6.091l-1.54 3.991a1.265 1.265 0 0 1 -.887.775 23.349 23.349 0 0 0 -6.857 2.842 1.265 1.265 0 0 1 -1.177.079l-3.9-1.736-4.3 4.3 1.736 3.9a1.265 1.265 0 0 1 -.079 1.177 23.546 23.546 0 0 0 -2.85 6.867 1.264 1.264 0 0 1 -.775.885l-3.991 1.542v6.09l3.982 1.533a1.264 1.264 0 0 1 .775.884 23.5 23.5 0 0 0 2.849 6.859 1.264 1.264 0 0 1 .08 1.179l-1.74 3.905zm11.258-5.793a38.524 38.524 0 0 1 6.378-.649 1.549 1.549 0 0 1 .958 2.789 7.458 7.458 0 0 0 -1.109 1.027 15.736 15.736 0 1 0 -6.227-3.167zm-10.09 19.767a11.071 11.071 0 0 0 5.154-1.934c2.666-1.939 3.922-4.958 5.069-7.951 1.1-2.866 2.116-5.711 3.791-7.873a27.318 27.318 0 0 0 -8.17 1.866 12.359 12.359 0 0 0 -6.22 5.185 13.324 13.324 0 0 0 -1.262 8.431 38.989 38.989 0 0 1 6.325-7.9 1.265 1.265 0 0 1 1.789 1.789 34.129 34.129 0 0 0 -6.476 8.387zm18.841-41.289v-1.25a1.265 1.265 0 1 1 2.529 0v1.229a6.321 6.321 0 0 1 4.894 3.852 1.265 1.265 0 0 1 -2.332.979 4.179 4.179 0 0 0 -5.476-2.09 2.766 2.766 0 0 0 -1.955 2.7 2.383 2.383 0 0 0 1.532 2.068 8.353 8.353 0 0 0 2.293.666c2.859.471 6.03 1.727 6.438 5.126s-2.493 5.284-5.4 5.692v1.218a1.265 1.265 0 0 1 -2.529 0v-1.231a6.323 6.323 0 0 1 -5.4-4.622 1.265 1.265 0 1 1 2.454-.611c.491 1.973 2.467 2.853 4.4 2.805a5.624 5.624 0 0 0 2.979-.856 2.11 2.11 0 0 0 .979-2.085 2.6 2.6 0 0 0 -1.341-1.981 8.556 8.556 0 0 0 -2.995-.951c-2.784-.453-5.789-1.81-5.945-5.111a5.216 5.216 0 0 1 3.555-5.174 6.994 6.994 0 0 1 1.311-.371z" transform="translate(26.245 29.797)"/></g></svg>